<?xml version="1.0" encoding="UTF-8"?>
<!DOCTYPE svg PUBLIC "-//W3C//DTD SVG 1.1//EN" "http://www.w3.org/Graphics/SVG/1.1/DTD/svg11.dtd">
<svg version="1.2" width="215.9mm" height="279.4mm" viewBox="0 0 21590 27940" preserveAspectRatio="xMidYMid" fill-rule="evenodd" stroke-width="28.222" stroke-linejoin="round" xmlns="http://www.w3.org/2000/svg" xmlns:ooo="http://xml.openoffice.org/svg/export" xmlns:xlink="http://www.w3.org/1999/xlink" xmlns:presentation="http://sun.com/xmlns/staroffice/presentation" xmlns:smil="http://www.w3.org/2001/SMIL20/" xmlns:anim="urn:oasis:names:tc:opendocument:xmlns:animation:1.0" xml:space="preserve">
 <defs class="ClipPathGroup">
  <clipPath id="presentation_clip_path" clipPathUnits="userSpaceOnUse">
   <rect x="0" y="0" width="21590" height="27940"/>
  </clipPath>
  <clipPath id="presentation_clip_path_shrink" clipPathUnits="userSpaceOnUse">
   <rect x="21" y="27" width="21547" height="27885"/>
  </clipPath>
 </defs>
 <defs class="TextShapeIndex">
  <g ooo:slide="id1" ooo:id-list="id3 id4 id5 id6 id7 id8 id9 id10 id11 id12 id13 id14"/>
 </defs>
 <defs class="EmbeddedBulletChars">
  <g id="bullet-char-template-57356" transform="scale(0.00048828125,-0.00048828125)">
   <path d="M 580,1141 L 1163,571 580,0 -4,571 580,1141 Z"/>
  </g>
  <g id="bullet-char-template-57354" transform="scale(0.00048828125,-0.00048828125)">
   <path d="M 8,1128 L 1137,1128 1137,0 8,0 8,1128 Z"/>
  </g>
  <g id="bullet-char-template-10146" transform="scale(0.00048828125,-0.00048828125)">
   <path d="M 174,0 L 602,739 174,1481 1456,739 174,0 Z M 1358,739 L 309,1346 659,739 1358,739 Z"/>
  </g>
  <g id="bullet-char-template-10132" transform="scale(0.00048828125,-0.00048828125)">
   <path d="M 2015,739 L 1276,0 717,0 1260,543 174,543 174,936 1260,936 717,1481 1274,1481 2015,739 Z"/>
  </g>
  <g id="bullet-char-template-10007" transform="scale(0.00048828125,-0.00048828125)">
   <path d="M 0,-2 C -7,14 -16,27 -25,37 L 356,567 C 262,823 215,952 215,954 215,979 228,992 255,992 264,992 276,990 289,987 310,991 331,999 354,1012 L 381,999 492,748 772,1049 836,1024 860,1049 C 881,1039 901,1025 922,1006 886,937 835,863 770,784 769,783 710,716 594,584 L 774,223 C 774,196 753,168 711,139 L 727,119 C 717,90 699,76 672,76 641,76 570,178 457,381 L 164,-76 C 142,-110 111,-127 72,-127 30,-127 9,-110 8,-76 1,-67 -2,-52 -2,-32 -2,-23 -1,-13 0,-2 Z"/>
  </g>
  <g id="bullet-char-template-10004" transform="scale(0.00048828125,-0.00048828125)">
   <path d="M 285,-33 C 182,-33 111,30 74,156 52,228 41,333 41,471 41,549 55,616 82,672 116,743 169,778 240,778 293,778 328,747 346,684 L 369,508 C 377,444 397,411 428,410 L 1163,1116 C 1174,1127 1196,1133 1229,1133 1271,1133 1292,1118 1292,1087 L 1292,965 C 1292,929 1282,901 1262,881 L 442,47 C 390,-6 338,-33 285,-33 Z"/>
  </g>
  <g id="bullet-char-template-9679" transform="scale(0.00048828125,-0.00048828125)">
   <path d="M 813,0 C 632,0 489,54 383,161 276,268 223,411 223,592 223,773 276,916 383,1023 489,1130 632,1184 813,1184 992,1184 1136,1130 1245,1023 1353,916 1407,772 1407,592 1407,412 1353,268 1245,161 1136,54 992,0 813,0 Z"/>
  </g>
  <g id="bullet-char-template-8226" transform="scale(0.00048828125,-0.00048828125)">
   <path d="M 346,457 C 273,457 209,483 155,535 101,586 74,649 74,723 74,796 101,859 155,911 209,963 273,989 346,989 419,989 480,963 531,910 582,859 608,796 608,723 608,648 583,586 532,535 482,483 420,457 346,457 Z"/>
  </g>
  <g id="bullet-char-template-8211" transform="scale(0.00048828125,-0.00048828125)">
   <path d="M -4,459 L 1135,459 1135,606 -4,606 -4,459 Z"/>
  </g>
  <g id="bullet-char-template-61548" transform="scale(0.00048828125,-0.00048828125)">
   <path d="M 173,740 C 173,903 231,1043 346,1159 462,1274 601,1332 765,1332 928,1332 1067,1274 1183,1159 1299,1043 1357,903 1357,740 1357,577 1299,437 1183,322 1067,206 928,148 765,148 601,148 462,206 346,322 231,437 173,577 173,740 Z"/>
  </g>
 </defs>
 <g>
  <g id="id2" class="Master_Slide">
   <g id="bg-id2" class="Background"/>
   <g id="bo-id2" class="BackgroundObjects"/>
  </g>
 </g>
 <g class="SlideGroup">
  <g>
   <g id="container-id1">
    <g id="id1" class="Slide" clip-path="url(#presentation_clip_path)">
     <g class="Page">
      <g class="com.sun.star.drawing.CustomShape">
       <g id="id3">
        <rect class="BoundingBox" stroke="none" fill="none" x="11998" y="22998" width="2004" height="2004"/>
        <path fill="rgb(0,0,0)" stroke="none" d="M 12999,22999 C 13175,22999 13348,23045 13500,23133 13652,23221 13778,23347 13866,23499 13954,23651 14000,23824 14000,23999 14000,24175 13954,24348 13866,24500 13778,24652 13652,24778 13500,24866 13348,24954 13175,25000 12999,25000 12824,25000 12651,24954 12499,24866 12347,24778 12221,24652 12133,24500 12045,24348 11999,24175 11999,23999 11999,23824 12045,23651 12133,23499 12221,23347 12347,23221 12499,23133 12651,23045 12824,22999 12999,22999 L 12999,22999 Z"/>
        <path fill="none" stroke="rgb(0,0,0)" d="M 12999,22999 C 13175,22999 13348,23045 13500,23133 13652,23221 13778,23347 13866,23499 13954,23651 14000,23824 14000,23999 14000,24175 13954,24348 13866,24500 13778,24652 13652,24778 13500,24866 13348,24954 13175,25000 12999,25000 12824,25000 12651,24954 12499,24866 12347,24778 12221,24652 12133,24500 12045,24348 11999,24175 11999,23999 11999,23824 12045,23651 12133,23499 12221,23347 12347,23221 12499,23133 12651,23045 12824,22999 12999,22999 Z"/>
       </g>
      </g>
      <g class="com.sun.star.drawing.CustomShape">
       <g id="id4">
        <rect class="BoundingBox" stroke="none" fill="none" x="7003" y="22997" width="2004" height="2004"/>
        <path fill="rgb(0,0,0)" stroke="none" d="M 8005,22998 C 8180,22998 8353,23044 8505,23132 8657,23220 8783,23346 8871,23498 8959,23650 9005,23823 9005,23998 9005,24174 8959,24347 8871,24499 8783,24651 8657,24777 8505,24865 8353,24953 8180,24999 8005,24999 7829,24999 7656,24953 7504,24865 7352,24777 7226,24651 7138,24499 7050,24347 7004,24174 7004,23998 7004,23823 7050,23650 7138,23498 7226,23346 7352,23220 7504,23132 7656,23044 7829,22998 8005,22998 L 8005,22998 Z"/>
        <path fill="none" stroke="rgb(0,0,0)" d="M 8005,22998 C 8180,22998 8353,23044 8505,23132 8657,23220 8783,23346 8871,23498 8959,23650 9005,23823 9005,23998 9005,24174 8959,24347 8871,24499 8783,24651 8657,24777 8505,24865 8353,24953 8180,24999 8005,24999 7829,24999 7656,24953 7504,24865 7352,24777 7226,24651 7138,24499 7050,24347 7004,24174 7004,23998 7004,23823 7050,23650 7138,23498 7226,23346 7352,23220 7504,23132 7656,23044 7829,22998 8005,22998 Z"/>
       </g>
      </g>
      <g class="com.sun.star.drawing.CustomShape">
       <g id="id5">
        <rect class="BoundingBox" stroke="none" fill="none" x="12000" y="19003" width="2004" height="2004"/>
        <path fill="rgb(0,0,0)" stroke="none" d="M 13002,19004 C 13177,19004 13350,19050 13502,19138 13654,19226 13780,19352 13868,19504 13956,19656 14002,19829 14002,20004 14002,20180 13956,20353 13868,20505 13780,20657 13654,20783 13502,20871 13350,20959 13177,21005 13002,21005 12826,21005 12653,20959 12501,20871 12349,20783 12223,20657 12135,20505 12047,20353 12001,20180 12001,20004 12001,19829 12047,19656 12135,19504 12223,19352 12349,19226 12501,19138 12653,19050 12826,19004 13002,19004 L 13002,19004 Z"/>
        <path fill="none" stroke="rgb(0,0,0)" d="M 13002,19004 C 13177,19004 13350,19050 13502,19138 13654,19226 13780,19352 13868,19504 13956,19656 14002,19829 14002,20004 14002,20180 13956,20353 13868,20505 13780,20657 13654,20783 13502,20871 13350,20959 13177,21005 13002,21005 12826,21005 12653,20959 12501,20871 12349,20783 12223,20657 12135,20505 12047,20353 12001,20180 12001,20004 12001,19829 12047,19656 12135,19504 12223,19352 12349,19226 12501,19138 12653,19050 12826,19004 13002,19004 Z"/>
       </g>
      </g>
      <g class="com.sun.star.drawing.CustomShape">
       <g id="id6">
        <rect class="BoundingBox" stroke="none" fill="none" x="6999" y="18997" width="2004" height="2004"/>
        <path fill="rgb(0,0,0)" stroke="none" d="M 8000,18998 C 8176,18998 8349,19044 8501,19132 8653,19220 8779,19346 8867,19498 8955,19650 9001,19823 9001,19999 9001,20174 8955,20347 8867,20499 8779,20651 8653,20777 8501,20865 8349,20953 8176,20999 8000,20999 7825,20999 7652,20953 7500,20865 7348,20777 7222,20651 7134,20499 7046,20347 7000,20174 7000,19999 7000,19823 7046,19650 7134,19498 7222,19346 7348,19220 7500,19132 7652,19044 7825,18998 8000,18998 L 8000,18998 Z"/>
        <path fill="none" stroke="rgb(0,0,0)" d="M 8000,18998 C 8176,18998 8349,19044 8501,19132 8653,19220 8779,19346 8867,19498 8955,19650 9001,19823 9001,19999 9001,20174 8955,20347 8867,20499 8779,20651 8653,20777 8501,20865 8349,20953 8176,20999 8000,20999 7825,20999 7652,20953 7500,20865 7348,20777 7222,20651 7134,20499 7046,20347 7000,20174 7000,19999 7000,19823 7046,19650 7134,19498 7222,19346 7348,19220 7500,19132 7652,19044 7825,18998 8000,18998 Z"/>
       </g>
      </g>
      <g class="com.sun.star.drawing.CustomShape">
       <g id="id7">
        <rect class="BoundingBox" stroke="none" fill="none" x="12006" y="2998" width="2004" height="2004"/>
        <path fill="rgb(0,0,0)" stroke="none" d="M 13008,2999 C 13183,2999 13356,3045 13508,3133 13660,3221 13786,3347 13874,3499 13962,3651 14008,3824 14008,4000 14008,4175 13962,4348 13874,4500 13786,4652 13660,4778 13508,4866 13356,4954 13183,5000 13008,5000 12832,5000 12659,4954 12507,4866 12355,4778 12229,4652 12141,4500 12053,4348 12007,4175 12007,3999 12007,3824 12053,3651 12141,3499 12229,3347 12355,3221 12507,3133 12659,3045 12832,2999 13008,2999 L 13008,2999 Z"/>
        <path fill="none" stroke="rgb(0,0,0)" d="M 13008,2999 C 13183,2999 13356,3045 13508,3133 13660,3221 13786,3347 13874,3499 13962,3651 14008,3824 14008,4000 14008,4175 13962,4348 13874,4500 13786,4652 13660,4778 13508,4866 13356,4954 13183,5000 13008,5000 12832,5000 12659,4954 12507,4866 12355,4778 12229,4652 12141,4500 12053,4348 12007,4175 12007,3999 12007,3824 12053,3651 12141,3499 12229,3347 12355,3221 12507,3133 12659,3045 12832,2999 13008,2999 Z"/>
       </g>
      </g>
      <g class="com.sun.star.drawing.CustomShape">
       <g id="id8">
        <rect class="BoundingBox" stroke="none" fill="none" x="7000" y="15003" width="2004" height="2004"/>
        <path fill="rgb(0,0,0)" stroke="none" d="M 8001,15004 C 8177,15004 8350,15050 8502,15138 8654,15226 8780,15352 8868,15504 8956,15656 9002,15829 9002,16004 9002,16180 8956,16353 8868,16505 8780,16657 8654,16783 8502,16871 8350,16959 8177,17005 8001,17005 7826,17005 7653,16959 7501,16871 7349,16783 7223,16657 7135,16505 7047,16353 7001,16180 7001,16004 7001,15829 7047,15656 7135,15504 7223,15352 7349,15226 7501,15138 7653,15050 7826,15004 8001,15004 L 8001,15004 Z"/>
        <path fill="none" stroke="rgb(0,0,0)" d="M 8001,15004 C 8177,15004 8350,15050 8502,15138 8654,15226 8780,15352 8868,15504 8956,15656 9002,15829 9002,16004 9002,16180 8956,16353 8868,16505 8780,16657 8654,16783 8502,16871 8350,16959 8177,17005 8001,17005 7826,17005 7653,16959 7501,16871 7349,16783 7223,16657 7135,16505 7047,16353 7001,16180 7001,16004 7001,15829 7047,15656 7135,15504 7223,15352 7349,15226 7501,15138 7653,15050 7826,15004 8001,15004 L 8001,15004 Z"/>
       </g>
      </g>
      <g class="com.sun.star.drawing.CustomShape">
       <g id="id9">
        <rect class="BoundingBox" stroke="none" fill="none" x="11998" y="14996" width="2004" height="2004"/>
        <path fill="rgb(0,0,0)" stroke="none" d="M 12999,14997 C 13175,14997 13348,15043 13500,15131 13652,15219 13778,15345 13866,15497 13954,15649 14000,15822 14000,15997 14000,16173 13954,16346 13866,16498 13778,16650 13652,16776 13500,16864 13348,16952 13175,16998 12999,16998 12824,16998 12651,16952 12499,16864 12347,16776 12221,16650 12133,16498 12045,16346 11999,16173 11999,15997 11999,15822 12045,15649 12133,15497 12221,15345 12347,15219 12499,15131 12651,15043 12824,14997 12999,14997 L 12999,14997 Z"/>
        <path fill="none" stroke="rgb(0,0,0)" d="M 12999,14997 C 13175,14997 13348,15043 13500,15131 13652,15219 13778,15345 13866,15497 13954,15649 14000,15822 14000,15997 14000,16173 13954,16346 13866,16498 13778,16650 13652,16776 13500,16864 13348,16952 13175,16998 12999,16998 12824,16998 12651,16952 12499,16864 12347,16776 12221,16650 12133,16498 12045,16346 11999,16173 11999,15997 11999,15822 12045,15649 12133,15497 12221,15345 12347,15219 12499,15131 12651,15043 12824,14997 12999,14997 L 12999,14997 Z"/>
       </g>
      </g>
      <g class="com.sun.star.drawing.CustomShape">
       <g id="id10">
        <rect class="BoundingBox" stroke="none" fill="none" x="11997" y="6998" width="2004" height="2004"/>
        <path fill="rgb(0,0,0)" stroke="none" d="M 12999,6999 C 13174,6999 13347,7045 13499,7133 13651,7221 13777,7347 13865,7499 13953,7651 13999,7824 13999,7999 13999,8175 13953,8348 13865,8500 13777,8652 13651,8778 13499,8866 13347,8954 13174,9000 12999,9000 12823,9000 12650,8954 12498,8866 12346,8778 12220,8652 12132,8500 12044,8348 11998,8175 11998,7999 11998,7824 12044,7651 12132,7499 12220,7347 12346,7221 12498,7133 12650,7045 12823,6999 12999,6999 L 12999,6999 Z"/>
        <path fill="none" stroke="rgb(0,0,0)" d="M 12999,6999 C 13174,6999 13347,7045 13499,7133 13651,7221 13777,7347 13865,7499 13953,7651 13999,7824 13999,7999 13999,8175 13953,8348 13865,8500 13777,8652 13651,8778 13499,8866 13347,8954 13174,9000 12999,9000 12823,9000 12650,8954 12498,8866 12346,8778 12220,8652 12132,8500 12044,8348 11998,8175 11998,7999 11998,7824 12044,7651 12132,7499 12220,7347 12346,7221 12498,7133 12650,7045 12823,6999 12999,6999 Z"/>
       </g>
      </g>
      <g class="com.sun.star.drawing.CustomShape">
       <g id="id11">
        <rect class="BoundingBox" stroke="none" fill="none" x="7001" y="10999" width="2004" height="2004"/>
        <path fill="rgb(0,0,0)" stroke="none" d="M 8002,11000 C 8178,11000 8351,11046 8503,11134 8655,11222 8781,11348 8869,11500 8957,11652 9003,11825 9003,12000 9003,12176 8957,12349 8869,12501 8781,12653 8655,12779 8503,12867 8351,12955 8178,13001 8002,13001 7827,13001 7654,12955 7502,12867 7350,12779 7224,12653 7136,12501 7048,12349 7002,12176 7002,12000 7002,11825 7048,11652 7136,11500 7224,11348 7350,11222 7502,11134 7654,11046 7827,11000 8002,11000 L 8002,11000 Z"/>
        <path fill="none" stroke="rgb(0,0,0)" d="M 8002,11000 C 8178,11000 8351,11046 8503,11134 8655,11222 8781,11348 8869,11500 8957,11652 9003,11825 9003,12000 9003,12176 8957,12349 8869,12501 8781,12653 8655,12779 8503,12867 8351,12955 8178,13001 8002,13001 7827,13001 7654,12955 7502,12867 7350,12779 7224,12653 7136,12501 7048,12349 7002,12176 7002,12000 7002,11825 7048,11652 7136,11500 7224,11348 7350,11222 7502,11134 7654,11046 7827,11000 8002,11000 L 8002,11000 Z"/>
       </g>
      </g>
      <g class="com.sun.star.drawing.CustomShape">
       <g id="id12">
        <rect class="BoundingBox" stroke="none" fill="none" x="12001" y="10995" width="2004" height="2004"/>
        <path fill="rgb(0,0,0)" stroke="none" d="M 13003,10996 C 13178,10996 13351,11042 13503,11130 13655,11218 13781,11344 13869,11496 13957,11648 14003,11821 14003,11997 14003,12172 13957,12345 13869,12497 13781,12649 13655,12775 13503,12863 13351,12951 13178,12997 13003,12997 12827,12997 12654,12951 12502,12863 12350,12775 12224,12649 12136,12497 12048,12345 12002,12172 12002,11997 12002,11821 12048,11648 12136,11496 12224,11344 12350,11218 12502,11130 12654,11042 12827,10996 13002,10996 L 13003,10996 Z"/>
        <path fill="none" stroke="rgb(0,0,0)" d="M 13003,10996 C 13178,10996 13351,11042 13503,11130 13655,11218 13781,11344 13869,11496 13957,11648 14003,11821 14003,11997 14003,12172 13957,12345 13869,12497 13781,12649 13655,12775 13503,12863 13351,12951 13178,12997 13003,12997 12827,12997 12654,12951 12502,12863 12350,12775 12224,12649 12136,12497 12048,12345 12002,12172 12002,11997 12002,11821 12048,11648 12136,11496 12224,11344 12350,11218 12502,11130 12654,11042 12827,10996 13002,10996 L 13003,10996 Z"/>
       </g>
      </g>
      <g class="com.sun.star.drawing.CustomShape">
       <g id="id13">
        <rect class="BoundingBox" stroke="none" fill="none" x="7000" y="7002" width="2004" height="2004"/>
        <path fill="rgb(0,0,0)" stroke="none" d="M 8002,7003 C 8177,7003 8350,7049 8502,7137 8654,7225 8780,7351 8868,7503 8956,7655 9002,7828 9002,8003 9002,8179 8956,8352 8868,8504 8780,8656 8654,8782 8502,8870 8350,8958 8177,9004 8002,9004 7826,9004 7653,8958 7501,8870 7349,8782 7223,8656 7135,8504 7047,8352 7001,8179 7001,8003 7001,7828 7047,7655 7135,7503 7223,7351 7349,7225 7501,7137 7653,7049 7826,7003 8001,7003 L 8002,7003 Z"/>
        <path fill="none" stroke="rgb(0,0,0)" d="M 8002,7003 C 8177,7003 8350,7049 8502,7137 8654,7225 8780,7351 8868,7503 8956,7655 9002,7828 9002,8003 9002,8179 8956,8352 8868,8504 8780,8656 8654,8782 8502,8870 8350,8958 8177,9004 8002,9004 7826,9004 7653,8958 7501,8870 7349,8782 7223,8656 7135,8504 7047,8352 7001,8179 7001,8003 7001,7828 7047,7655 7135,7503 7223,7351 7349,7225 7501,7137 7653,7049 7826,7003 8001,7003 L 8002,7003 Z"/>
       </g>
      </g>
      <g class="com.sun.star.drawing.CustomShape">
       <g id="id14">
        <rect class="BoundingBox" stroke="none" fill="none" x="6999" y="2999" width="2004" height="2004"/>
        <path fill="rgb(0,0,0)" stroke="none" d="M 8001,3000 C 8176,3000 8349,3046 8501,3134 8653,3222 8779,3348 8867,3500 8955,3652 9001,3825 9001,4001 9001,4176 8955,4349 8867,4501 8779,4653 8653,4779 8501,4867 8349,4955 8176,5001 8001,5001 7825,5001 7652,4955 7500,4867 7348,4779 7222,4653 7134,4501 7046,4349 7000,4176 7000,4001 7000,3825 7046,3652 7134,3500 7222,3348 7348,3222 7500,3134 7652,3046 7825,3000 8000,3000 L 8001,3000 Z"/>
        <path fill="none" stroke="rgb(0,0,0)" d="M 8001,3000 C 8176,3000 8349,3046 8501,3134 8653,3222 8779,3348 8867,3500 8955,3652 9001,3825 9001,4001 9001,4176 8955,4349 8867,4501 8779,4653 8653,4779 8501,4867 8349,4955 8176,5001 8001,5001 7825,5001 7652,4955 7500,4867 7348,4779 7222,4653 7134,4501 7046,4349 7000,4176 7000,4001 7000,3825 7046,3652 7134,3500 7222,3348 7348,3222 7500,3134 7652,3046 7825,3000 8000,3000 L 8001,3000 Z"/>
       </g>
      </g>
     </g>
    </g>
   </g>
  </g>
 </g>
</svg>