<?xml version="1.0" encoding="UTF-8"?>
<!DOCTYPE svg PUBLIC "-//W3C//DTD SVG 1.1//EN" "http://www.w3.org/Graphics/SVG/1.1/DTD/svg11.dtd">
<svg version="1.2" width="279.4mm" height="215.9mm" viewBox="0 0 27940 21590" preserveAspectRatio="xMidYMid" fill-rule="evenodd" stroke-width="28.222" stroke-linejoin="round" xmlns="http://www.w3.org/2000/svg" xmlns:ooo="http://xml.openoffice.org/svg/export" xmlns:xlink="http://www.w3.org/1999/xlink" xmlns:presentation="http://sun.com/xmlns/staroffice/presentation" xmlns:smil="http://www.w3.org/2001/SMIL20/" xmlns:anim="urn:oasis:names:tc:opendocument:xmlns:animation:1.0" xml:space="preserve">
 <defs class="ClipPathGroup">
  <clipPath id="presentation_clip_path" clipPathUnits="userSpaceOnUse">
   <rect x="0" y="0" width="27940" height="21590"/>
  </clipPath>
  <clipPath id="presentation_clip_path_shrink" clipPathUnits="userSpaceOnUse">
   <rect x="27" y="21" width="27885" height="21547"/>
  </clipPath>
 </defs>
 <defs class="TextShapeIndex">
  <g ooo:slide="id1" ooo:id-list="id3 id4 id5 id6 id7 id8 id9 id10 id11 id12 id13 id14 id15 id16 id17 id18 id19 id20 id21 id22"/>
 </defs>
 <defs class="EmbeddedBulletChars">
  <g id="bullet-char-template-57356" transform="scale(0.00048828125,-0.00048828125)">
   <path d="M 580,1141 L 1163,571 580,0 -4,571 580,1141 Z"/>
  </g>
  <g id="bullet-char-template-57354" transform="scale(0.00048828125,-0.00048828125)">
   <path d="M 8,1128 L 1137,1128 1137,0 8,0 8,1128 Z"/>
  </g>
  <g id="bullet-char-template-10146" transform="scale(0.00048828125,-0.00048828125)">
   <path d="M 174,0 L 602,739 174,1481 1456,739 174,0 Z M 1358,739 L 309,1346 659,739 1358,739 Z"/>
  </g>
  <g id="bullet-char-template-10132" transform="scale(0.00048828125,-0.00048828125)">
   <path d="M 2015,739 L 1276,0 717,0 1260,543 174,543 174,936 1260,936 717,1481 1274,1481 2015,739 Z"/>
  </g>
  <g id="bullet-char-template-10007" transform="scale(0.00048828125,-0.00048828125)">
   <path d="M 0,-2 C -7,14 -16,27 -25,37 L 356,567 C 262,823 215,952 215,954 215,979 228,992 255,992 264,992 276,990 289,987 310,991 331,999 354,1012 L 381,999 492,748 772,1049 836,1024 860,1049 C 881,1039 901,1025 922,1006 886,937 835,863 770,784 769,783 710,716 594,584 L 774,223 C 774,196 753,168 711,139 L 727,119 C 717,90 699,76 672,76 641,76 570,178 457,381 L 164,-76 C 142,-110 111,-127 72,-127 30,-127 9,-110 8,-76 1,-67 -2,-52 -2,-32 -2,-23 -1,-13 0,-2 Z"/>
  </g>
  <g id="bullet-char-template-10004" transform="scale(0.00048828125,-0.00048828125)">
   <path d="M 285,-33 C 182,-33 111,30 74,156 52,228 41,333 41,471 41,549 55,616 82,672 116,743 169,778 240,778 293,778 328,747 346,684 L 369,508 C 377,444 397,411 428,410 L 1163,1116 C 1174,1127 1196,1133 1229,1133 1271,1133 1292,1118 1292,1087 L 1292,965 C 1292,929 1282,901 1262,881 L 442,47 C 390,-6 338,-33 285,-33 Z"/>
  </g>
  <g id="bullet-char-template-9679" transform="scale(0.00048828125,-0.00048828125)">
   <path d="M 813,0 C 632,0 489,54 383,161 276,268 223,411 223,592 223,773 276,916 383,1023 489,1130 632,1184 813,1184 992,1184 1136,1130 1245,1023 1353,916 1407,772 1407,592 1407,412 1353,268 1245,161 1136,54 992,0 813,0 Z"/>
  </g>
  <g id="bullet-char-template-8226" transform="scale(0.00048828125,-0.00048828125)">
   <path d="M 346,457 C 273,457 209,483 155,535 101,586 74,649 74,723 74,796 101,859 155,911 209,963 273,989 346,989 419,989 480,963 531,910 582,859 608,796 608,723 608,648 583,586 532,535 482,483 420,457 346,457 Z"/>
  </g>
  <g id="bullet-char-template-8211" transform="scale(0.00048828125,-0.00048828125)">
   <path d="M -4,459 L 1135,459 1135,606 -4,606 -4,459 Z"/>
  </g>
  <g id="bullet-char-template-61548" transform="scale(0.00048828125,-0.00048828125)">
   <path d="M 173,740 C 173,903 231,1043 346,1159 462,1274 601,1332 765,1332 928,1332 1067,1274 1183,1159 1299,1043 1357,903 1357,740 1357,577 1299,437 1183,322 1067,206 928,148 765,148 601,148 462,206 346,322 231,437 173,577 173,740 Z"/>
  </g>
 </defs>
 <g>
  <g id="id2" class="Master_Slide">
   <g id="bg-id2" class="Background"/>
   <g id="bo-id2" class="BackgroundObjects"/>
  </g>
 </g>
 <g class="SlideGroup">
  <g>
   <g id="container-id1">
    <g id="id1" class="Slide" clip-path="url(#presentation_clip_path)">
     <g class="Page">
      <g class="com.sun.star.drawing.CustomShape">
       <g id="id3">
        <rect class="BoundingBox" stroke="none" fill="none" x="3999" y="3999" width="2004" height="2004"/>
        <path fill="rgb(114,159,207)" stroke="none" d="M 6001,5001 C 6001,5176 5955,5349 5867,5501 5779,5653 5653,5779 5501,5867 5349,5955 5176,6001 5001,6001 4825,6001 4652,5955 4500,5867 4348,5779 4222,5653 4134,5501 4046,5349 4000,5176 4000,5001 4000,4825 4046,4652 4134,4500 4222,4348 4348,4222 4500,4134 4652,4046 4825,4000 5000,4000 5176,4000 5349,4046 5501,4134 5653,4222 5779,4348 5867,4500 5955,4652 6001,4825 6001,5000 L 6001,5001 Z"/>
        <path fill="none" stroke="rgb(52,101,164)" d="M 6001,5001 C 6001,5176 5955,5349 5867,5501 5779,5653 5653,5779 5501,5867 5349,5955 5176,6001 5001,6001 4825,6001 4652,5955 4500,5867 4348,5779 4222,5653 4134,5501 4046,5349 4000,5176 4000,5001 4000,4825 4046,4652 4134,4500 4222,4348 4348,4222 4500,4134 4652,4046 4825,4000 5000,4000 5176,4000 5349,4046 5501,4134 5653,4222 5779,4348 5867,4500 5955,4652 6001,4825 6001,5000 L 6001,5001 Z"/>
       </g>
      </g>
      <g class="com.sun.star.drawing.CustomShape">
       <g id="id4">
        <rect class="BoundingBox" stroke="none" fill="none" x="6999" y="3999" width="2004" height="2004"/>
        <path fill="rgb(114,159,207)" stroke="none" d="M 9001,5001 C 9001,5176 8955,5349 8867,5501 8779,5653 8653,5779 8501,5867 8349,5955 8176,6001 8000,6001 7825,6001 7652,5955 7500,5867 7348,5779 7222,5653 7134,5501 7046,5349 7000,5176 7000,5001 7000,4825 7046,4652 7134,4500 7222,4348 7348,4222 7500,4134 7652,4046 7825,4000 8000,4000 8176,4000 8349,4046 8501,4134 8653,4222 8779,4348 8867,4500 8955,4652 9001,4825 9001,5000 L 9001,5001 Z"/>
        <path fill="none" stroke="rgb(52,101,164)" d="M 9001,5001 C 9001,5176 8955,5349 8867,5501 8779,5653 8653,5779 8501,5867 8349,5955 8176,6001 8000,6001 7825,6001 7652,5955 7500,5867 7348,5779 7222,5653 7134,5501 7046,5349 7000,5176 7000,5001 7000,4825 7046,4652 7134,4500 7222,4348 7348,4222 7500,4134 7652,4046 7825,4000 8000,4000 8176,4000 8349,4046 8501,4134 8653,4222 8779,4348 8867,4500 8955,4652 9001,4825 9001,5000 L 9001,5001 Z"/>
       </g>
      </g>
      <g class="com.sun.star.drawing.CustomShape">
       <g id="id5">
        <rect class="BoundingBox" stroke="none" fill="none" x="9999" y="3999" width="2004" height="2004"/>
        <path fill="rgb(114,159,207)" stroke="none" d="M 12001,5001 C 12001,5176 11955,5349 11867,5501 11779,5653 11653,5779 11501,5867 11349,5955 11176,6001 11001,6001 10825,6001 10652,5955 10500,5867 10348,5779 10222,5653 10134,5501 10046,5349 10000,5176 10000,5001 10000,4825 10046,4652 10134,4500 10222,4348 10348,4222 10500,4134 10652,4046 10825,4000 11001,4000 11176,4000 11349,4046 11501,4134 11653,4222 11779,4348 11867,4500 11955,4652 12001,4825 12001,5000 L 12001,5001 Z"/>
        <path fill="none" stroke="rgb(52,101,164)" d="M 12001,5001 C 12001,5176 11955,5349 11867,5501 11779,5653 11653,5779 11501,5867 11349,5955 11176,6001 11001,6001 10825,6001 10652,5955 10500,5867 10348,5779 10222,5653 10134,5501 10046,5349 10000,5176 10000,5001 10000,4825 10046,4652 10134,4500 10222,4348 10348,4222 10500,4134 10652,4046 10825,4000 11001,4000 11176,4000 11349,4046 11501,4134 11653,4222 11779,4348 11867,4500 11955,4652 12001,4825 12001,5000 L 12001,5001 Z"/>
       </g>
      </g>
      <g class="com.sun.star.drawing.CustomShape">
       <g id="id6">
        <rect class="BoundingBox" stroke="none" fill="none" x="12999" y="3999" width="2004" height="2004"/>
        <path fill="rgb(114,159,207)" stroke="none" d="M 15001,5001 C 15001,5176 14955,5349 14867,5501 14779,5653 14653,5779 14501,5867 14349,5955 14176,6001 14000,6001 13825,6001 13652,5955 13500,5867 13348,5779 13222,5653 13134,5501 13046,5349 13000,5176 13000,5001 13000,4825 13046,4652 13134,4500 13222,4348 13348,4222 13500,4134 13652,4046 13825,4000 14000,4000 14176,4000 14349,4046 14501,4134 14653,4222 14779,4348 14867,4500 14955,4652 15001,4825 15001,5000 L 15001,5001 Z"/>
        <path fill="none" stroke="rgb(52,101,164)" d="M 15001,5001 C 15001,5176 14955,5349 14867,5501 14779,5653 14653,5779 14501,5867 14349,5955 14176,6001 14000,6001 13825,6001 13652,5955 13500,5867 13348,5779 13222,5653 13134,5501 13046,5349 13000,5176 13000,5001 13000,4825 13046,4652 13134,4500 13222,4348 13348,4222 13500,4134 13652,4046 13825,4000 14000,4000 14176,4000 14349,4046 14501,4134 14653,4222 14779,4348 14867,4500 14955,4652 15001,4825 15001,5000 L 15001,5001 Z"/>
       </g>
      </g>
      <g class="com.sun.star.drawing.CustomShape">
       <g id="id7">
        <rect class="BoundingBox" stroke="none" fill="none" x="15999" y="3999" width="2004" height="2004"/>
        <path fill="rgb(114,159,207)" stroke="none" d="M 18001,5001 C 18001,5176 17955,5349 17867,5501 17779,5653 17653,5779 17501,5867 17349,5955 17176,6001 17001,6001 16825,6001 16652,5955 16500,5867 16348,5779 16222,5653 16134,5501 16046,5349 16000,5176 16000,5001 16000,4825 16046,4652 16134,4500 16222,4348 16348,4222 16500,4134 16652,4046 16825,4000 17001,4000 17176,4000 17349,4046 17501,4134 17653,4222 17779,4348 17867,4500 17955,4652 18001,4825 18001,5000 L 18001,5001 Z"/>
        <path fill="none" stroke="rgb(52,101,164)" d="M 18001,5001 C 18001,5176 17955,5349 17867,5501 17779,5653 17653,5779 17501,5867 17349,5955 17176,6001 17001,6001 16825,6001 16652,5955 16500,5867 16348,5779 16222,5653 16134,5501 16046,5349 16000,5176 16000,5001 16000,4825 16046,4652 16134,4500 16222,4348 16348,4222 16500,4134 16652,4046 16825,4000 17001,4000 17176,4000 17349,4046 17501,4134 17653,4222 17779,4348 17867,4500 17955,4652 18001,4825 18001,5000 L 18001,5001 Z"/>
       </g>
      </g>
      <g class="com.sun.star.drawing.CustomShape">
       <g id="id8">
        <rect class="BoundingBox" stroke="none" fill="none" x="3999" y="6999" width="2004" height="2004"/>
        <path fill="rgb(114,159,207)" stroke="none" d="M 6001,8000 C 6001,8176 5955,8349 5867,8501 5779,8653 5653,8779 5501,8867 5349,8955 5176,9001 5001,9001 4825,9001 4652,8955 4500,8867 4348,8779 4222,8653 4134,8501 4046,8349 4000,8176 4000,8001 4000,7825 4046,7652 4134,7500 4222,7348 4348,7222 4500,7134 4652,7046 4825,7000 5000,7000 5176,7000 5349,7046 5501,7134 5653,7222 5779,7348 5867,7500 5955,7652 6001,7825 6001,8000 L 6001,8000 Z"/>
        <path fill="none" stroke="rgb(52,101,164)" d="M 6001,8000 C 6001,8176 5955,8349 5867,8501 5779,8653 5653,8779 5501,8867 5349,8955 5176,9001 5001,9001 4825,9001 4652,8955 4500,8867 4348,8779 4222,8653 4134,8501 4046,8349 4000,8176 4000,8001 4000,7825 4046,7652 4134,7500 4222,7348 4348,7222 4500,7134 4652,7046 4825,7000 5000,7000 5176,7000 5349,7046 5501,7134 5653,7222 5779,7348 5867,7500 5955,7652 6001,7825 6001,8000 L 6001,8000 Z"/>
       </g>
      </g>
      <g class="com.sun.star.drawing.CustomShape">
       <g id="id9">
        <rect class="BoundingBox" stroke="none" fill="none" x="6999" y="6999" width="2004" height="2004"/>
        <path fill="rgb(114,159,207)" stroke="none" d="M 9001,8000 C 9001,8176 8955,8349 8867,8501 8779,8653 8653,8779 8501,8867 8349,8955 8176,9001 8000,9001 7825,9001 7652,8955 7500,8867 7348,8779 7222,8653 7134,8501 7046,8349 7000,8176 7000,8001 7000,7825 7046,7652 7134,7500 7222,7348 7348,7222 7500,7134 7652,7046 7825,7000 8000,7000 8176,7000 8349,7046 8501,7134 8653,7222 8779,7348 8867,7500 8955,7652 9001,7825 9001,8000 L 9001,8000 Z"/>
        <path fill="none" stroke="rgb(52,101,164)" d="M 9001,8000 C 9001,8176 8955,8349 8867,8501 8779,8653 8653,8779 8501,8867 8349,8955 8176,9001 8000,9001 7825,9001 7652,8955 7500,8867 7348,8779 7222,8653 7134,8501 7046,8349 7000,8176 7000,8001 7000,7825 7046,7652 7134,7500 7222,7348 7348,7222 7500,7134 7652,7046 7825,7000 8000,7000 8176,7000 8349,7046 8501,7134 8653,7222 8779,7348 8867,7500 8955,7652 9001,7825 9001,8000 L 9001,8000 Z"/>
       </g>
      </g>
      <g class="com.sun.star.drawing.CustomShape">
       <g id="id10">
        <rect class="BoundingBox" stroke="none" fill="none" x="9999" y="6999" width="2004" height="2004"/>
        <path fill="rgb(114,159,207)" stroke="none" d="M 12001,8000 C 12001,8176 11955,8349 11867,8501 11779,8653 11653,8779 11501,8867 11349,8955 11176,9001 11001,9001 10825,9001 10652,8955 10500,8867 10348,8779 10222,8653 10134,8501 10046,8349 10000,8176 10000,8001 10000,7825 10046,7652 10134,7500 10222,7348 10348,7222 10500,7134 10652,7046 10825,7000 11001,7000 11176,7000 11349,7046 11501,7134 11653,7222 11779,7348 11867,7500 11955,7652 12001,7825 12001,8000 L 12001,8000 Z"/>
        <path fill="none" stroke="rgb(52,101,164)" d="M 12001,8000 C 12001,8176 11955,8349 11867,8501 11779,8653 11653,8779 11501,8867 11349,8955 11176,9001 11001,9001 10825,9001 10652,8955 10500,8867 10348,8779 10222,8653 10134,8501 10046,8349 10000,8176 10000,8001 10000,7825 10046,7652 10134,7500 10222,7348 10348,7222 10500,7134 10652,7046 10825,7000 11001,7000 11176,7000 11349,7046 11501,7134 11653,7222 11779,7348 11867,7500 11955,7652 12001,7825 12001,8000 L 12001,8000 Z"/>
       </g>
      </g>
      <g class="com.sun.star.drawing.CustomShape">
       <g id="id11">
        <rect class="BoundingBox" stroke="none" fill="none" x="12999" y="6999" width="2004" height="2004"/>
        <path fill="rgb(114,159,207)" stroke="none" d="M 15001,8000 C 15001,8176 14955,8349 14867,8501 14779,8653 14653,8779 14501,8867 14349,8955 14176,9001 14000,9001 13825,9001 13652,8955 13500,8867 13348,8779 13222,8653 13134,8501 13046,8349 13000,8176 13000,8001 13000,7825 13046,7652 13134,7500 13222,7348 13348,7222 13500,7134 13652,7046 13825,7000 14000,7000 14176,7000 14349,7046 14501,7134 14653,7222 14779,7348 14867,7500 14955,7652 15001,7825 15001,8000 L 15001,8000 Z"/>
        <path fill="none" stroke="rgb(52,101,164)" d="M 15001,8000 C 15001,8176 14955,8349 14867,8501 14779,8653 14653,8779 14501,8867 14349,8955 14176,9001 14000,9001 13825,9001 13652,8955 13500,8867 13348,8779 13222,8653 13134,8501 13046,8349 13000,8176 13000,8001 13000,7825 13046,7652 13134,7500 13222,7348 13348,7222 13500,7134 13652,7046 13825,7000 14000,7000 14176,7000 14349,7046 14501,7134 14653,7222 14779,7348 14867,7500 14955,7652 15001,7825 15001,8000 L 15001,8000 Z"/>
       </g>
      </g>
      <g class="com.sun.star.drawing.CustomShape">
       <g id="id12">
        <rect class="BoundingBox" stroke="none" fill="none" x="15999" y="6999" width="2004" height="2004"/>
        <path fill="rgb(114,159,207)" stroke="none" d="M 18001,8000 C 18001,8176 17955,8349 17867,8501 17779,8653 17653,8779 17501,8867 17349,8955 17176,9001 17001,9001 16825,9001 16652,8955 16500,8867 16348,8779 16222,8653 16134,8501 16046,8349 16000,8176 16000,8001 16000,7825 16046,7652 16134,7500 16222,7348 16348,7222 16500,7134 16652,7046 16825,7000 17001,7000 17176,7000 17349,7046 17501,7134 17653,7222 17779,7348 17867,7500 17955,7652 18001,7825 18001,8000 L 18001,8000 Z"/>
        <path fill="none" stroke="rgb(52,101,164)" d="M 18001,8000 C 18001,8176 17955,8349 17867,8501 17779,8653 17653,8779 17501,8867 17349,8955 17176,9001 17001,9001 16825,9001 16652,8955 16500,8867 16348,8779 16222,8653 16134,8501 16046,8349 16000,8176 16000,8001 16000,7825 16046,7652 16134,7500 16222,7348 16348,7222 16500,7134 16652,7046 16825,7000 17001,7000 17176,7000 17349,7046 17501,7134 17653,7222 17779,7348 17867,7500 17955,7652 18001,7825 18001,8000 L 18001,8000 Z"/>
       </g>
      </g>
      <g class="com.sun.star.drawing.CustomShape">
       <g id="id13">
        <rect class="BoundingBox" stroke="none" fill="none" x="3999" y="9999" width="2004" height="2004"/>
        <path fill="rgb(114,159,207)" stroke="none" d="M 6001,11001 C 6001,11176 5955,11349 5867,11501 5779,11653 5653,11779 5501,11867 5349,11955 5176,12001 5001,12001 4825,12001 4652,11955 4500,11867 4348,11779 4222,11653 4134,11501 4046,11349 4000,11176 4000,11001 4000,10825 4046,10652 4134,10500 4222,10348 4348,10222 4500,10134 4652,10046 4825,10000 5000,10000 5176,10000 5349,10046 5501,10134 5653,10222 5779,10348 5867,10500 5955,10652 6001,10825 6001,11001 L 6001,11001 Z"/>
        <path fill="none" stroke="rgb(52,101,164)" d="M 6001,11001 C 6001,11176 5955,11349 5867,11501 5779,11653 5653,11779 5501,11867 5349,11955 5176,12001 5001,12001 4825,12001 4652,11955 4500,11867 4348,11779 4222,11653 4134,11501 4046,11349 4000,11176 4000,11001 4000,10825 4046,10652 4134,10500 4222,10348 4348,10222 4500,10134 4652,10046 4825,10000 5000,10000 5176,10000 5349,10046 5501,10134 5653,10222 5779,10348 5867,10500 5955,10652 6001,10825 6001,11001 Z"/>
       </g>
      </g>
      <g class="com.sun.star.drawing.CustomShape">
       <g id="id14">
        <rect class="BoundingBox" stroke="none" fill="none" x="6999" y="9999" width="2004" height="2004"/>
        <path fill="rgb(114,159,207)" stroke="none" d="M 9001,11001 C 9001,11176 8955,11349 8867,11501 8779,11653 8653,11779 8501,11867 8349,11955 8176,12001 8000,12001 7825,12001 7652,11955 7500,11867 7348,11779 7222,11653 7134,11501 7046,11349 7000,11176 7000,11001 7000,10825 7046,10652 7134,10500 7222,10348 7348,10222 7500,10134 7652,10046 7825,10000 8000,10000 8176,10000 8349,10046 8501,10134 8653,10222 8779,10348 8867,10500 8955,10652 9001,10825 9001,11001 L 9001,11001 Z"/>
        <path fill="none" stroke="rgb(52,101,164)" d="M 9001,11001 C 9001,11176 8955,11349 8867,11501 8779,11653 8653,11779 8501,11867 8349,11955 8176,12001 8000,12001 7825,12001 7652,11955 7500,11867 7348,11779 7222,11653 7134,11501 7046,11349 7000,11176 7000,11001 7000,10825 7046,10652 7134,10500 7222,10348 7348,10222 7500,10134 7652,10046 7825,10000 8000,10000 8176,10000 8349,10046 8501,10134 8653,10222 8779,10348 8867,10500 8955,10652 9001,10825 9001,11001 Z"/>
       </g>
      </g>
      <g class="com.sun.star.drawing.CustomShape">
       <g id="id15">
        <rect class="BoundingBox" stroke="none" fill="none" x="9999" y="9999" width="2004" height="2004"/>
        <path fill="rgb(114,159,207)" stroke="none" d="M 12001,11001 C 12001,11176 11955,11349 11867,11501 11779,11653 11653,11779 11501,11867 11349,11955 11176,12001 11001,12001 10825,12001 10652,11955 10500,11867 10348,11779 10222,11653 10134,11501 10046,11349 10000,11176 10000,11001 10000,10825 10046,10652 10134,10500 10222,10348 10348,10222 10500,10134 10652,10046 10825,10000 11001,10000 11176,10000 11349,10046 11501,10134 11653,10222 11779,10348 11867,10500 11955,10652 12001,10825 12001,11001 L 12001,11001 Z"/>
        <path fill="none" stroke="rgb(52,101,164)" d="M 12001,11001 C 12001,11176 11955,11349 11867,11501 11779,11653 11653,11779 11501,11867 11349,11955 11176,12001 11001,12001 10825,12001 10652,11955 10500,11867 10348,11779 10222,11653 10134,11501 10046,11349 10000,11176 10000,11001 10000,10825 10046,10652 10134,10500 10222,10348 10348,10222 10500,10134 10652,10046 10825,10000 11001,10000 11176,10000 11349,10046 11501,10134 11653,10222 11779,10348 11867,10500 11955,10652 12001,10825 12001,11001 Z"/>
       </g>
      </g>
      <g class="com.sun.star.drawing.CustomShape">
       <g id="id16">
        <rect class="BoundingBox" stroke="none" fill="none" x="12999" y="9999" width="2004" height="2004"/>
        <path fill="rgb(114,159,207)" stroke="none" d="M 15001,11001 C 15001,11176 14955,11349 14867,11501 14779,11653 14653,11779 14501,11867 14349,11955 14176,12001 14000,12001 13825,12001 13652,11955 13500,11867 13348,11779 13222,11653 13134,11501 13046,11349 13000,11176 13000,11001 13000,10825 13046,10652 13134,10500 13222,10348 13348,10222 13500,10134 13652,10046 13825,10000 14000,10000 14176,10000 14349,10046 14501,10134 14653,10222 14779,10348 14867,10500 14955,10652 15001,10825 15001,11001 L 15001,11001 Z"/>
        <path fill="none" stroke="rgb(52,101,164)" d="M 15001,11001 C 15001,11176 14955,11349 14867,11501 14779,11653 14653,11779 14501,11867 14349,11955 14176,12001 14000,12001 13825,12001 13652,11955 13500,11867 13348,11779 13222,11653 13134,11501 13046,11349 13000,11176 13000,11001 13000,10825 13046,10652 13134,10500 13222,10348 13348,10222 13500,10134 13652,10046 13825,10000 14000,10000 14176,10000 14349,10046 14501,10134 14653,10222 14779,10348 14867,10500 14955,10652 15001,10825 15001,11001 Z"/>
       </g>
      </g>
      <g class="com.sun.star.drawing.CustomShape">
       <g id="id17">
        <rect class="BoundingBox" stroke="none" fill="none" x="15999" y="9999" width="2004" height="2004"/>
        <path fill="rgb(114,159,207)" stroke="none" d="M 18001,11001 C 18001,11176 17955,11349 17867,11501 17779,11653 17653,11779 17501,11867 17349,11955 17176,12001 17001,12001 16825,12001 16652,11955 16500,11867 16348,11779 16222,11653 16134,11501 16046,11349 16000,11176 16000,11001 16000,10825 16046,10652 16134,10500 16222,10348 16348,10222 16500,10134 16652,10046 16825,10000 17001,10000 17176,10000 17349,10046 17501,10134 17653,10222 17779,10348 17867,10500 17955,10652 18001,10825 18001,11001 L 18001,11001 Z"/>
        <path fill="none" stroke="rgb(52,101,164)" d="M 18001,11001 C 18001,11176 17955,11349 17867,11501 17779,11653 17653,11779 17501,11867 17349,11955 17176,12001 17001,12001 16825,12001 16652,11955 16500,11867 16348,11779 16222,11653 16134,11501 16046,11349 16000,11176 16000,11001 16000,10825 16046,10652 16134,10500 16222,10348 16348,10222 16500,10134 16652,10046 16825,10000 17001,10000 17176,10000 17349,10046 17501,10134 17653,10222 17779,10348 17867,10500 17955,10652 18001,10825 18001,11001 Z"/>
       </g>
      </g>
      <g class="com.sun.star.drawing.CustomShape">
       <g id="id18">
        <rect class="BoundingBox" stroke="none" fill="none" x="3459" y="2959" width="3083" height="9583"/>
        <path fill="none" stroke="rgb(21,132,102)" stroke-width="81" stroke-linejoin="round" d="M 5000,12500 L 3500,12500 3500,3000 6500,3000 6500,12500 5000,12500 Z"/>
       </g>
      </g>
      <g class="com.sun.star.drawing.CustomShape">
       <g id="id19">
        <rect class="BoundingBox" stroke="none" fill="none" x="6459" y="2959" width="3083" height="9583"/>
        <path fill="none" stroke="rgb(21,132,102)" stroke-width="81" stroke-linejoin="round" d="M 8000,12500 L 6500,12500 6500,3000 9500,3000 9500,12500 8000,12500 Z"/>
       </g>
      </g>
      <g class="com.sun.star.drawing.CustomShape">
       <g id="id20">
        <rect class="BoundingBox" stroke="none" fill="none" x="9459" y="2959" width="3083" height="9583"/>
        <path fill="none" stroke="rgb(21,132,102)" stroke-width="81" stroke-linejoin="round" d="M 11000,12500 L 9500,12500 9500,3000 12500,3000 12500,12500 11000,12500 Z"/>
       </g>
      </g>
      <g class="com.sun.star.drawing.CustomShape">
       <g id="id21">
        <rect class="BoundingBox" stroke="none" fill="none" x="12459" y="2959" width="3083" height="9583"/>
        <path fill="none" stroke="rgb(21,132,102)" stroke-width="81" stroke-linejoin="round" d="M 14000,12500 L 12500,12500 12500,3000 15500,3000 15500,12500 14000,12500 Z"/>
       </g>
      </g>
      <g class="com.sun.star.drawing.CustomShape">
       <g id="id22">
        <rect class="BoundingBox" stroke="none" fill="none" x="15459" y="2959" width="3083" height="9583"/>
        <path fill="none" stroke="rgb(21,132,102)" stroke-width="81" stroke-linejoin="round" d="M 17000,12500 L 15500,12500 15500,3000 18500,3000 18500,12500 17000,12500 Z"/>
       </g>
      </g>
     </g>
    </g>
   </g>
  </g>
 </g>
</svg>