<?xml version="1.0" encoding="UTF-8"?>
<!DOCTYPE svg PUBLIC "-//W3C//DTD SVG 1.1//EN" "http://www.w3.org/Graphics/SVG/1.1/DTD/svg11.dtd">
<svg version="1.2" width="250mm" height="176mm" viewBox="0 0 25000 17600" preserveAspectRatio="xMidYMid" fill-rule="evenodd" stroke-width="28.222" stroke-linejoin="round" xmlns="http://www.w3.org/2000/svg" xmlns:ooo="http://xml.openoffice.org/svg/export" xmlns:xlink="http://www.w3.org/1999/xlink" xmlns:presentation="http://sun.com/xmlns/staroffice/presentation" xmlns:smil="http://www.w3.org/2001/SMIL20/" xmlns:anim="urn:oasis:names:tc:opendocument:xmlns:animation:1.0" xml:space="preserve">
 <defs class="ClipPathGroup">
  <clipPath id="presentation_clip_path" clipPathUnits="userSpaceOnUse">
   <rect x="0" y="0" width="25000" height="17600"/>
  </clipPath>
  <clipPath id="presentation_clip_path_shrink" clipPathUnits="userSpaceOnUse">
   <rect x="25" y="17" width="24950" height="17565"/>
  </clipPath>
 </defs>
 <defs class="TextShapeIndex">
  <g ooo:slide="id1" ooo:id-list="id3 id4 id5 id6 id7 id8 id9 id10 id11 id12 id13 id14 id15 id16 id17 id18 id19 id20 id21 id22 id23 id24 id25 id26 id27 id28"/>
 </defs>
 <defs class="EmbeddedBulletChars">
  <g id="bullet-char-template-57356" transform="scale(0.00048828125,-0.00048828125)">
   <path d="M 580,1141 L 1163,571 580,0 -4,571 580,1141 Z"/>
  </g>
  <g id="bullet-char-template-57354" transform="scale(0.00048828125,-0.00048828125)">
   <path d="M 8,1128 L 1137,1128 1137,0 8,0 8,1128 Z"/>
  </g>
  <g id="bullet-char-template-10146" transform="scale(0.00048828125,-0.00048828125)">
   <path d="M 174,0 L 602,739 174,1481 1456,739 174,0 Z M 1358,739 L 309,1346 659,739 1358,739 Z"/>
  </g>
  <g id="bullet-char-template-10132" transform="scale(0.00048828125,-0.00048828125)">
   <path d="M 2015,739 L 1276,0 717,0 1260,543 174,543 174,936 1260,936 717,1481 1274,1481 2015,739 Z"/>
  </g>
  <g id="bullet-char-template-10007" transform="scale(0.00048828125,-0.00048828125)">
   <path d="M 0,-2 C -7,14 -16,27 -25,37 L 356,567 C 262,823 215,952 215,954 215,979 228,992 255,992 264,992 276,990 289,987 310,991 331,999 354,1012 L 381,999 492,748 772,1049 836,1024 860,1049 C 881,1039 901,1025 922,1006 886,937 835,863 770,784 769,783 710,716 594,584 L 774,223 C 774,196 753,168 711,139 L 727,119 C 717,90 699,76 672,76 641,76 570,178 457,381 L 164,-76 C 142,-110 111,-127 72,-127 30,-127 9,-110 8,-76 1,-67 -2,-52 -2,-32 -2,-23 -1,-13 0,-2 Z"/>
  </g>
  <g id="bullet-char-template-10004" transform="scale(0.00048828125,-0.00048828125)">
   <path d="M 285,-33 C 182,-33 111,30 74,156 52,228 41,333 41,471 41,549 55,616 82,672 116,743 169,778 240,778 293,778 328,747 346,684 L 369,508 C 377,444 397,411 428,410 L 1163,1116 C 1174,1127 1196,1133 1229,1133 1271,1133 1292,1118 1292,1087 L 1292,965 C 1292,929 1282,901 1262,881 L 442,47 C 390,-6 338,-33 285,-33 Z"/>
  </g>
  <g id="bullet-char-template-9679" transform="scale(0.00048828125,-0.00048828125)">
   <path d="M 813,0 C 632,0 489,54 383,161 276,268 223,411 223,592 223,773 276,916 383,1023 489,1130 632,1184 813,1184 992,1184 1136,1130 1245,1023 1353,916 1407,772 1407,592 1407,412 1353,268 1245,161 1136,54 992,0 813,0 Z"/>
  </g>
  <g id="bullet-char-template-8226" transform="scale(0.00048828125,-0.00048828125)">
   <path d="M 346,457 C 273,457 209,483 155,535 101,586 74,649 74,723 74,796 101,859 155,911 209,963 273,989 346,989 419,989 480,963 531,910 582,859 608,796 608,723 608,648 583,586 532,535 482,483 420,457 346,457 Z"/>
  </g>
  <g id="bullet-char-template-8211" transform="scale(0.00048828125,-0.00048828125)">
   <path d="M -4,459 L 1135,459 1135,606 -4,606 -4,459 Z"/>
  </g>
  <g id="bullet-char-template-61548" transform="scale(0.00048828125,-0.00048828125)">
   <path d="M 173,740 C 173,903 231,1043 346,1159 462,1274 601,1332 765,1332 928,1332 1067,1274 1183,1159 1299,1043 1357,903 1357,740 1357,577 1299,437 1183,322 1067,206 928,148 765,148 601,148 462,206 346,322 231,437 173,577 173,740 Z"/>
  </g>
 </defs>
 <g>
  <g id="id2" class="Master_Slide">
   <g id="bg-id2" class="Background"/>
   <g id="bo-id2" class="BackgroundObjects"/>
  </g>
 </g>
 <g class="SlideGroup">
  <g>
   <g id="container-id1">
    <g id="id1" class="Slide" clip-path="url(#presentation_clip_path)">
     <g class="Page">
      <g class="com.sun.star.drawing.CustomShape">
       <g id="id3">
        <rect class="BoundingBox" stroke="none" fill="none" x="1999" y="2249" width="1004" height="1004"/>
        <path fill="rgb(114,159,207)" stroke="none" d="M 3001,2751 C 3001,2838 2978,2925 2934,3001 2890,3077 2827,3140 2751,3184 2675,3228 2588,3251 2501,3251 2413,3251 2326,3228 2250,3184 2174,3140 2111,3077 2067,3001 2023,2925 2000,2838 2000,2751 2000,2663 2023,2576 2067,2500 2111,2424 2174,2361 2250,2317 2326,2273 2413,2250 2500,2250 2588,2250 2675,2273 2751,2317 2827,2361 2890,2424 2934,2500 2978,2576 3001,2663 3001,2750 L 3001,2751 Z"/>
        <path fill="none" stroke="rgb(52,101,164)" d="M 3001,2751 C 3001,2838 2978,2925 2934,3001 2890,3077 2827,3140 2751,3184 2675,3228 2588,3251 2501,3251 2413,3251 2326,3228 2250,3184 2174,3140 2111,3077 2067,3001 2023,2925 2000,2838 2000,2751 2000,2663 2023,2576 2067,2500 2111,2424 2174,2361 2250,2317 2326,2273 2413,2250 2500,2250 2588,2250 2675,2273 2751,2317 2827,2361 2890,2424 2934,2500 2978,2576 3001,2663 3001,2750 L 3001,2751 Z"/>
       </g>
      </g>
      <g class="com.sun.star.drawing.CustomShape">
       <g id="id4">
        <rect class="BoundingBox" stroke="none" fill="none" x="2000" y="2250" width="1004" height="1004"/>
        <path fill="rgb(114,159,207)" stroke="none" d="M 3002,2752 C 3002,2839 2979,2926 2935,3002 2891,3078 2828,3141 2752,3185 2676,3229 2589,3252 2502,3252 2414,3252 2327,3229 2251,3185 2175,3141 2112,3078 2068,3002 2024,2926 2001,2839 2001,2752 2001,2664 2024,2577 2068,2501 2112,2425 2175,2362 2251,2318 2327,2274 2414,2251 2501,2251 2589,2251 2676,2274 2752,2318 2828,2362 2891,2425 2935,2501 2979,2577 3002,2664 3002,2751 L 3002,2752 Z"/>
        <path fill="none" stroke="rgb(52,101,164)" d="M 3002,2752 C 3002,2839 2979,2926 2935,3002 2891,3078 2828,3141 2752,3185 2676,3229 2589,3252 2502,3252 2414,3252 2327,3229 2251,3185 2175,3141 2112,3078 2068,3002 2024,2926 2001,2839 2001,2752 2001,2664 2024,2577 2068,2501 2112,2425 2175,2362 2251,2318 2327,2274 2414,2251 2501,2251 2589,2251 2676,2274 2752,2318 2828,2362 2891,2425 2935,2501 2979,2577 3002,2664 3002,2751 L 3002,2752 Z"/>
       </g>
      </g>
      <g class="com.sun.star.drawing.CustomShape">
       <g id="id5">
        <rect class="BoundingBox" stroke="none" fill="none" x="1999" y="13749" width="1004" height="1004"/>
        <path fill="rgb(114,159,207)" stroke="none" d="M 3001,14251 C 3001,14338 2978,14425 2934,14501 2890,14577 2827,14640 2751,14684 2675,14728 2588,14751 2501,14751 2413,14751 2326,14728 2250,14684 2174,14640 2111,14577 2067,14501 2023,14425 2000,14338 2000,14251 2000,14163 2023,14076 2067,14000 2111,13924 2174,13861 2250,13817 2326,13773 2413,13750 2500,13750 2588,13750 2675,13773 2751,13817 2827,13861 2890,13924 2934,14000 2978,14076 3001,14163 3001,14251 L 3001,14251 Z"/>
        <path fill="none" stroke="rgb(52,101,164)" d="M 3001,14251 C 3001,14338 2978,14425 2934,14501 2890,14577 2827,14640 2751,14684 2675,14728 2588,14751 2501,14751 2413,14751 2326,14728 2250,14684 2174,14640 2111,14577 2067,14501 2023,14425 2000,14338 2000,14251 2000,14163 2023,14076 2067,14000 2111,13924 2174,13861 2250,13817 2326,13773 2413,13750 2500,13750 2588,13750 2675,13773 2751,13817 2827,13861 2890,13924 2934,14000 2978,14076 3001,14163 3001,14251 Z"/>
       </g>
      </g>
      <g class="com.sun.star.drawing.CustomShape">
       <g id="id6">
        <rect class="BoundingBox" stroke="none" fill="none" x="13749" y="7749" width="1004" height="1004"/>
        <path fill="rgb(114,159,207)" stroke="none" d="M 14751,8251 C 14751,8338 14728,8425 14684,8501 14640,8577 14577,8640 14501,8684 14425,8728 14338,8751 14251,8751 14163,8751 14076,8728 14000,8684 13924,8640 13861,8577 13817,8501 13773,8425 13750,8338 13750,8251 13750,8163 13773,8076 13817,8000 13861,7924 13924,7861 14000,7817 14076,7773 14163,7750 14251,7750 14338,7750 14425,7773 14501,7817 14577,7861 14640,7924 14684,8000 14728,8076 14751,8163 14751,8251 L 14751,8251 Z"/>
        <path fill="none" stroke="rgb(52,101,164)" d="M 14751,8251 C 14751,8338 14728,8425 14684,8501 14640,8577 14577,8640 14501,8684 14425,8728 14338,8751 14251,8751 14163,8751 14076,8728 14000,8684 13924,8640 13861,8577 13817,8501 13773,8425 13750,8338 13750,8251 13750,8163 13773,8076 13817,8000 13861,7924 13924,7861 14000,7817 14076,7773 14163,7750 14251,7750 14338,7750 14425,7773 14501,7817 14577,7861 14640,7924 14684,8000 14728,8076 14751,8163 14751,8251 Z"/>
       </g>
      </g>
      <g class="com.sun.star.drawing.CustomShape">
       <g id="id7">
        <rect class="BoundingBox" stroke="none" fill="none" x="17749" y="7999" width="1004" height="1004"/>
        <path fill="rgb(114,159,207)" stroke="none" d="M 18751,8501 C 18751,8588 18728,8675 18684,8751 18640,8827 18577,8890 18501,8934 18425,8978 18338,9001 18251,9001 18163,9001 18076,8978 18000,8934 17924,8890 17861,8827 17817,8751 17773,8675 17750,8588 17750,8501 17750,8413 17773,8326 17817,8250 17861,8174 17924,8111 18000,8067 18076,8023 18163,8000 18251,8000 18338,8000 18425,8023 18501,8067 18577,8111 18640,8174 18684,8250 18728,8326 18751,8413 18751,8501 L 18751,8501 Z"/>
        <path fill="none" stroke="rgb(52,101,164)" d="M 18751,8501 C 18751,8588 18728,8675 18684,8751 18640,8827 18577,8890 18501,8934 18425,8978 18338,9001 18251,9001 18163,9001 18076,8978 18000,8934 17924,8890 17861,8827 17817,8751 17773,8675 17750,8588 17750,8501 17750,8413 17773,8326 17817,8250 17861,8174 17924,8111 18000,8067 18076,8023 18163,8000 18251,8000 18338,8000 18425,8023 18501,8067 18577,8111 18640,8174 18684,8250 18728,8326 18751,8413 18751,8501 Z"/>
       </g>
      </g>
      <g class="com.sun.star.drawing.CustomShape">
       <g id="id8">
        <rect class="BoundingBox" stroke="none" fill="none" x="16249" y="14499" width="1004" height="1004"/>
        <path fill="rgb(114,159,207)" stroke="none" d="M 17251,15001 C 17251,15088 17228,15175 17184,15251 17140,15327 17077,15390 17001,15434 16925,15478 16838,15501 16751,15501 16663,15501 16576,15478 16500,15434 16424,15390 16361,15327 16317,15251 16273,15175 16250,15088 16250,15001 16250,14913 16273,14826 16317,14750 16361,14674 16424,14611 16500,14567 16576,14523 16663,14500 16751,14500 16838,14500 16925,14523 17001,14567 17077,14611 17140,14674 17184,14750 17228,14826 17251,14913 17251,15001 L 17251,15001 Z"/>
        <path fill="none" stroke="rgb(52,101,164)" d="M 17251,15001 C 17251,15088 17228,15175 17184,15251 17140,15327 17077,15390 17001,15434 16925,15478 16838,15501 16751,15501 16663,15501 16576,15478 16500,15434 16424,15390 16361,15327 16317,15251 16273,15175 16250,15088 16250,15001 16250,14913 16273,14826 16317,14750 16361,14674 16424,14611 16500,14567 16576,14523 16663,14500 16751,14500 16838,14500 16925,14523 17001,14567 17077,14611 17140,14674 17184,14750 17228,14826 17251,14913 17251,15001 Z"/>
       </g>
      </g>
      <g class="com.sun.star.drawing.CustomShape">
       <g id="id9">
        <rect class="BoundingBox" stroke="none" fill="none" x="5749" y="5249" width="1004" height="1004"/>
        <path fill="rgb(114,159,207)" stroke="none" d="M 6751,5751 C 6751,5838 6728,5925 6684,6001 6640,6077 6577,6140 6501,6184 6425,6228 6338,6251 6251,6251 6163,6251 6076,6228 6000,6184 5924,6140 5861,6077 5817,6001 5773,5925 5750,5838 5750,5751 5750,5663 5773,5576 5817,5500 5861,5424 5924,5361 6000,5317 6076,5273 6163,5250 6251,5250 6338,5250 6425,5273 6501,5317 6577,5361 6640,5424 6684,5500 6728,5576 6751,5663 6751,5751 L 6751,5751 Z"/>
        <path fill="none" stroke="rgb(52,101,164)" d="M 6751,5751 C 6751,5838 6728,5925 6684,6001 6640,6077 6577,6140 6501,6184 6425,6228 6338,6251 6251,6251 6163,6251 6076,6228 6000,6184 5924,6140 5861,6077 5817,6001 5773,5925 5750,5838 5750,5751 5750,5663 5773,5576 5817,5500 5861,5424 5924,5361 6000,5317 6076,5273 6163,5250 6251,5250 6338,5250 6425,5273 6501,5317 6577,5361 6640,5424 6684,5500 6728,5576 6751,5663 6751,5751 Z"/>
       </g>
      </g>
      <g class="com.sun.star.drawing.CustomShape">
       <g id="id10">
        <rect class="BoundingBox" stroke="none" fill="none" x="9999" y="2999" width="1004" height="1004"/>
        <path fill="rgb(114,159,207)" stroke="none" d="M 11001,3501 C 11001,3588 10978,3675 10934,3751 10890,3827 10827,3890 10751,3934 10675,3978 10588,4001 10501,4001 10413,4001 10326,3978 10250,3934 10174,3890 10111,3827 10067,3751 10023,3675 10000,3588 10000,3501 10000,3413 10023,3326 10067,3250 10111,3174 10174,3111 10250,3067 10326,3023 10413,3000 10501,3000 10588,3000 10675,3023 10751,3067 10827,3111 10890,3174 10934,3250 10978,3326 11001,3413 11001,3500 L 11001,3501 Z"/>
        <path fill="none" stroke="rgb(52,101,164)" d="M 11001,3501 C 11001,3588 10978,3675 10934,3751 10890,3827 10827,3890 10751,3934 10675,3978 10588,4001 10501,4001 10413,4001 10326,3978 10250,3934 10174,3890 10111,3827 10067,3751 10023,3675 10000,3588 10000,3501 10000,3413 10023,3326 10067,3250 10111,3174 10174,3111 10250,3067 10326,3023 10413,3000 10501,3000 10588,3000 10675,3023 10751,3067 10827,3111 10890,3174 10934,3250 10978,3326 11001,3413 11001,3500 L 11001,3501 Z"/>
       </g>
      </g>
      <g class="com.sun.star.drawing.CustomShape">
       <g id="id11">
        <rect class="BoundingBox" stroke="none" fill="none" x="4749" y="12749" width="1004" height="1004"/>
        <path fill="rgb(114,159,207)" stroke="none" d="M 5751,13251 C 5751,13338 5728,13425 5684,13501 5640,13577 5577,13640 5501,13684 5425,13728 5338,13751 5251,13751 5163,13751 5076,13728 5000,13684 4924,13640 4861,13577 4817,13501 4773,13425 4750,13338 4750,13251 4750,13163 4773,13076 4817,13000 4861,12924 4924,12861 5000,12817 5076,12773 5163,12750 5251,12750 5338,12750 5425,12773 5501,12817 5577,12861 5640,12924 5684,13000 5728,13076 5751,13163 5751,13251 L 5751,13251 Z"/>
        <path fill="none" stroke="rgb(52,101,164)" d="M 5751,13251 C 5751,13338 5728,13425 5684,13501 5640,13577 5577,13640 5501,13684 5425,13728 5338,13751 5251,13751 5163,13751 5076,13728 5000,13684 4924,13640 4861,13577 4817,13501 4773,13425 4750,13338 4750,13251 4750,13163 4773,13076 4817,13000 4861,12924 4924,12861 5000,12817 5076,12773 5163,12750 5251,12750 5338,12750 5425,12773 5501,12817 5577,12861 5640,12924 5684,13000 5728,13076 5751,13163 5751,13251 Z"/>
       </g>
      </g>
      <g class="com.sun.star.drawing.CustomShape">
       <g id="id12">
        <rect class="BoundingBox" stroke="none" fill="none" x="18749" y="3749" width="1004" height="1004"/>
        <path fill="rgb(114,159,207)" stroke="none" d="M 19751,4251 C 19751,4338 19728,4425 19684,4501 19640,4577 19577,4640 19501,4684 19425,4728 19338,4751 19251,4751 19163,4751 19076,4728 19000,4684 18924,4640 18861,4577 18817,4501 18773,4425 18750,4338 18750,4251 18750,4163 18773,4076 18817,4000 18861,3924 18924,3861 19000,3817 19076,3773 19163,3750 19251,3750 19338,3750 19425,3773 19501,3817 19577,3861 19640,3924 19684,4000 19728,4076 19751,4163 19751,4251 L 19751,4251 Z"/>
        <path fill="none" stroke="rgb(52,101,164)" d="M 19751,4251 C 19751,4338 19728,4425 19684,4501 19640,4577 19577,4640 19501,4684 19425,4728 19338,4751 19251,4751 19163,4751 19076,4728 19000,4684 18924,4640 18861,4577 18817,4501 18773,4425 18750,4338 18750,4251 18750,4163 18773,4076 18817,4000 18861,3924 18924,3861 19000,3817 19076,3773 19163,3750 19251,3750 19338,3750 19425,3773 19501,3817 19577,3861 19640,3924 19684,4000 19728,4076 19751,4163 19751,4251 Z"/>
       </g>
      </g>
      <g class="com.sun.star.drawing.CustomShape">
       <g id="id13">
        <rect class="BoundingBox" stroke="none" fill="none" x="11749" y="9249" width="1004" height="1004"/>
        <path fill="rgb(114,159,207)" stroke="none" d="M 12751,9751 C 12751,9838 12728,9925 12684,10001 12640,10077 12577,10140 12501,10184 12425,10228 12338,10251 12251,10251 12163,10251 12076,10228 12000,10184 11924,10140 11861,10077 11817,10001 11773,9925 11750,9838 11750,9751 11750,9663 11773,9576 11817,9500 11861,9424 11924,9361 12000,9317 12076,9273 12163,9250 12251,9250 12338,9250 12425,9273 12501,9317 12577,9361 12640,9424 12684,9500 12728,9576 12751,9663 12751,9751 L 12751,9751 Z"/>
        <path fill="none" stroke="rgb(52,101,164)" d="M 12751,9751 C 12751,9838 12728,9925 12684,10001 12640,10077 12577,10140 12501,10184 12425,10228 12338,10251 12251,10251 12163,10251 12076,10228 12000,10184 11924,10140 11861,10077 11817,10001 11773,9925 11750,9838 11750,9751 11750,9663 11773,9576 11817,9500 11861,9424 11924,9361 12000,9317 12076,9273 12163,9250 12251,9250 12338,9250 12425,9273 12501,9317 12577,9361 12640,9424 12684,9500 12728,9576 12751,9663 12751,9751 Z"/>
       </g>
      </g>
      <g class="com.sun.star.drawing.CustomShape">
       <g id="id14">
        <rect class="BoundingBox" stroke="none" fill="none" x="18749" y="11249" width="1004" height="1004"/>
        <path fill="rgb(114,159,207)" stroke="none" d="M 19751,11751 C 19751,11838 19728,11925 19684,12001 19640,12077 19577,12140 19501,12184 19425,12228 19338,12251 19251,12251 19163,12251 19076,12228 19000,12184 18924,12140 18861,12077 18817,12001 18773,11925 18750,11838 18750,11751 18750,11663 18773,11576 18817,11500 18861,11424 18924,11361 19000,11317 19076,11273 19163,11250 19251,11250 19338,11250 19425,11273 19501,11317 19577,11361 19640,11424 19684,11500 19728,11576 19751,11663 19751,11751 L 19751,11751 Z"/>
        <path fill="none" stroke="rgb(52,101,164)" d="M 19751,11751 C 19751,11838 19728,11925 19684,12001 19640,12077 19577,12140 19501,12184 19425,12228 19338,12251 19251,12251 19163,12251 19076,12228 19000,12184 18924,12140 18861,12077 18817,12001 18773,11925 18750,11838 18750,11751 18750,11663 18773,11576 18817,11500 18861,11424 18924,11361 19000,11317 19076,11273 19163,11250 19251,11250 19338,11250 19425,11273 19501,11317 19577,11361 19640,11424 19684,11500 19728,11576 19751,11663 19751,11751 Z"/>
       </g>
      </g>
      <g class="com.sun.star.drawing.CustomShape">
       <g id="id15">
        <rect class="BoundingBox" stroke="none" fill="none" x="18749" y="6499" width="1004" height="1004"/>
        <path fill="rgb(114,159,207)" stroke="none" d="M 19751,7001 C 19751,7088 19728,7175 19684,7251 19640,7327 19577,7390 19501,7434 19425,7478 19338,7501 19251,7501 19163,7501 19076,7478 19000,7434 18924,7390 18861,7327 18817,7251 18773,7175 18750,7088 18750,7001 18750,6913 18773,6826 18817,6750 18861,6674 18924,6611 19000,6567 19076,6523 19163,6500 19251,6500 19338,6500 19425,6523 19501,6567 19577,6611 19640,6674 19684,6750 19728,6826 19751,6913 19751,7001 L 19751,7001 Z"/>
        <path fill="none" stroke="rgb(52,101,164)" d="M 19751,7001 C 19751,7088 19728,7175 19684,7251 19640,7327 19577,7390 19501,7434 19425,7478 19338,7501 19251,7501 19163,7501 19076,7478 19000,7434 18924,7390 18861,7327 18817,7251 18773,7175 18750,7088 18750,7001 18750,6913 18773,6826 18817,6750 18861,6674 18924,6611 19000,6567 19076,6523 19163,6500 19251,6500 19338,6500 19425,6523 19501,6567 19577,6611 19640,6674 19684,6750 19728,6826 19751,6913 19751,7001 Z"/>
       </g>
      </g>
      <g class="com.sun.star.drawing.CustomShape">
       <g id="id16">
        <rect class="BoundingBox" stroke="none" fill="none" x="11249" y="12249" width="1004" height="1004"/>
        <path fill="rgb(114,159,207)" stroke="none" d="M 12251,12751 C 12251,12838 12228,12925 12184,13001 12140,13077 12077,13140 12001,13184 11925,13228 11838,13251 11751,13251 11663,13251 11576,13228 11500,13184 11424,13140 11361,13077 11317,13001 11273,12925 11250,12838 11250,12751 11250,12663 11273,12576 11317,12500 11361,12424 11424,12361 11500,12317 11576,12273 11663,12250 11751,12250 11838,12250 11925,12273 12001,12317 12077,12361 12140,12424 12184,12500 12228,12576 12251,12663 12251,12751 L 12251,12751 Z"/>
        <path fill="none" stroke="rgb(52,101,164)" d="M 12251,12751 C 12251,12838 12228,12925 12184,13001 12140,13077 12077,13140 12001,13184 11925,13228 11838,13251 11751,13251 11663,13251 11576,13228 11500,13184 11424,13140 11361,13077 11317,13001 11273,12925 11250,12838 11250,12751 11250,12663 11273,12576 11317,12500 11361,12424 11424,12361 11500,12317 11576,12273 11663,12250 11751,12250 11838,12250 11925,12273 12001,12317 12077,12361 12140,12424 12184,12500 12228,12576 12251,12663 12251,12751 Z"/>
       </g>
      </g>
      <g class="com.sun.star.drawing.CustomShape">
       <g id="id17">
        <rect class="BoundingBox" stroke="none" fill="none" x="14999" y="11249" width="1004" height="1004"/>
        <path fill="rgb(114,159,207)" stroke="none" d="M 16001,11751 C 16001,11838 15978,11925 15934,12001 15890,12077 15827,12140 15751,12184 15675,12228 15588,12251 15501,12251 15413,12251 15326,12228 15250,12184 15174,12140 15111,12077 15067,12001 15023,11925 15000,11838 15000,11751 15000,11663 15023,11576 15067,11500 15111,11424 15174,11361 15250,11317 15326,11273 15413,11250 15501,11250 15588,11250 15675,11273 15751,11317 15827,11361 15890,11424 15934,11500 15978,11576 16001,11663 16001,11751 L 16001,11751 Z"/>
        <path fill="none" stroke="rgb(52,101,164)" d="M 16001,11751 C 16001,11838 15978,11925 15934,12001 15890,12077 15827,12140 15751,12184 15675,12228 15588,12251 15501,12251 15413,12251 15326,12228 15250,12184 15174,12140 15111,12077 15067,12001 15023,11925 15000,11838 15000,11751 15000,11663 15023,11576 15067,11500 15111,11424 15174,11361 15250,11317 15326,11273 15413,11250 15501,11250 15588,11250 15675,11273 15751,11317 15827,11361 15890,11424 15934,11500 15978,11576 16001,11663 16001,11751 Z"/>
       </g>
      </g>
      <g class="com.sun.star.drawing.CustomShape">
       <g id="id18">
        <rect class="BoundingBox" stroke="none" fill="none" x="2749" y="9499" width="1004" height="1004"/>
        <path fill="rgb(114,159,207)" stroke="none" d="M 3751,10001 C 3751,10088 3728,10175 3684,10251 3640,10327 3577,10390 3501,10434 3425,10478 3338,10501 3251,10501 3163,10501 3076,10478 3000,10434 2924,10390 2861,10327 2817,10251 2773,10175 2750,10088 2750,10001 2750,9913 2773,9826 2817,9750 2861,9674 2924,9611 3000,9567 3076,9523 3163,9500 3250,9500 3338,9500 3425,9523 3501,9567 3577,9611 3640,9674 3684,9750 3728,9826 3751,9913 3751,10001 L 3751,10001 Z"/>
        <path fill="none" stroke="rgb(52,101,164)" d="M 3751,10001 C 3751,10088 3728,10175 3684,10251 3640,10327 3577,10390 3501,10434 3425,10478 3338,10501 3251,10501 3163,10501 3076,10478 3000,10434 2924,10390 2861,10327 2817,10251 2773,10175 2750,10088 2750,10001 2750,9913 2773,9826 2817,9750 2861,9674 2924,9611 3000,9567 3076,9523 3163,9500 3250,9500 3338,9500 3425,9523 3501,9567 3577,9611 3640,9674 3684,9750 3728,9826 3751,9913 3751,10001 Z"/>
       </g>
      </g>
      <g class="com.sun.star.drawing.CustomShape">
       <g id="id19">
        <rect class="BoundingBox" stroke="none" fill="none" x="8999" y="6999" width="1004" height="1004"/>
        <path fill="rgb(114,159,207)" stroke="none" d="M 10001,7501 C 10001,7588 9978,7675 9934,7751 9890,7827 9827,7890 9751,7934 9675,7978 9588,8001 9501,8001 9413,8001 9326,7978 9250,7934 9174,7890 9111,7827 9067,7751 9023,7675 9000,7588 9000,7501 9000,7413 9023,7326 9067,7250 9111,7174 9174,7111 9250,7067 9326,7023 9413,7000 9501,7000 9588,7000 9675,7023 9751,7067 9827,7111 9890,7174 9934,7250 9978,7326 10001,7413 10001,7501 L 10001,7501 Z"/>
        <path fill="none" stroke="rgb(52,101,164)" d="M 10001,7501 C 10001,7588 9978,7675 9934,7751 9890,7827 9827,7890 9751,7934 9675,7978 9588,8001 9501,8001 9413,8001 9326,7978 9250,7934 9174,7890 9111,7827 9067,7751 9023,7675 9000,7588 9000,7501 9000,7413 9023,7326 9067,7250 9111,7174 9174,7111 9250,7067 9326,7023 9413,7000 9501,7000 9588,7000 9675,7023 9751,7067 9827,7111 9890,7174 9934,7250 9978,7326 10001,7413 10001,7501 Z"/>
       </g>
      </g>
      <g class="com.sun.star.drawing.CustomShape">
       <g id="id20">
        <rect class="BoundingBox" stroke="none" fill="none" x="13249" y="4749" width="1004" height="1004"/>
        <path fill="rgb(114,159,207)" stroke="none" d="M 14251,5251 C 14251,5338 14228,5425 14184,5501 14140,5577 14077,5640 14001,5684 13925,5728 13838,5751 13751,5751 13663,5751 13576,5728 13500,5684 13424,5640 13361,5577 13317,5501 13273,5425 13250,5338 13250,5251 13250,5163 13273,5076 13317,5000 13361,4924 13424,4861 13500,4817 13576,4773 13663,4750 13751,4750 13838,4750 13925,4773 14001,4817 14077,4861 14140,4924 14184,5000 14228,5076 14251,5163 14251,5251 L 14251,5251 Z"/>
        <path fill="none" stroke="rgb(52,101,164)" d="M 14251,5251 C 14251,5338 14228,5425 14184,5501 14140,5577 14077,5640 14001,5684 13925,5728 13838,5751 13751,5751 13663,5751 13576,5728 13500,5684 13424,5640 13361,5577 13317,5501 13273,5425 13250,5338 13250,5251 13250,5163 13273,5076 13317,5000 13361,4924 13424,4861 13500,4817 13576,4773 13663,4750 13751,4750 13838,4750 13925,4773 14001,4817 14077,4861 14140,4924 14184,5000 14228,5076 14251,5163 14251,5251 Z"/>
       </g>
      </g>
      <g class="com.sun.star.drawing.CustomShape">
       <g id="id21">
        <rect class="BoundingBox" stroke="none" fill="none" x="6749" y="8749" width="1004" height="1004"/>
        <path fill="rgb(114,159,207)" stroke="none" d="M 7751,9251 C 7751,9338 7728,9425 7684,9501 7640,9577 7577,9640 7501,9684 7425,9728 7338,9751 7251,9751 7163,9751 7076,9728 7000,9684 6924,9640 6861,9577 6817,9501 6773,9425 6750,9338 6750,9251 6750,9163 6773,9076 6817,9000 6861,8924 6924,8861 7000,8817 7076,8773 7163,8750 7251,8750 7338,8750 7425,8773 7501,8817 7577,8861 7640,8924 7684,9000 7728,9076 7751,9163 7751,9251 L 7751,9251 Z"/>
        <path fill="none" stroke="rgb(52,101,164)" d="M 7751,9251 C 7751,9338 7728,9425 7684,9501 7640,9577 7577,9640 7501,9684 7425,9728 7338,9751 7251,9751 7163,9751 7076,9728 7000,9684 6924,9640 6861,9577 6817,9501 6773,9425 6750,9338 6750,9251 6750,9163 6773,9076 6817,9000 6861,8924 6924,8861 7000,8817 7076,8773 7163,8750 7251,8750 7338,8750 7425,8773 7501,8817 7577,8861 7640,8924 7684,9000 7728,9076 7751,9163 7751,9251 Z"/>
       </g>
      </g>
      <g class="com.sun.star.drawing.CustomShape">
       <g id="id22">
        <rect class="BoundingBox" stroke="none" fill="none" x="6999" y="3499" width="1004" height="1004"/>
        <path fill="rgb(114,159,207)" stroke="none" d="M 8001,4001 C 8001,4088 7978,4175 7934,4251 7890,4327 7827,4390 7751,4434 7675,4478 7588,4501 7501,4501 7413,4501 7326,4478 7250,4434 7174,4390 7111,4327 7067,4251 7023,4175 7000,4088 7000,4001 7000,3913 7023,3826 7067,3750 7111,3674 7174,3611 7250,3567 7326,3523 7413,3500 7501,3500 7588,3500 7675,3523 7751,3567 7827,3611 7890,3674 7934,3750 7978,3826 8001,3913 8001,4000 L 8001,4001 Z"/>
        <path fill="none" stroke="rgb(52,101,164)" d="M 8001,4001 C 8001,4088 7978,4175 7934,4251 7890,4327 7827,4390 7751,4434 7675,4478 7588,4501 7501,4501 7413,4501 7326,4478 7250,4434 7174,4390 7111,4327 7067,4251 7023,4175 7000,4088 7000,4001 7000,3913 7023,3826 7067,3750 7111,3674 7174,3611 7250,3567 7326,3523 7413,3500 7501,3500 7588,3500 7675,3523 7751,3567 7827,3611 7890,3674 7934,3750 7978,3826 8001,3913 8001,4000 L 8001,4001 Z"/>
       </g>
      </g>
      <g class="com.sun.star.drawing.CustomShape">
       <g id="id23">
        <rect class="BoundingBox" stroke="none" fill="none" x="2749" y="4999" width="1004" height="1004"/>
        <path fill="rgb(114,159,207)" stroke="none" d="M 3751,5501 C 3751,5588 3728,5675 3684,5751 3640,5827 3577,5890 3501,5934 3425,5978 3338,6001 3251,6001 3163,6001 3076,5978 3000,5934 2924,5890 2861,5827 2817,5751 2773,5675 2750,5588 2750,5501 2750,5413 2773,5326 2817,5250 2861,5174 2924,5111 3000,5067 3076,5023 3163,5000 3250,5000 3338,5000 3425,5023 3501,5067 3577,5111 3640,5174 3684,5250 3728,5326 3751,5413 3751,5501 L 3751,5501 Z"/>
        <path fill="none" stroke="rgb(52,101,164)" d="M 3751,5501 C 3751,5588 3728,5675 3684,5751 3640,5827 3577,5890 3501,5934 3425,5978 3338,6001 3251,6001 3163,6001 3076,5978 3000,5934 2924,5890 2861,5827 2817,5751 2773,5675 2750,5588 2750,5501 2750,5413 2773,5326 2817,5250 2861,5174 2924,5111 3000,5067 3076,5023 3163,5000 3250,5000 3338,5000 3425,5023 3501,5067 3577,5111 3640,5174 3684,5250 3728,5326 3751,5413 3751,5501 Z"/>
       </g>
      </g>
      <g class="com.sun.star.drawing.CustomShape">
       <g id="id24">
        <rect class="BoundingBox" stroke="none" fill="none" x="4749" y="2749" width="1004" height="1004"/>
        <path fill="rgb(114,159,207)" stroke="none" d="M 5751,3251 C 5751,3338 5728,3425 5684,3501 5640,3577 5577,3640 5501,3684 5425,3728 5338,3751 5251,3751 5163,3751 5076,3728 5000,3684 4924,3640 4861,3577 4817,3501 4773,3425 4750,3338 4750,3251 4750,3163 4773,3076 4817,3000 4861,2924 4924,2861 5000,2817 5076,2773 5163,2750 5251,2750 5338,2750 5425,2773 5501,2817 5577,2861 5640,2924 5684,3000 5728,3076 5751,3163 5751,3250 L 5751,3251 Z"/>
        <path fill="none" stroke="rgb(52,101,164)" d="M 5751,3251 C 5751,3338 5728,3425 5684,3501 5640,3577 5577,3640 5501,3684 5425,3728 5338,3751 5251,3751 5163,3751 5076,3728 5000,3684 4924,3640 4861,3577 4817,3501 4773,3425 4750,3338 4750,3251 4750,3163 4773,3076 4817,3000 4861,2924 4924,2861 5000,2817 5076,2773 5163,2750 5251,2750 5338,2750 5425,2773 5501,2817 5577,2861 5640,2924 5684,3000 5728,3076 5751,3163 5751,3250 L 5751,3251 Z"/>
       </g>
      </g>
      <g class="com.sun.star.drawing.ClosedFreeHandShape">
       <g id="id25">
        <rect class="BoundingBox" stroke="none" fill="none" x="1086" y="1499" width="8666" height="5574"/>
        <path fill="rgb(255,0,0)" fill-opacity="0.251" stroke="rgb(255,255,255)" stroke-opacity="0.251" d="M 1779,1680 C 1477,1724 1296,2016 1216,2292 1136,2566 1122,2846 1118,3125 1115,3386 1118,3646 1093,3909 1070,4151 1123,4400 1093,4644 1050,4989 1264,5309 1510,5502 1780,5714 2441,6488 2294,6163 1976,5461 2218,6338 2441,6408 2737,6500 2993,6618 3274,6702 3543,6782 3832,6787 4107,6849 4372,6909 4632,6958 4891,7045 5184,7143 5463,6944 5699,6800 6150,6526 6702,6821 7071,6457 7358,6174 7841,6167 8002,5747 8333,4888 9060,4225 9423,3370 9539,3098 9600,2826 9717,2562 9826,2315 9656,1992 9374,1949 9047,1899 8771,2076 8443,2072 8180,2069 7919,2086 7659,2096 7405,2105 7128,2019 6900,2145 6593,2315 6244,2257 5920,2194 5559,2124 5238,1960 4891,1876 4613,1809 4387,1630 4107,1606 3845,1584 3586,1549 3323,1557 3055,1565 2797,1622 2514,1533 2271,1457 1993,1523 1755,1631 L 1559,1851 1779,1680 Z"/>
        <path fill="none" stroke="rgb(52,101,164)" d="M 1779,1680 C 1477,1724 1296,2016 1216,2292 1136,2566 1122,2846 1118,3125 1115,3386 1118,3646 1093,3909 1070,4151 1123,4400 1093,4644 1050,4989 1264,5309 1510,5502 1780,5714 2441,6488 2294,6163 1976,5461 2218,6338 2441,6408 2737,6500 2993,6618 3274,6702 3543,6782 3832,6787 4107,6849 4372,6909 4632,6958 4891,7045 5184,7143 5463,6944 5699,6800 6150,6526 6702,6821 7071,6457 7358,6174 7841,6167 8002,5747 8333,4888 9060,4225 9423,3370 9539,3098 9600,2826 9717,2562 9826,2315 9656,1992 9374,1949 9047,1899 8771,2076 8443,2072 8180,2069 7919,2086 7659,2096 7405,2105 7128,2019 6900,2145 6593,2315 6244,2257 5920,2194 5559,2124 5238,1960 4891,1876 4613,1809 4387,1630 4107,1606 3845,1584 3586,1549 3323,1557 3055,1565 2797,1622 2514,1533 2271,1457 1993,1523 1755,1631 L 1559,1851 1779,1680 Z"/>
       </g>
      </g>
      <g class="com.sun.star.drawing.ClosedFreeHandShape">
       <g id="id26">
        <rect class="BoundingBox" stroke="none" fill="none" x="9754" y="1736" width="10740" height="7542"/>
        <path fill="rgb(128,0,128)" fill-opacity="0.239" stroke="rgb(255,255,255)" stroke-opacity="0.239" d="M 10535,2401 C 10195,2432 10181,2816 9996,3013 9810,3211 9709,3496 9775,3773 9839,4040 9989,4317 10265,4410 10560,4510 10830,4668 11098,4826 11498,5062 11871,5355 12299,5537 12639,5682 12704,6034 13009,6223 13318,6415 13578,6698 13916,6835 14228,6962 14470,7182 14822,7227 15089,7261 15208,7599 15557,7521 15887,7448 15990,7918 16169,8133 16357,8358 16633,8486 16904,8599 17178,8713 17340,9023 17639,9089 17906,9148 18203,9365 18448,9236 18718,9094 18906,8841 19183,8697 19520,8521 19784,8216 19991,7888 20143,7646 20285,7396 20383,7129 20492,6833 20485,6510 20481,6198 20477,5913 20507,5624 20481,5341 20456,5061 20467,4785 20432,4508 20400,4250 20385,3980 20261,3748 20110,3464 19880,3236 19746,2940 19616,2653 19433,2375 19183,2180 18961,2007 18715,1795 18399,1813 18073,1831 17784,2026 17443,1911 17187,1825 16905,1816 16635,1837 16289,1864 15949,1775 15606,1788 15310,1799 15018,1756 14724,1739 14404,1721 14106,1827 13793,1837 13436,1848 13093,1976 12740,2009 12479,2034 12218,2067 11956,2058 11671,2049 11379,2015 11098,2058 10824,2099 10527,2191 10363,2450 L 10339,2474 10535,2401 Z"/>
        <path fill="none" stroke="rgb(52,101,164)" d="M 10535,2401 C 10195,2432 10181,2816 9996,3013 9810,3211 9709,3496 9775,3773 9839,4040 9989,4317 10265,4410 10560,4510 10830,4668 11098,4826 11498,5062 11871,5355 12299,5537 12639,5682 12704,6034 13009,6223 13318,6415 13578,6698 13916,6835 14228,6962 14470,7182 14822,7227 15089,7261 15208,7599 15557,7521 15887,7448 15990,7918 16169,8133 16357,8358 16633,8486 16904,8599 17178,8713 17340,9023 17639,9089 17906,9148 18203,9365 18448,9236 18718,9094 18906,8841 19183,8697 19520,8521 19784,8216 19991,7888 20143,7646 20285,7396 20383,7129 20492,6833 20485,6510 20481,6198 20477,5913 20507,5624 20481,5341 20456,5061 20467,4785 20432,4508 20400,4250 20385,3980 20261,3748 20110,3464 19880,3236 19746,2940 19616,2653 19433,2375 19183,2180 18961,2007 18715,1795 18399,1813 18073,1831 17784,2026 17443,1911 17187,1825 16905,1816 16635,1837 16289,1864 15949,1775 15606,1788 15310,1799 15018,1756 14724,1739 14404,1721 14106,1827 13793,1837 13436,1848 13093,1976 12740,2009 12479,2034 12218,2067 11956,2058 11671,2049 11379,2015 11098,2058 10824,2099 10527,2191 10363,2450 L 10339,2474 10535,2401 Z"/>
       </g>
      </g>
      <g class="com.sun.star.drawing.ClosedFreeHandShape">
       <g id="id27">
        <rect class="BoundingBox" stroke="none" fill="none" x="640" y="6173" width="9876" height="9342"/>
        <path fill="rgb(255,128,0)" fill-opacity="0.251" stroke="rgb(255,255,255)" stroke-opacity="0.251" d="M 9236,6345 C 8894,6485 8541,6612 8232,6811 7866,7047 7473,7234 7056,7325 6697,7403 6353,7511 6003,7619 5715,7708 5431,7782 5145,7864 4893,7936 4656,8048 4410,8133 4130,8230 3946,8486 3651,8550 3304,8626 2992,8805 2695,8991 2325,9223 1969,9494 1666,9824 1414,10099 1267,10423 1078,10730 911,11001 790,11312 760,11637 732,11947 700,12255 662,12568 631,12827 632,13095 686,13352 750,13657 844,13956 931,14258 1021,14573 1271,14793 1519,14969 1780,15155 2065,15326 2377,15409 2637,15478 2910,15533 3185,15507 3470,15481 3760,15510 4043,15360 4450,15144 4882,14977 5317,14822 5656,14702 5956,14482 6297,14356 6395,14320 7212,13434 6566,13964 6048,14389 7474,13087 7938,12666 8205,12424 8496,12213 8746,11955 9070,11621 9277,11195 9530,10804 9736,10486 9850,10147 10069,9848 10240,9615 10240,9319 10363,9064 10479,8822 10499,8544 10510,8280 10521,8003 10507,7723 10510,7447 10512,7173 10391,6921 10314,6664 10229,6380 9965,6217 9702,6174 L 9457,6174 9212,6223 9089,6321 9236,6345 Z"/>
        <path fill="none" stroke="rgb(52,101,164)" d="M 9236,6345 C 8894,6485 8541,6612 8232,6811 7866,7047 7473,7234 7056,7325 6697,7403 6353,7511 6003,7619 5715,7708 5431,7782 5145,7864 4893,7936 4656,8048 4410,8133 4130,8230 3946,8486 3651,8550 3304,8626 2992,8805 2695,8991 2325,9223 1969,9494 1666,9824 1414,10099 1267,10423 1078,10730 911,11001 790,11312 760,11637 732,11947 700,12255 662,12568 631,12827 632,13095 686,13352 750,13657 844,13956 931,14258 1021,14573 1271,14793 1519,14969 1780,15155 2065,15326 2377,15409 2637,15478 2910,15533 3185,15507 3470,15481 3760,15510 4043,15360 4450,15144 4882,14977 5317,14822 5656,14702 5956,14482 6297,14356 6395,14320 7212,13434 6566,13964 6048,14389 7474,13087 7938,12666 8205,12424 8496,12213 8746,11955 9070,11621 9277,11195 9530,10804 9736,10486 9850,10147 10069,9848 10240,9615 10240,9319 10363,9064 10479,8822 10499,8544 10510,8280 10521,8003 10507,7723 10510,7447 10512,7173 10391,6921 10314,6664 10229,6380 9965,6217 9702,6174 L 9457,6174 9212,6223 9089,6321 9236,6345 Z"/>
       </g>
      </g>
      <g class="com.sun.star.drawing.ClosedFreeHandShape">
       <g id="id28">
        <rect class="BoundingBox" stroke="none" fill="none" x="10166" y="7324" width="8109" height="8313"/>
        <path fill="rgb(0,169,51)" fill-opacity="0.251" stroke="rgb(255,255,255)" stroke-opacity="0.251" d="M 13916,7374 C 14178,7385 14455,7358 14700,7521 14954,7690 15179,7917 15263,8207 15352,8511 15357,8820 15606,9089 15832,9334 15860,9705 16022,9995 16176,10271 16292,10562 16463,10828 16683,11172 16966,11465 17223,11784 17479,12102 17818,12348 18154,12592 18446,12804 18099,13065 18178,13352 18243,13587 18223,13840 18227,14087 18232,14356 18198,14629 18080,14871 17943,15150 17649,15292 17370,15360 17117,15421 16875,15500 16610,15532 16274,15573 15940,15620 15606,15630 15271,15640 14936,15635 14602,15605 14286,15576 14006,15395 13695,15385 13383,15375 13071,15372 12764,15409 12426,15450 12141,15272 11833,15189 11539,15110 11182,15050 11049,14724 10943,14465 10871,14193 10755,13940 10640,13689 10578,13455 10412,13205 10251,12962 10160,12695 10167,12372 10184,11520 10210,13134 10290,12029 10312,11717 10425,11417 10535,11122 10624,10883 10674,10628 10755,10387 10856,10089 11000,9806 11098,9505 11190,9224 11292,8944 11466,8697 11682,8391 11958,8138 12250,7913 12469,7744 12723,7630 12985,7521 13240,7415 13499,7343 13769,7325 L 13965,7374 13916,7374 Z"/>
        <path fill="none" stroke="rgb(52,101,164)" d="M 13916,7374 C 14178,7385 14455,7358 14700,7521 14954,7690 15179,7917 15263,8207 15352,8511 15357,8820 15606,9089 15832,9334 15860,9705 16022,9995 16176,10271 16292,10562 16463,10828 16683,11172 16966,11465 17223,11784 17479,12102 17818,12348 18154,12592 18446,12804 18099,13065 18178,13352 18243,13587 18223,13840 18227,14087 18232,14356 18198,14629 18080,14871 17943,15150 17649,15292 17370,15360 17117,15421 16875,15500 16610,15532 16274,15573 15940,15620 15606,15630 15271,15640 14936,15635 14602,15605 14286,15576 14006,15395 13695,15385 13383,15375 13071,15372 12764,15409 12426,15450 12141,15272 11833,15189 11539,15110 11182,15050 11049,14724 10943,14465 10871,14193 10755,13940 10640,13689 10578,13455 10412,13205 10251,12962 10160,12695 10167,12372 10184,11520 10210,13134 10290,12029 10312,11717 10425,11417 10535,11122 10624,10883 10674,10628 10755,10387 10856,10089 11000,9806 11098,9505 11190,9224 11292,8944 11466,8697 11682,8391 11958,8138 12250,7913 12469,7744 12723,7630 12985,7521 13240,7415 13499,7343 13769,7325 L 13965,7374 13916,7374 Z"/>
       </g>
      </g>
     </g>
    </g>
   </g>
  </g>
 </g>
</svg>