<?xml version="1.0" encoding="UTF-8"?>
<!DOCTYPE svg PUBLIC "-//W3C//DTD SVG 1.1//EN" "http://www.w3.org/Graphics/SVG/1.1/DTD/svg11.dtd">
<svg version="1.2" width="355.6mm" height="215.9mm" viewBox="0 0 35560 21590" preserveAspectRatio="xMidYMid" fill-rule="evenodd" stroke-width="28.222" stroke-linejoin="round" xmlns="http://www.w3.org/2000/svg" xmlns:ooo="http://xml.openoffice.org/svg/export" xmlns:xlink="http://www.w3.org/1999/xlink" xmlns:presentation="http://sun.com/xmlns/staroffice/presentation" xmlns:smil="http://www.w3.org/2001/SMIL20/" xmlns:anim="urn:oasis:names:tc:opendocument:xmlns:animation:1.0" xml:space="preserve">
 <defs class="ClipPathGroup">
  <clipPath id="presentation_clip_path" clipPathUnits="userSpaceOnUse">
   <rect x="0" y="0" width="35560" height="21590"/>
  </clipPath>
  <clipPath id="presentation_clip_path_shrink" clipPathUnits="userSpaceOnUse">
   <rect x="35" y="21" width="35489" height="21547"/>
  </clipPath>
 </defs>
 <defs class="TextShapeIndex">
  <g ooo:slide="id1" ooo:id-list="id3 id4 id5 id6 id7 id8 id9 id10 id11 id12 id13 id14 id15 id16 id17 id18 id19 id20 id21 id22 id23 id24 id25 id26 id27 id28 id29 id30 id31 id32 id33 id34 id35 id36 id37 id38 id39 id40 id41 id42 id43 id44 id45 id46 id47 id48 id49 id50 id51 id52 id53"/>
 </defs>
 <defs class="EmbeddedBulletChars">
  <g id="bullet-char-template-57356" transform="scale(0.00048828125,-0.00048828125)">
   <path d="M 580,1141 L 1163,571 580,0 -4,571 580,1141 Z"/>
  </g>
  <g id="bullet-char-template-57354" transform="scale(0.00048828125,-0.00048828125)">
   <path d="M 8,1128 L 1137,1128 1137,0 8,0 8,1128 Z"/>
  </g>
  <g id="bullet-char-template-10146" transform="scale(0.00048828125,-0.00048828125)">
   <path d="M 174,0 L 602,739 174,1481 1456,739 174,0 Z M 1358,739 L 309,1346 659,739 1358,739 Z"/>
  </g>
  <g id="bullet-char-template-10132" transform="scale(0.00048828125,-0.00048828125)">
   <path d="M 2015,739 L 1276,0 717,0 1260,543 174,543 174,936 1260,936 717,1481 1274,1481 2015,739 Z"/>
  </g>
  <g id="bullet-char-template-10007" transform="scale(0.00048828125,-0.00048828125)">
   <path d="M 0,-2 C -7,14 -16,27 -25,37 L 356,567 C 262,823 215,952 215,954 215,979 228,992 255,992 264,992 276,990 289,987 310,991 331,999 354,1012 L 381,999 492,748 772,1049 836,1024 860,1049 C 881,1039 901,1025 922,1006 886,937 835,863 770,784 769,783 710,716 594,584 L 774,223 C 774,196 753,168 711,139 L 727,119 C 717,90 699,76 672,76 641,76 570,178 457,381 L 164,-76 C 142,-110 111,-127 72,-127 30,-127 9,-110 8,-76 1,-67 -2,-52 -2,-32 -2,-23 -1,-13 0,-2 Z"/>
  </g>
  <g id="bullet-char-template-10004" transform="scale(0.00048828125,-0.00048828125)">
   <path d="M 285,-33 C 182,-33 111,30 74,156 52,228 41,333 41,471 41,549 55,616 82,672 116,743 169,778 240,778 293,778 328,747 346,684 L 369,508 C 377,444 397,411 428,410 L 1163,1116 C 1174,1127 1196,1133 1229,1133 1271,1133 1292,1118 1292,1087 L 1292,965 C 1292,929 1282,901 1262,881 L 442,47 C 390,-6 338,-33 285,-33 Z"/>
  </g>
  <g id="bullet-char-template-9679" transform="scale(0.00048828125,-0.00048828125)">
   <path d="M 813,0 C 632,0 489,54 383,161 276,268 223,411 223,592 223,773 276,916 383,1023 489,1130 632,1184 813,1184 992,1184 1136,1130 1245,1023 1353,916 1407,772 1407,592 1407,412 1353,268 1245,161 1136,54 992,0 813,0 Z"/>
  </g>
  <g id="bullet-char-template-8226" transform="scale(0.00048828125,-0.00048828125)">
   <path d="M 346,457 C 273,457 209,483 155,535 101,586 74,649 74,723 74,796 101,859 155,911 209,963 273,989 346,989 419,989 480,963 531,910 582,859 608,796 608,723 608,648 583,586 532,535 482,483 420,457 346,457 Z"/>
  </g>
  <g id="bullet-char-template-8211" transform="scale(0.00048828125,-0.00048828125)">
   <path d="M -4,459 L 1135,459 1135,606 -4,606 -4,459 Z"/>
  </g>
  <g id="bullet-char-template-61548" transform="scale(0.00048828125,-0.00048828125)">
   <path d="M 173,740 C 173,903 231,1043 346,1159 462,1274 601,1332 765,1332 928,1332 1067,1274 1183,1159 1299,1043 1357,903 1357,740 1357,577 1299,437 1183,322 1067,206 928,148 765,148 601,148 462,206 346,322 231,437 173,577 173,740 Z"/>
  </g>
 </defs>
 <g>
  <g id="id2" class="Master_Slide">
   <g id="bg-id2" class="Background"/>
   <g id="bo-id2" class="BackgroundObjects"/>
  </g>
 </g>
 <g class="SlideGroup">
  <g>
   <g id="container-id1">
    <g id="id1" class="Slide" clip-path="url(#presentation_clip_path)">
     <g class="Page">
      <g class="com.sun.star.drawing.CustomShape">
       <g id="id3">
        <rect class="BoundingBox" stroke="none" fill="none" x="1973" y="2973" width="5055" height="10055"/>
        <path fill="none" stroke="rgb(0,0,0)" stroke-width="53" stroke-linejoin="round" d="M 4500,13000 L 2000,13000 2000,3000 7000,3000 7000,13000 4500,13000 Z"/>
       </g>
      </g>
      <g class="com.sun.star.drawing.CustomShape">
       <g id="id4">
        <rect class="BoundingBox" stroke="none" fill="none" x="2999" y="3999" width="1004" height="1004"/>
        <path fill="rgb(255,0,0)" stroke="none" d="M 4001,4501 C 4001,4588 3978,4675 3934,4751 3890,4827 3827,4890 3751,4934 3675,4978 3588,5001 3501,5001 3413,5001 3326,4978 3250,4934 3174,4890 3111,4827 3067,4751 3023,4675 3000,4588 3000,4501 3000,4413 3023,4326 3067,4250 3111,4174 3174,4111 3250,4067 3326,4023 3413,4000 3500,4000 3588,4000 3675,4023 3751,4067 3827,4111 3890,4174 3934,4250 3978,4326 4001,4413 4001,4500 L 4001,4501 Z"/>
        <path fill="none" stroke="rgb(52,101,164)" d="M 4001,4501 C 4001,4588 3978,4675 3934,4751 3890,4827 3827,4890 3751,4934 3675,4978 3588,5001 3501,5001 3413,5001 3326,4978 3250,4934 3174,4890 3111,4827 3067,4751 3023,4675 3000,4588 3000,4501 3000,4413 3023,4326 3067,4250 3111,4174 3174,4111 3250,4067 3326,4023 3413,4000 3500,4000 3588,4000 3675,4023 3751,4067 3827,4111 3890,4174 3934,4250 3978,4326 4001,4413 4001,4500 L 4001,4501 Z"/>
       </g>
      </g>
      <g class="com.sun.star.drawing.CustomShape">
       <g id="id5">
        <rect class="BoundingBox" stroke="none" fill="none" x="4999" y="4999" width="1004" height="1004"/>
        <path fill="rgb(128,0,128)" stroke="none" d="M 6001,5501 C 6001,5588 5978,5675 5934,5751 5890,5827 5827,5890 5751,5934 5675,5978 5588,6001 5501,6001 5413,6001 5326,5978 5250,5934 5174,5890 5111,5827 5067,5751 5023,5675 5000,5588 5000,5501 5000,5413 5023,5326 5067,5250 5111,5174 5174,5111 5250,5067 5326,5023 5413,5000 5501,5000 5588,5000 5675,5023 5751,5067 5827,5111 5890,5174 5934,5250 5978,5326 6001,5413 6001,5500 L 6001,5501 Z"/>
        <path fill="none" stroke="rgb(52,101,164)" d="M 6001,5501 C 6001,5588 5978,5675 5934,5751 5890,5827 5827,5890 5751,5934 5675,5978 5588,6001 5501,6001 5413,6001 5326,5978 5250,5934 5174,5890 5111,5827 5067,5751 5023,5675 5000,5588 5000,5501 5000,5413 5023,5326 5067,5250 5111,5174 5174,5111 5250,5067 5326,5023 5413,5000 5501,5000 5588,5000 5675,5023 5751,5067 5827,5111 5890,5174 5934,5250 5978,5326 6001,5413 6001,5500 L 6001,5501 Z"/>
       </g>
      </g>
      <g class="com.sun.star.drawing.CustomShape">
       <g id="id6">
        <rect class="BoundingBox" stroke="none" fill="none" x="4749" y="9499" width="1004" height="1004"/>
        <path fill="rgb(255,128,0)" stroke="none" d="M 5751,10001 C 5751,10088 5728,10175 5684,10251 5640,10327 5577,10390 5501,10434 5425,10478 5338,10501 5251,10501 5163,10501 5076,10478 5000,10434 4924,10390 4861,10327 4817,10251 4773,10175 4750,10088 4750,10001 4750,9913 4773,9826 4817,9750 4861,9674 4924,9611 5000,9567 5076,9523 5163,9500 5251,9500 5338,9500 5425,9523 5501,9567 5577,9611 5640,9674 5684,9750 5728,9826 5751,9913 5751,10001 L 5751,10001 Z"/>
        <path fill="none" stroke="rgb(52,101,164)" d="M 5751,10001 C 5751,10088 5728,10175 5684,10251 5640,10327 5577,10390 5501,10434 5425,10478 5338,10501 5251,10501 5163,10501 5076,10478 5000,10434 4924,10390 4861,10327 4817,10251 4773,10175 4750,10088 4750,10001 4750,9913 4773,9826 4817,9750 4861,9674 4924,9611 5000,9567 5076,9523 5163,9500 5251,9500 5338,9500 5425,9523 5501,9567 5577,9611 5640,9674 5684,9750 5728,9826 5751,9913 5751,10001 Z"/>
       </g>
      </g>
      <g class="com.sun.star.drawing.CustomShape">
       <g id="id7">
        <rect class="BoundingBox" stroke="none" fill="none" x="3249" y="7999" width="1004" height="1004"/>
        <path fill="rgb(0,169,51)" stroke="none" d="M 4251,8501 C 4251,8588 4228,8675 4184,8751 4140,8827 4077,8890 4001,8934 3925,8978 3838,9001 3751,9001 3663,9001 3576,8978 3500,8934 3424,8890 3361,8827 3317,8751 3273,8675 3250,8588 3250,8501 3250,8413 3273,8326 3317,8250 3361,8174 3424,8111 3500,8067 3576,8023 3663,8000 3750,8000 3838,8000 3925,8023 4001,8067 4077,8111 4140,8174 4184,8250 4228,8326 4251,8413 4251,8501 L 4251,8501 Z"/>
        <path fill="none" stroke="rgb(52,101,164)" d="M 4251,8501 C 4251,8588 4228,8675 4184,8751 4140,8827 4077,8890 4001,8934 3925,8978 3838,9001 3751,9001 3663,9001 3576,8978 3500,8934 3424,8890 3361,8827 3317,8751 3273,8675 3250,8588 3250,8501 3250,8413 3273,8326 3317,8250 3361,8174 3424,8111 3500,8067 3576,8023 3663,8000 3750,8000 3838,8000 3925,8023 4001,8067 4077,8111 4140,8174 4184,8250 4228,8326 4251,8413 4251,8501 Z"/>
       </g>
      </g>
      <g class="com.sun.star.drawing.CustomShape">
       <g id="id8">
        <rect class="BoundingBox" stroke="none" fill="none" x="6999" y="14749" width="1004" height="1004"/>
        <path fill="rgb(114,159,207)" stroke="none" d="M 8001,15251 C 8001,15338 7978,15425 7934,15501 7890,15577 7827,15640 7751,15684 7675,15728 7588,15751 7501,15751 7413,15751 7326,15728 7250,15684 7174,15640 7111,15577 7067,15501 7023,15425 7000,15338 7000,15251 7000,15163 7023,15076 7067,15000 7111,14924 7174,14861 7250,14817 7326,14773 7413,14750 7501,14750 7588,14750 7675,14773 7751,14817 7827,14861 7890,14924 7934,15000 7978,15076 8001,15163 8001,15251 L 8001,15251 Z"/>
        <path fill="none" stroke="rgb(52,101,164)" d="M 8001,15251 C 8001,15338 7978,15425 7934,15501 7890,15577 7827,15640 7751,15684 7675,15728 7588,15751 7501,15751 7413,15751 7326,15728 7250,15684 7174,15640 7111,15577 7067,15501 7023,15425 7000,15338 7000,15251 7000,15163 7023,15076 7067,15000 7111,14924 7174,14861 7250,14817 7326,14773 7413,14750 7501,14750 7588,14750 7675,14773 7751,14817 7827,14861 7890,14924 7934,15000 7978,15076 8001,15163 8001,15251 Z"/>
       </g>
      </g>
      <g class="com.sun.star.drawing.CustomShape">
       <g id="id9">
        <rect class="BoundingBox" stroke="none" fill="none" x="1973" y="2973" width="5055" height="10055"/>
        <path fill="none" stroke="rgb(0,0,0)" stroke-width="53" stroke-linejoin="round" d="M 4500,13000 L 2000,13000 2000,3000 7000,3000 7000,13000 4500,13000 Z"/>
       </g>
      </g>
      <g class="com.sun.star.drawing.CustomShape">
       <g id="id10">
        <rect class="BoundingBox" stroke="none" fill="none" x="2999" y="3999" width="1004" height="1004"/>
        <path fill="rgb(255,0,0)" stroke="none" d="M 4001,4501 C 4001,4588 3978,4675 3934,4751 3890,4827 3827,4890 3751,4934 3675,4978 3588,5001 3501,5001 3413,5001 3326,4978 3250,4934 3174,4890 3111,4827 3067,4751 3023,4675 3000,4588 3000,4501 3000,4413 3023,4326 3067,4250 3111,4174 3174,4111 3250,4067 3326,4023 3413,4000 3500,4000 3588,4000 3675,4023 3751,4067 3827,4111 3890,4174 3934,4250 3978,4326 4001,4413 4001,4500 L 4001,4501 Z"/>
        <path fill="none" stroke="rgb(52,101,164)" d="M 4001,4501 C 4001,4588 3978,4675 3934,4751 3890,4827 3827,4890 3751,4934 3675,4978 3588,5001 3501,5001 3413,5001 3326,4978 3250,4934 3174,4890 3111,4827 3067,4751 3023,4675 3000,4588 3000,4501 3000,4413 3023,4326 3067,4250 3111,4174 3174,4111 3250,4067 3326,4023 3413,4000 3500,4000 3588,4000 3675,4023 3751,4067 3827,4111 3890,4174 3934,4250 3978,4326 4001,4413 4001,4500 L 4001,4501 Z"/>
       </g>
      </g>
      <g class="com.sun.star.drawing.CustomShape">
       <g id="id11">
        <rect class="BoundingBox" stroke="none" fill="none" x="4999" y="4999" width="1004" height="1004"/>
        <path fill="rgb(128,0,128)" stroke="none" d="M 6001,5501 C 6001,5588 5978,5675 5934,5751 5890,5827 5827,5890 5751,5934 5675,5978 5588,6001 5501,6001 5413,6001 5326,5978 5250,5934 5174,5890 5111,5827 5067,5751 5023,5675 5000,5588 5000,5501 5000,5413 5023,5326 5067,5250 5111,5174 5174,5111 5250,5067 5326,5023 5413,5000 5501,5000 5588,5000 5675,5023 5751,5067 5827,5111 5890,5174 5934,5250 5978,5326 6001,5413 6001,5500 L 6001,5501 Z"/>
        <path fill="none" stroke="rgb(52,101,164)" d="M 6001,5501 C 6001,5588 5978,5675 5934,5751 5890,5827 5827,5890 5751,5934 5675,5978 5588,6001 5501,6001 5413,6001 5326,5978 5250,5934 5174,5890 5111,5827 5067,5751 5023,5675 5000,5588 5000,5501 5000,5413 5023,5326 5067,5250 5111,5174 5174,5111 5250,5067 5326,5023 5413,5000 5501,5000 5588,5000 5675,5023 5751,5067 5827,5111 5890,5174 5934,5250 5978,5326 6001,5413 6001,5500 L 6001,5501 Z"/>
       </g>
      </g>
      <g class="com.sun.star.drawing.CustomShape">
       <g id="id12">
        <rect class="BoundingBox" stroke="none" fill="none" x="4749" y="9499" width="1004" height="1004"/>
        <path fill="rgb(255,128,0)" stroke="none" d="M 5751,10001 C 5751,10088 5728,10175 5684,10251 5640,10327 5577,10390 5501,10434 5425,10478 5338,10501 5251,10501 5163,10501 5076,10478 5000,10434 4924,10390 4861,10327 4817,10251 4773,10175 4750,10088 4750,10001 4750,9913 4773,9826 4817,9750 4861,9674 4924,9611 5000,9567 5076,9523 5163,9500 5251,9500 5338,9500 5425,9523 5501,9567 5577,9611 5640,9674 5684,9750 5728,9826 5751,9913 5751,10001 L 5751,10001 Z"/>
        <path fill="none" stroke="rgb(52,101,164)" d="M 5751,10001 C 5751,10088 5728,10175 5684,10251 5640,10327 5577,10390 5501,10434 5425,10478 5338,10501 5251,10501 5163,10501 5076,10478 5000,10434 4924,10390 4861,10327 4817,10251 4773,10175 4750,10088 4750,10001 4750,9913 4773,9826 4817,9750 4861,9674 4924,9611 5000,9567 5076,9523 5163,9500 5251,9500 5338,9500 5425,9523 5501,9567 5577,9611 5640,9674 5684,9750 5728,9826 5751,9913 5751,10001 Z"/>
       </g>
      </g>
      <g class="com.sun.star.drawing.CustomShape">
       <g id="id13">
        <rect class="BoundingBox" stroke="none" fill="none" x="3249" y="7999" width="1004" height="1004"/>
        <path fill="rgb(0,169,51)" stroke="none" d="M 4251,8501 C 4251,8588 4228,8675 4184,8751 4140,8827 4077,8890 4001,8934 3925,8978 3838,9001 3751,9001 3663,9001 3576,8978 3500,8934 3424,8890 3361,8827 3317,8751 3273,8675 3250,8588 3250,8501 3250,8413 3273,8326 3317,8250 3361,8174 3424,8111 3500,8067 3576,8023 3663,8000 3750,8000 3838,8000 3925,8023 4001,8067 4077,8111 4140,8174 4184,8250 4228,8326 4251,8413 4251,8501 L 4251,8501 Z"/>
        <path fill="none" stroke="rgb(52,101,164)" d="M 4251,8501 C 4251,8588 4228,8675 4184,8751 4140,8827 4077,8890 4001,8934 3925,8978 3838,9001 3751,9001 3663,9001 3576,8978 3500,8934 3424,8890 3361,8827 3317,8751 3273,8675 3250,8588 3250,8501 3250,8413 3273,8326 3317,8250 3361,8174 3424,8111 3500,8067 3576,8023 3663,8000 3750,8000 3838,8000 3925,8023 4001,8067 4077,8111 4140,8174 4184,8250 4228,8326 4251,8413 4251,8501 Z"/>
       </g>
      </g>
      <g class="com.sun.star.drawing.CustomShape">
       <g id="id14">
        <rect class="BoundingBox" stroke="none" fill="none" x="7973" y="2973" width="5055" height="10055"/>
        <path fill="none" stroke="rgb(0,0,0)" stroke-width="53" stroke-linejoin="round" d="M 10500,13000 L 8000,13000 8000,3000 13000,3000 13000,13000 10500,13000 Z"/>
       </g>
      </g>
      <g class="com.sun.star.drawing.CustomShape">
       <g id="id15">
        <rect class="BoundingBox" stroke="none" fill="none" x="8999" y="3999" width="1004" height="1004"/>
        <path fill="rgb(255,0,0)" stroke="none" d="M 10001,4501 C 10001,4588 9978,4675 9934,4751 9890,4827 9827,4890 9751,4934 9675,4978 9588,5001 9501,5001 9413,5001 9326,4978 9250,4934 9174,4890 9111,4827 9067,4751 9023,4675 9000,4588 9000,4501 9000,4413 9023,4326 9067,4250 9111,4174 9174,4111 9250,4067 9326,4023 9413,4000 9501,4000 9588,4000 9675,4023 9751,4067 9827,4111 9890,4174 9934,4250 9978,4326 10001,4413 10001,4500 L 10001,4501 Z"/>
        <path fill="none" stroke="rgb(52,101,164)" d="M 10001,4501 C 10001,4588 9978,4675 9934,4751 9890,4827 9827,4890 9751,4934 9675,4978 9588,5001 9501,5001 9413,5001 9326,4978 9250,4934 9174,4890 9111,4827 9067,4751 9023,4675 9000,4588 9000,4501 9000,4413 9023,4326 9067,4250 9111,4174 9174,4111 9250,4067 9326,4023 9413,4000 9501,4000 9588,4000 9675,4023 9751,4067 9827,4111 9890,4174 9934,4250 9978,4326 10001,4413 10001,4500 L 10001,4501 Z"/>
       </g>
      </g>
      <g class="com.sun.star.drawing.CustomShape">
       <g id="id16">
        <rect class="BoundingBox" stroke="none" fill="none" x="10999" y="4999" width="1004" height="1004"/>
        <path fill="rgb(128,0,128)" stroke="none" d="M 12001,5501 C 12001,5588 11978,5675 11934,5751 11890,5827 11827,5890 11751,5934 11675,5978 11588,6001 11501,6001 11413,6001 11326,5978 11250,5934 11174,5890 11111,5827 11067,5751 11023,5675 11000,5588 11000,5501 11000,5413 11023,5326 11067,5250 11111,5174 11174,5111 11250,5067 11326,5023 11413,5000 11501,5000 11588,5000 11675,5023 11751,5067 11827,5111 11890,5174 11934,5250 11978,5326 12001,5413 12001,5500 L 12001,5501 Z"/>
        <path fill="none" stroke="rgb(52,101,164)" d="M 12001,5501 C 12001,5588 11978,5675 11934,5751 11890,5827 11827,5890 11751,5934 11675,5978 11588,6001 11501,6001 11413,6001 11326,5978 11250,5934 11174,5890 11111,5827 11067,5751 11023,5675 11000,5588 11000,5501 11000,5413 11023,5326 11067,5250 11111,5174 11174,5111 11250,5067 11326,5023 11413,5000 11501,5000 11588,5000 11675,5023 11751,5067 11827,5111 11890,5174 11934,5250 11978,5326 12001,5413 12001,5500 L 12001,5501 Z"/>
       </g>
      </g>
      <g class="com.sun.star.drawing.CustomShape">
       <g id="id17">
        <rect class="BoundingBox" stroke="none" fill="none" x="10749" y="9499" width="1004" height="1004"/>
        <path fill="rgb(255,128,0)" stroke="none" d="M 11751,10001 C 11751,10088 11728,10175 11684,10251 11640,10327 11577,10390 11501,10434 11425,10478 11338,10501 11251,10501 11163,10501 11076,10478 11000,10434 10924,10390 10861,10327 10817,10251 10773,10175 10750,10088 10750,10001 10750,9913 10773,9826 10817,9750 10861,9674 10924,9611 11000,9567 11076,9523 11163,9500 11251,9500 11338,9500 11425,9523 11501,9567 11577,9611 11640,9674 11684,9750 11728,9826 11751,9913 11751,10001 L 11751,10001 Z"/>
        <path fill="none" stroke="rgb(52,101,164)" d="M 11751,10001 C 11751,10088 11728,10175 11684,10251 11640,10327 11577,10390 11501,10434 11425,10478 11338,10501 11251,10501 11163,10501 11076,10478 11000,10434 10924,10390 10861,10327 10817,10251 10773,10175 10750,10088 10750,10001 10750,9913 10773,9826 10817,9750 10861,9674 10924,9611 11000,9567 11076,9523 11163,9500 11251,9500 11338,9500 11425,9523 11501,9567 11577,9611 11640,9674 11684,9750 11728,9826 11751,9913 11751,10001 Z"/>
       </g>
      </g>
      <g class="com.sun.star.drawing.CustomShape">
       <g id="id18">
        <rect class="BoundingBox" stroke="none" fill="none" x="9249" y="7999" width="1004" height="1004"/>
        <path fill="rgb(0,169,51)" stroke="none" d="M 10251,8501 C 10251,8588 10228,8675 10184,8751 10140,8827 10077,8890 10001,8934 9925,8978 9838,9001 9751,9001 9663,9001 9576,8978 9500,8934 9424,8890 9361,8827 9317,8751 9273,8675 9250,8588 9250,8501 9250,8413 9273,8326 9317,8250 9361,8174 9424,8111 9500,8067 9576,8023 9663,8000 9751,8000 9838,8000 9925,8023 10001,8067 10077,8111 10140,8174 10184,8250 10228,8326 10251,8413 10251,8501 L 10251,8501 Z"/>
        <path fill="none" stroke="rgb(52,101,164)" d="M 10251,8501 C 10251,8588 10228,8675 10184,8751 10140,8827 10077,8890 10001,8934 9925,8978 9838,9001 9751,9001 9663,9001 9576,8978 9500,8934 9424,8890 9361,8827 9317,8751 9273,8675 9250,8588 9250,8501 9250,8413 9273,8326 9317,8250 9361,8174 9424,8111 9500,8067 9576,8023 9663,8000 9751,8000 9838,8000 9925,8023 10001,8067 10077,8111 10140,8174 10184,8250 10228,8326 10251,8413 10251,8501 Z"/>
       </g>
      </g>
      <g class="com.sun.star.drawing.CustomShape">
       <g id="id19">
        <rect class="BoundingBox" stroke="none" fill="none" x="7973" y="2973" width="5055" height="10055"/>
        <path fill="none" stroke="rgb(0,0,0)" stroke-width="53" stroke-linejoin="round" d="M 10500,13000 L 8000,13000 8000,3000 13000,3000 13000,13000 10500,13000 Z"/>
       </g>
      </g>
      <g class="com.sun.star.drawing.CustomShape">
       <g id="id20">
        <rect class="BoundingBox" stroke="none" fill="none" x="8999" y="3999" width="1004" height="1004"/>
        <path fill="rgb(255,0,0)" stroke="none" d="M 10001,4501 C 10001,4588 9978,4675 9934,4751 9890,4827 9827,4890 9751,4934 9675,4978 9588,5001 9501,5001 9413,5001 9326,4978 9250,4934 9174,4890 9111,4827 9067,4751 9023,4675 9000,4588 9000,4501 9000,4413 9023,4326 9067,4250 9111,4174 9174,4111 9250,4067 9326,4023 9413,4000 9501,4000 9588,4000 9675,4023 9751,4067 9827,4111 9890,4174 9934,4250 9978,4326 10001,4413 10001,4500 L 10001,4501 Z"/>
        <path fill="none" stroke="rgb(52,101,164)" d="M 10001,4501 C 10001,4588 9978,4675 9934,4751 9890,4827 9827,4890 9751,4934 9675,4978 9588,5001 9501,5001 9413,5001 9326,4978 9250,4934 9174,4890 9111,4827 9067,4751 9023,4675 9000,4588 9000,4501 9000,4413 9023,4326 9067,4250 9111,4174 9174,4111 9250,4067 9326,4023 9413,4000 9501,4000 9588,4000 9675,4023 9751,4067 9827,4111 9890,4174 9934,4250 9978,4326 10001,4413 10001,4500 L 10001,4501 Z"/>
       </g>
      </g>
      <g class="com.sun.star.drawing.CustomShape">
       <g id="id21">
        <rect class="BoundingBox" stroke="none" fill="none" x="10999" y="4999" width="1004" height="1004"/>
        <path fill="rgb(128,0,128)" stroke="none" d="M 12001,5501 C 12001,5588 11978,5675 11934,5751 11890,5827 11827,5890 11751,5934 11675,5978 11588,6001 11501,6001 11413,6001 11326,5978 11250,5934 11174,5890 11111,5827 11067,5751 11023,5675 11000,5588 11000,5501 11000,5413 11023,5326 11067,5250 11111,5174 11174,5111 11250,5067 11326,5023 11413,5000 11501,5000 11588,5000 11675,5023 11751,5067 11827,5111 11890,5174 11934,5250 11978,5326 12001,5413 12001,5500 L 12001,5501 Z"/>
        <path fill="none" stroke="rgb(52,101,164)" d="M 12001,5501 C 12001,5588 11978,5675 11934,5751 11890,5827 11827,5890 11751,5934 11675,5978 11588,6001 11501,6001 11413,6001 11326,5978 11250,5934 11174,5890 11111,5827 11067,5751 11023,5675 11000,5588 11000,5501 11000,5413 11023,5326 11067,5250 11111,5174 11174,5111 11250,5067 11326,5023 11413,5000 11501,5000 11588,5000 11675,5023 11751,5067 11827,5111 11890,5174 11934,5250 11978,5326 12001,5413 12001,5500 L 12001,5501 Z"/>
       </g>
      </g>
      <g class="com.sun.star.drawing.CustomShape">
       <g id="id22">
        <rect class="BoundingBox" stroke="none" fill="none" x="10749" y="9499" width="1004" height="1004"/>
        <path fill="rgb(255,128,0)" stroke="none" d="M 11751,10001 C 11751,10088 11728,10175 11684,10251 11640,10327 11577,10390 11501,10434 11425,10478 11338,10501 11251,10501 11163,10501 11076,10478 11000,10434 10924,10390 10861,10327 10817,10251 10773,10175 10750,10088 10750,10001 10750,9913 10773,9826 10817,9750 10861,9674 10924,9611 11000,9567 11076,9523 11163,9500 11251,9500 11338,9500 11425,9523 11501,9567 11577,9611 11640,9674 11684,9750 11728,9826 11751,9913 11751,10001 L 11751,10001 Z"/>
        <path fill="none" stroke="rgb(52,101,164)" d="M 11751,10001 C 11751,10088 11728,10175 11684,10251 11640,10327 11577,10390 11501,10434 11425,10478 11338,10501 11251,10501 11163,10501 11076,10478 11000,10434 10924,10390 10861,10327 10817,10251 10773,10175 10750,10088 10750,10001 10750,9913 10773,9826 10817,9750 10861,9674 10924,9611 11000,9567 11076,9523 11163,9500 11251,9500 11338,9500 11425,9523 11501,9567 11577,9611 11640,9674 11684,9750 11728,9826 11751,9913 11751,10001 Z"/>
       </g>
      </g>
      <g class="com.sun.star.drawing.CustomShape">
       <g id="id23">
        <rect class="BoundingBox" stroke="none" fill="none" x="9249" y="7999" width="1004" height="1004"/>
        <path fill="rgb(0,169,51)" stroke="none" d="M 10251,8501 C 10251,8588 10228,8675 10184,8751 10140,8827 10077,8890 10001,8934 9925,8978 9838,9001 9751,9001 9663,9001 9576,8978 9500,8934 9424,8890 9361,8827 9317,8751 9273,8675 9250,8588 9250,8501 9250,8413 9273,8326 9317,8250 9361,8174 9424,8111 9500,8067 9576,8023 9663,8000 9751,8000 9838,8000 9925,8023 10001,8067 10077,8111 10140,8174 10184,8250 10228,8326 10251,8413 10251,8501 L 10251,8501 Z"/>
        <path fill="none" stroke="rgb(52,101,164)" d="M 10251,8501 C 10251,8588 10228,8675 10184,8751 10140,8827 10077,8890 10001,8934 9925,8978 9838,9001 9751,9001 9663,9001 9576,8978 9500,8934 9424,8890 9361,8827 9317,8751 9273,8675 9250,8588 9250,8501 9250,8413 9273,8326 9317,8250 9361,8174 9424,8111 9500,8067 9576,8023 9663,8000 9751,8000 9838,8000 9925,8023 10001,8067 10077,8111 10140,8174 10184,8250 10228,8326 10251,8413 10251,8501 Z"/>
       </g>
      </g>
      <g class="com.sun.star.drawing.CustomShape">
       <g id="id24">
        <rect class="BoundingBox" stroke="none" fill="none" x="13973" y="2973" width="5055" height="10055"/>
        <path fill="none" stroke="rgb(0,0,0)" stroke-width="53" stroke-linejoin="round" d="M 16500,13000 L 14000,13000 14000,3000 19000,3000 19000,13000 16500,13000 Z"/>
       </g>
      </g>
      <g class="com.sun.star.drawing.CustomShape">
       <g id="id25">
        <rect class="BoundingBox" stroke="none" fill="none" x="14999" y="3999" width="1004" height="1004"/>
        <path fill="rgb(255,0,0)" stroke="none" d="M 16001,4501 C 16001,4588 15978,4675 15934,4751 15890,4827 15827,4890 15751,4934 15675,4978 15588,5001 15501,5001 15413,5001 15326,4978 15250,4934 15174,4890 15111,4827 15067,4751 15023,4675 15000,4588 15000,4501 15000,4413 15023,4326 15067,4250 15111,4174 15174,4111 15250,4067 15326,4023 15413,4000 15501,4000 15588,4000 15675,4023 15751,4067 15827,4111 15890,4174 15934,4250 15978,4326 16001,4413 16001,4500 L 16001,4501 Z"/>
        <path fill="none" stroke="rgb(52,101,164)" d="M 16001,4501 C 16001,4588 15978,4675 15934,4751 15890,4827 15827,4890 15751,4934 15675,4978 15588,5001 15501,5001 15413,5001 15326,4978 15250,4934 15174,4890 15111,4827 15067,4751 15023,4675 15000,4588 15000,4501 15000,4413 15023,4326 15067,4250 15111,4174 15174,4111 15250,4067 15326,4023 15413,4000 15501,4000 15588,4000 15675,4023 15751,4067 15827,4111 15890,4174 15934,4250 15978,4326 16001,4413 16001,4500 L 16001,4501 Z"/>
       </g>
      </g>
      <g class="com.sun.star.drawing.CustomShape">
       <g id="id26">
        <rect class="BoundingBox" stroke="none" fill="none" x="16999" y="4999" width="1004" height="1004"/>
        <path fill="rgb(128,0,128)" stroke="none" d="M 18001,5501 C 18001,5588 17978,5675 17934,5751 17890,5827 17827,5890 17751,5934 17675,5978 17588,6001 17501,6001 17413,6001 17326,5978 17250,5934 17174,5890 17111,5827 17067,5751 17023,5675 17000,5588 17000,5501 17000,5413 17023,5326 17067,5250 17111,5174 17174,5111 17250,5067 17326,5023 17413,5000 17501,5000 17588,5000 17675,5023 17751,5067 17827,5111 17890,5174 17934,5250 17978,5326 18001,5413 18001,5500 L 18001,5501 Z"/>
        <path fill="none" stroke="rgb(52,101,164)" d="M 18001,5501 C 18001,5588 17978,5675 17934,5751 17890,5827 17827,5890 17751,5934 17675,5978 17588,6001 17501,6001 17413,6001 17326,5978 17250,5934 17174,5890 17111,5827 17067,5751 17023,5675 17000,5588 17000,5501 17000,5413 17023,5326 17067,5250 17111,5174 17174,5111 17250,5067 17326,5023 17413,5000 17501,5000 17588,5000 17675,5023 17751,5067 17827,5111 17890,5174 17934,5250 17978,5326 18001,5413 18001,5500 L 18001,5501 Z"/>
       </g>
      </g>
      <g class="com.sun.star.drawing.CustomShape">
       <g id="id27">
        <rect class="BoundingBox" stroke="none" fill="none" x="16749" y="9499" width="1004" height="1004"/>
        <path fill="rgb(255,128,0)" stroke="none" d="M 17751,10001 C 17751,10088 17728,10175 17684,10251 17640,10327 17577,10390 17501,10434 17425,10478 17338,10501 17251,10501 17163,10501 17076,10478 17000,10434 16924,10390 16861,10327 16817,10251 16773,10175 16750,10088 16750,10001 16750,9913 16773,9826 16817,9750 16861,9674 16924,9611 17000,9567 17076,9523 17163,9500 17251,9500 17338,9500 17425,9523 17501,9567 17577,9611 17640,9674 17684,9750 17728,9826 17751,9913 17751,10001 L 17751,10001 Z"/>
        <path fill="none" stroke="rgb(52,101,164)" d="M 17751,10001 C 17751,10088 17728,10175 17684,10251 17640,10327 17577,10390 17501,10434 17425,10478 17338,10501 17251,10501 17163,10501 17076,10478 17000,10434 16924,10390 16861,10327 16817,10251 16773,10175 16750,10088 16750,10001 16750,9913 16773,9826 16817,9750 16861,9674 16924,9611 17000,9567 17076,9523 17163,9500 17251,9500 17338,9500 17425,9523 17501,9567 17577,9611 17640,9674 17684,9750 17728,9826 17751,9913 17751,10001 Z"/>
       </g>
      </g>
      <g class="com.sun.star.drawing.CustomShape">
       <g id="id28">
        <rect class="BoundingBox" stroke="none" fill="none" x="15249" y="7999" width="1004" height="1004"/>
        <path fill="rgb(0,169,51)" stroke="none" d="M 16251,8501 C 16251,8588 16228,8675 16184,8751 16140,8827 16077,8890 16001,8934 15925,8978 15838,9001 15751,9001 15663,9001 15576,8978 15500,8934 15424,8890 15361,8827 15317,8751 15273,8675 15250,8588 15250,8501 15250,8413 15273,8326 15317,8250 15361,8174 15424,8111 15500,8067 15576,8023 15663,8000 15751,8000 15838,8000 15925,8023 16001,8067 16077,8111 16140,8174 16184,8250 16228,8326 16251,8413 16251,8501 L 16251,8501 Z"/>
        <path fill="none" stroke="rgb(52,101,164)" d="M 16251,8501 C 16251,8588 16228,8675 16184,8751 16140,8827 16077,8890 16001,8934 15925,8978 15838,9001 15751,9001 15663,9001 15576,8978 15500,8934 15424,8890 15361,8827 15317,8751 15273,8675 15250,8588 15250,8501 15250,8413 15273,8326 15317,8250 15361,8174 15424,8111 15500,8067 15576,8023 15663,8000 15751,8000 15838,8000 15925,8023 16001,8067 16077,8111 16140,8174 16184,8250 16228,8326 16251,8413 16251,8501 Z"/>
       </g>
      </g>
      <g class="com.sun.star.drawing.CustomShape">
       <g id="id29">
        <rect class="BoundingBox" stroke="none" fill="none" x="13973" y="2973" width="5055" height="10055"/>
        <path fill="none" stroke="rgb(0,0,0)" stroke-width="53" stroke-linejoin="round" d="M 16500,13000 L 14000,13000 14000,3000 19000,3000 19000,13000 16500,13000 Z"/>
       </g>
      </g>
      <g class="com.sun.star.drawing.CustomShape">
       <g id="id30">
        <rect class="BoundingBox" stroke="none" fill="none" x="14999" y="3999" width="1004" height="1004"/>
        <path fill="rgb(255,0,0)" stroke="none" d="M 16001,4501 C 16001,4588 15978,4675 15934,4751 15890,4827 15827,4890 15751,4934 15675,4978 15588,5001 15501,5001 15413,5001 15326,4978 15250,4934 15174,4890 15111,4827 15067,4751 15023,4675 15000,4588 15000,4501 15000,4413 15023,4326 15067,4250 15111,4174 15174,4111 15250,4067 15326,4023 15413,4000 15501,4000 15588,4000 15675,4023 15751,4067 15827,4111 15890,4174 15934,4250 15978,4326 16001,4413 16001,4500 L 16001,4501 Z"/>
        <path fill="none" stroke="rgb(52,101,164)" d="M 16001,4501 C 16001,4588 15978,4675 15934,4751 15890,4827 15827,4890 15751,4934 15675,4978 15588,5001 15501,5001 15413,5001 15326,4978 15250,4934 15174,4890 15111,4827 15067,4751 15023,4675 15000,4588 15000,4501 15000,4413 15023,4326 15067,4250 15111,4174 15174,4111 15250,4067 15326,4023 15413,4000 15501,4000 15588,4000 15675,4023 15751,4067 15827,4111 15890,4174 15934,4250 15978,4326 16001,4413 16001,4500 L 16001,4501 Z"/>
       </g>
      </g>
      <g class="com.sun.star.drawing.CustomShape">
       <g id="id31">
        <rect class="BoundingBox" stroke="none" fill="none" x="16999" y="4999" width="1004" height="1004"/>
        <path fill="rgb(128,0,128)" stroke="none" d="M 18001,5501 C 18001,5588 17978,5675 17934,5751 17890,5827 17827,5890 17751,5934 17675,5978 17588,6001 17501,6001 17413,6001 17326,5978 17250,5934 17174,5890 17111,5827 17067,5751 17023,5675 17000,5588 17000,5501 17000,5413 17023,5326 17067,5250 17111,5174 17174,5111 17250,5067 17326,5023 17413,5000 17501,5000 17588,5000 17675,5023 17751,5067 17827,5111 17890,5174 17934,5250 17978,5326 18001,5413 18001,5500 L 18001,5501 Z"/>
        <path fill="none" stroke="rgb(52,101,164)" d="M 18001,5501 C 18001,5588 17978,5675 17934,5751 17890,5827 17827,5890 17751,5934 17675,5978 17588,6001 17501,6001 17413,6001 17326,5978 17250,5934 17174,5890 17111,5827 17067,5751 17023,5675 17000,5588 17000,5501 17000,5413 17023,5326 17067,5250 17111,5174 17174,5111 17250,5067 17326,5023 17413,5000 17501,5000 17588,5000 17675,5023 17751,5067 17827,5111 17890,5174 17934,5250 17978,5326 18001,5413 18001,5500 L 18001,5501 Z"/>
       </g>
      </g>
      <g class="com.sun.star.drawing.CustomShape">
       <g id="id32">
        <rect class="BoundingBox" stroke="none" fill="none" x="16749" y="9499" width="1004" height="1004"/>
        <path fill="rgb(255,128,0)" stroke="none" d="M 17751,10001 C 17751,10088 17728,10175 17684,10251 17640,10327 17577,10390 17501,10434 17425,10478 17338,10501 17251,10501 17163,10501 17076,10478 17000,10434 16924,10390 16861,10327 16817,10251 16773,10175 16750,10088 16750,10001 16750,9913 16773,9826 16817,9750 16861,9674 16924,9611 17000,9567 17076,9523 17163,9500 17251,9500 17338,9500 17425,9523 17501,9567 17577,9611 17640,9674 17684,9750 17728,9826 17751,9913 17751,10001 L 17751,10001 Z"/>
        <path fill="none" stroke="rgb(52,101,164)" d="M 17751,10001 C 17751,10088 17728,10175 17684,10251 17640,10327 17577,10390 17501,10434 17425,10478 17338,10501 17251,10501 17163,10501 17076,10478 17000,10434 16924,10390 16861,10327 16817,10251 16773,10175 16750,10088 16750,10001 16750,9913 16773,9826 16817,9750 16861,9674 16924,9611 17000,9567 17076,9523 17163,9500 17251,9500 17338,9500 17425,9523 17501,9567 17577,9611 17640,9674 17684,9750 17728,9826 17751,9913 17751,10001 Z"/>
       </g>
      </g>
      <g class="com.sun.star.drawing.CustomShape">
       <g id="id33">
        <rect class="BoundingBox" stroke="none" fill="none" x="15249" y="7999" width="1004" height="1004"/>
        <path fill="rgb(0,169,51)" stroke="none" d="M 16251,8501 C 16251,8588 16228,8675 16184,8751 16140,8827 16077,8890 16001,8934 15925,8978 15838,9001 15751,9001 15663,9001 15576,8978 15500,8934 15424,8890 15361,8827 15317,8751 15273,8675 15250,8588 15250,8501 15250,8413 15273,8326 15317,8250 15361,8174 15424,8111 15500,8067 15576,8023 15663,8000 15751,8000 15838,8000 15925,8023 16001,8067 16077,8111 16140,8174 16184,8250 16228,8326 16251,8413 16251,8501 L 16251,8501 Z"/>
        <path fill="none" stroke="rgb(52,101,164)" d="M 16251,8501 C 16251,8588 16228,8675 16184,8751 16140,8827 16077,8890 16001,8934 15925,8978 15838,9001 15751,9001 15663,9001 15576,8978 15500,8934 15424,8890 15361,8827 15317,8751 15273,8675 15250,8588 15250,8501 15250,8413 15273,8326 15317,8250 15361,8174 15424,8111 15500,8067 15576,8023 15663,8000 15751,8000 15838,8000 15925,8023 16001,8067 16077,8111 16140,8174 16184,8250 16228,8326 16251,8413 16251,8501 Z"/>
       </g>
      </g>
      <g class="com.sun.star.drawing.CustomShape">
       <g id="id34">
        <rect class="BoundingBox" stroke="none" fill="none" x="19973" y="2973" width="5055" height="10055"/>
        <path fill="none" stroke="rgb(0,0,0)" stroke-width="53" stroke-linejoin="round" d="M 22500,13000 L 20000,13000 20000,3000 25000,3000 25000,13000 22500,13000 Z"/>
       </g>
      </g>
      <g class="com.sun.star.drawing.CustomShape">
       <g id="id35">
        <rect class="BoundingBox" stroke="none" fill="none" x="20999" y="3999" width="1004" height="1004"/>
        <path fill="rgb(255,0,0)" stroke="none" d="M 22001,4501 C 22001,4588 21978,4675 21934,4751 21890,4827 21827,4890 21751,4934 21675,4978 21588,5001 21501,5001 21413,5001 21326,4978 21250,4934 21174,4890 21111,4827 21067,4751 21023,4675 21000,4588 21000,4501 21000,4413 21023,4326 21067,4250 21111,4174 21174,4111 21250,4067 21326,4023 21413,4000 21501,4000 21588,4000 21675,4023 21751,4067 21827,4111 21890,4174 21934,4250 21978,4326 22001,4413 22001,4500 L 22001,4501 Z"/>
        <path fill="none" stroke="rgb(52,101,164)" d="M 22001,4501 C 22001,4588 21978,4675 21934,4751 21890,4827 21827,4890 21751,4934 21675,4978 21588,5001 21501,5001 21413,5001 21326,4978 21250,4934 21174,4890 21111,4827 21067,4751 21023,4675 21000,4588 21000,4501 21000,4413 21023,4326 21067,4250 21111,4174 21174,4111 21250,4067 21326,4023 21413,4000 21501,4000 21588,4000 21675,4023 21751,4067 21827,4111 21890,4174 21934,4250 21978,4326 22001,4413 22001,4500 L 22001,4501 Z"/>
       </g>
      </g>
      <g class="com.sun.star.drawing.CustomShape">
       <g id="id36">
        <rect class="BoundingBox" stroke="none" fill="none" x="22999" y="4999" width="1004" height="1004"/>
        <path fill="rgb(128,0,128)" stroke="none" d="M 24001,5501 C 24001,5588 23978,5675 23934,5751 23890,5827 23827,5890 23751,5934 23675,5978 23588,6001 23501,6001 23413,6001 23326,5978 23250,5934 23174,5890 23111,5827 23067,5751 23023,5675 23000,5588 23000,5501 23000,5413 23023,5326 23067,5250 23111,5174 23174,5111 23250,5067 23326,5023 23413,5000 23501,5000 23588,5000 23675,5023 23751,5067 23827,5111 23890,5174 23934,5250 23978,5326 24001,5413 24001,5500 L 24001,5501 Z"/>
        <path fill="none" stroke="rgb(52,101,164)" d="M 24001,5501 C 24001,5588 23978,5675 23934,5751 23890,5827 23827,5890 23751,5934 23675,5978 23588,6001 23501,6001 23413,6001 23326,5978 23250,5934 23174,5890 23111,5827 23067,5751 23023,5675 23000,5588 23000,5501 23000,5413 23023,5326 23067,5250 23111,5174 23174,5111 23250,5067 23326,5023 23413,5000 23501,5000 23588,5000 23675,5023 23751,5067 23827,5111 23890,5174 23934,5250 23978,5326 24001,5413 24001,5500 L 24001,5501 Z"/>
       </g>
      </g>
      <g class="com.sun.star.drawing.CustomShape">
       <g id="id37">
        <rect class="BoundingBox" stroke="none" fill="none" x="22749" y="9499" width="1004" height="1004"/>
        <path fill="rgb(255,128,0)" stroke="none" d="M 23751,10001 C 23751,10088 23728,10175 23684,10251 23640,10327 23577,10390 23501,10434 23425,10478 23338,10501 23251,10501 23163,10501 23076,10478 23000,10434 22924,10390 22861,10327 22817,10251 22773,10175 22750,10088 22750,10001 22750,9913 22773,9826 22817,9750 22861,9674 22924,9611 23000,9567 23076,9523 23163,9500 23251,9500 23338,9500 23425,9523 23501,9567 23577,9611 23640,9674 23684,9750 23728,9826 23751,9913 23751,10001 L 23751,10001 Z"/>
        <path fill="none" stroke="rgb(52,101,164)" d="M 23751,10001 C 23751,10088 23728,10175 23684,10251 23640,10327 23577,10390 23501,10434 23425,10478 23338,10501 23251,10501 23163,10501 23076,10478 23000,10434 22924,10390 22861,10327 22817,10251 22773,10175 22750,10088 22750,10001 22750,9913 22773,9826 22817,9750 22861,9674 22924,9611 23000,9567 23076,9523 23163,9500 23251,9500 23338,9500 23425,9523 23501,9567 23577,9611 23640,9674 23684,9750 23728,9826 23751,9913 23751,10001 Z"/>
       </g>
      </g>
      <g class="com.sun.star.drawing.CustomShape">
       <g id="id38">
        <rect class="BoundingBox" stroke="none" fill="none" x="21249" y="7999" width="1004" height="1004"/>
        <path fill="rgb(0,169,51)" stroke="none" d="M 22251,8501 C 22251,8588 22228,8675 22184,8751 22140,8827 22077,8890 22001,8934 21925,8978 21838,9001 21751,9001 21663,9001 21576,8978 21500,8934 21424,8890 21361,8827 21317,8751 21273,8675 21250,8588 21250,8501 21250,8413 21273,8326 21317,8250 21361,8174 21424,8111 21500,8067 21576,8023 21663,8000 21751,8000 21838,8000 21925,8023 22001,8067 22077,8111 22140,8174 22184,8250 22228,8326 22251,8413 22251,8501 L 22251,8501 Z"/>
        <path fill="none" stroke="rgb(52,101,164)" d="M 22251,8501 C 22251,8588 22228,8675 22184,8751 22140,8827 22077,8890 22001,8934 21925,8978 21838,9001 21751,9001 21663,9001 21576,8978 21500,8934 21424,8890 21361,8827 21317,8751 21273,8675 21250,8588 21250,8501 21250,8413 21273,8326 21317,8250 21361,8174 21424,8111 21500,8067 21576,8023 21663,8000 21751,8000 21838,8000 21925,8023 22001,8067 22077,8111 22140,8174 22184,8250 22228,8326 22251,8413 22251,8501 Z"/>
       </g>
      </g>
      <g class="com.sun.star.drawing.CustomShape">
       <g id="id39">
        <rect class="BoundingBox" stroke="none" fill="none" x="19973" y="2973" width="5055" height="10055"/>
        <path fill="none" stroke="rgb(0,0,0)" stroke-width="53" stroke-linejoin="round" d="M 22500,13000 L 20000,13000 20000,3000 25000,3000 25000,13000 22500,13000 Z"/>
       </g>
      </g>
      <g class="com.sun.star.drawing.CustomShape">
       <g id="id40">
        <rect class="BoundingBox" stroke="none" fill="none" x="20999" y="3999" width="1004" height="1004"/>
        <path fill="rgb(255,0,0)" stroke="none" d="M 22001,4501 C 22001,4588 21978,4675 21934,4751 21890,4827 21827,4890 21751,4934 21675,4978 21588,5001 21501,5001 21413,5001 21326,4978 21250,4934 21174,4890 21111,4827 21067,4751 21023,4675 21000,4588 21000,4501 21000,4413 21023,4326 21067,4250 21111,4174 21174,4111 21250,4067 21326,4023 21413,4000 21501,4000 21588,4000 21675,4023 21751,4067 21827,4111 21890,4174 21934,4250 21978,4326 22001,4413 22001,4500 L 22001,4501 Z"/>
        <path fill="none" stroke="rgb(52,101,164)" d="M 22001,4501 C 22001,4588 21978,4675 21934,4751 21890,4827 21827,4890 21751,4934 21675,4978 21588,5001 21501,5001 21413,5001 21326,4978 21250,4934 21174,4890 21111,4827 21067,4751 21023,4675 21000,4588 21000,4501 21000,4413 21023,4326 21067,4250 21111,4174 21174,4111 21250,4067 21326,4023 21413,4000 21501,4000 21588,4000 21675,4023 21751,4067 21827,4111 21890,4174 21934,4250 21978,4326 22001,4413 22001,4500 L 22001,4501 Z"/>
       </g>
      </g>
      <g class="com.sun.star.drawing.CustomShape">
       <g id="id41">
        <rect class="BoundingBox" stroke="none" fill="none" x="22999" y="4999" width="1004" height="1004"/>
        <path fill="rgb(128,0,128)" stroke="none" d="M 24001,5501 C 24001,5588 23978,5675 23934,5751 23890,5827 23827,5890 23751,5934 23675,5978 23588,6001 23501,6001 23413,6001 23326,5978 23250,5934 23174,5890 23111,5827 23067,5751 23023,5675 23000,5588 23000,5501 23000,5413 23023,5326 23067,5250 23111,5174 23174,5111 23250,5067 23326,5023 23413,5000 23501,5000 23588,5000 23675,5023 23751,5067 23827,5111 23890,5174 23934,5250 23978,5326 24001,5413 24001,5500 L 24001,5501 Z"/>
        <path fill="none" stroke="rgb(52,101,164)" d="M 24001,5501 C 24001,5588 23978,5675 23934,5751 23890,5827 23827,5890 23751,5934 23675,5978 23588,6001 23501,6001 23413,6001 23326,5978 23250,5934 23174,5890 23111,5827 23067,5751 23023,5675 23000,5588 23000,5501 23000,5413 23023,5326 23067,5250 23111,5174 23174,5111 23250,5067 23326,5023 23413,5000 23501,5000 23588,5000 23675,5023 23751,5067 23827,5111 23890,5174 23934,5250 23978,5326 24001,5413 24001,5500 L 24001,5501 Z"/>
       </g>
      </g>
      <g class="com.sun.star.drawing.CustomShape">
       <g id="id42">
        <rect class="BoundingBox" stroke="none" fill="none" x="22749" y="9499" width="1004" height="1004"/>
        <path fill="rgb(255,128,0)" stroke="none" d="M 23751,10001 C 23751,10088 23728,10175 23684,10251 23640,10327 23577,10390 23501,10434 23425,10478 23338,10501 23251,10501 23163,10501 23076,10478 23000,10434 22924,10390 22861,10327 22817,10251 22773,10175 22750,10088 22750,10001 22750,9913 22773,9826 22817,9750 22861,9674 22924,9611 23000,9567 23076,9523 23163,9500 23251,9500 23338,9500 23425,9523 23501,9567 23577,9611 23640,9674 23684,9750 23728,9826 23751,9913 23751,10001 L 23751,10001 Z"/>
        <path fill="none" stroke="rgb(52,101,164)" d="M 23751,10001 C 23751,10088 23728,10175 23684,10251 23640,10327 23577,10390 23501,10434 23425,10478 23338,10501 23251,10501 23163,10501 23076,10478 23000,10434 22924,10390 22861,10327 22817,10251 22773,10175 22750,10088 22750,10001 22750,9913 22773,9826 22817,9750 22861,9674 22924,9611 23000,9567 23076,9523 23163,9500 23251,9500 23338,9500 23425,9523 23501,9567 23577,9611 23640,9674 23684,9750 23728,9826 23751,9913 23751,10001 Z"/>
       </g>
      </g>
      <g class="com.sun.star.drawing.CustomShape">
       <g id="id43">
        <rect class="BoundingBox" stroke="none" fill="none" x="21249" y="7999" width="1004" height="1004"/>
        <path fill="rgb(0,169,51)" stroke="none" d="M 22251,8501 C 22251,8588 22228,8675 22184,8751 22140,8827 22077,8890 22001,8934 21925,8978 21838,9001 21751,9001 21663,9001 21576,8978 21500,8934 21424,8890 21361,8827 21317,8751 21273,8675 21250,8588 21250,8501 21250,8413 21273,8326 21317,8250 21361,8174 21424,8111 21500,8067 21576,8023 21663,8000 21751,8000 21838,8000 21925,8023 22001,8067 22077,8111 22140,8174 22184,8250 22228,8326 22251,8413 22251,8501 L 22251,8501 Z"/>
        <path fill="none" stroke="rgb(52,101,164)" d="M 22251,8501 C 22251,8588 22228,8675 22184,8751 22140,8827 22077,8890 22001,8934 21925,8978 21838,9001 21751,9001 21663,9001 21576,8978 21500,8934 21424,8890 21361,8827 21317,8751 21273,8675 21250,8588 21250,8501 21250,8413 21273,8326 21317,8250 21361,8174 21424,8111 21500,8067 21576,8023 21663,8000 21751,8000 21838,8000 21925,8023 22001,8067 22077,8111 22140,8174 22184,8250 22228,8326 22251,8413 22251,8501 Z"/>
       </g>
      </g>
      <g class="com.sun.star.drawing.CustomShape">
       <g id="id44">
        <rect class="BoundingBox" stroke="none" fill="none" x="25973" y="2973" width="5055" height="10055"/>
        <path fill="none" stroke="rgb(0,0,0)" stroke-width="53" stroke-linejoin="round" d="M 28500,13000 L 26000,13000 26000,3000 31000,3000 31000,13000 28500,13000 Z"/>
       </g>
      </g>
      <g class="com.sun.star.drawing.CustomShape">
       <g id="id45">
        <rect class="BoundingBox" stroke="none" fill="none" x="26999" y="3999" width="1004" height="1004"/>
        <path fill="rgb(255,0,0)" stroke="none" d="M 28001,4501 C 28001,4588 27978,4675 27934,4751 27890,4827 27827,4890 27751,4934 27675,4978 27588,5001 27501,5001 27413,5001 27326,4978 27250,4934 27174,4890 27111,4827 27067,4751 27023,4675 27000,4588 27000,4501 27000,4413 27023,4326 27067,4250 27111,4174 27174,4111 27250,4067 27326,4023 27413,4000 27501,4000 27588,4000 27675,4023 27751,4067 27827,4111 27890,4174 27934,4250 27978,4326 28001,4413 28001,4500 L 28001,4501 Z"/>
        <path fill="none" stroke="rgb(52,101,164)" d="M 28001,4501 C 28001,4588 27978,4675 27934,4751 27890,4827 27827,4890 27751,4934 27675,4978 27588,5001 27501,5001 27413,5001 27326,4978 27250,4934 27174,4890 27111,4827 27067,4751 27023,4675 27000,4588 27000,4501 27000,4413 27023,4326 27067,4250 27111,4174 27174,4111 27250,4067 27326,4023 27413,4000 27501,4000 27588,4000 27675,4023 27751,4067 27827,4111 27890,4174 27934,4250 27978,4326 28001,4413 28001,4500 L 28001,4501 Z"/>
       </g>
      </g>
      <g class="com.sun.star.drawing.CustomShape">
       <g id="id46">
        <rect class="BoundingBox" stroke="none" fill="none" x="28999" y="4999" width="1004" height="1004"/>
        <path fill="rgb(128,0,128)" stroke="none" d="M 30001,5501 C 30001,5588 29978,5675 29934,5751 29890,5827 29827,5890 29751,5934 29675,5978 29588,6001 29501,6001 29413,6001 29326,5978 29250,5934 29174,5890 29111,5827 29067,5751 29023,5675 29000,5588 29000,5501 29000,5413 29023,5326 29067,5250 29111,5174 29174,5111 29250,5067 29326,5023 29413,5000 29501,5000 29588,5000 29675,5023 29751,5067 29827,5111 29890,5174 29934,5250 29978,5326 30001,5413 30001,5500 L 30001,5501 Z"/>
        <path fill="none" stroke="rgb(52,101,164)" d="M 30001,5501 C 30001,5588 29978,5675 29934,5751 29890,5827 29827,5890 29751,5934 29675,5978 29588,6001 29501,6001 29413,6001 29326,5978 29250,5934 29174,5890 29111,5827 29067,5751 29023,5675 29000,5588 29000,5501 29000,5413 29023,5326 29067,5250 29111,5174 29174,5111 29250,5067 29326,5023 29413,5000 29501,5000 29588,5000 29675,5023 29751,5067 29827,5111 29890,5174 29934,5250 29978,5326 30001,5413 30001,5500 L 30001,5501 Z"/>
       </g>
      </g>
      <g class="com.sun.star.drawing.CustomShape">
       <g id="id47">
        <rect class="BoundingBox" stroke="none" fill="none" x="28749" y="9499" width="1004" height="1004"/>
        <path fill="rgb(255,128,0)" stroke="none" d="M 29751,10001 C 29751,10088 29728,10175 29684,10251 29640,10327 29577,10390 29501,10434 29425,10478 29338,10501 29251,10501 29163,10501 29076,10478 29000,10434 28924,10390 28861,10327 28817,10251 28773,10175 28750,10088 28750,10001 28750,9913 28773,9826 28817,9750 28861,9674 28924,9611 29000,9567 29076,9523 29163,9500 29251,9500 29338,9500 29425,9523 29501,9567 29577,9611 29640,9674 29684,9750 29728,9826 29751,9913 29751,10001 L 29751,10001 Z"/>
        <path fill="none" stroke="rgb(52,101,164)" d="M 29751,10001 C 29751,10088 29728,10175 29684,10251 29640,10327 29577,10390 29501,10434 29425,10478 29338,10501 29251,10501 29163,10501 29076,10478 29000,10434 28924,10390 28861,10327 28817,10251 28773,10175 28750,10088 28750,10001 28750,9913 28773,9826 28817,9750 28861,9674 28924,9611 29000,9567 29076,9523 29163,9500 29251,9500 29338,9500 29425,9523 29501,9567 29577,9611 29640,9674 29684,9750 29728,9826 29751,9913 29751,10001 Z"/>
       </g>
      </g>
      <g class="com.sun.star.drawing.CustomShape">
       <g id="id48">
        <rect class="BoundingBox" stroke="none" fill="none" x="27249" y="7999" width="1004" height="1004"/>
        <path fill="rgb(0,169,51)" stroke="none" d="M 28251,8501 C 28251,8588 28228,8675 28184,8751 28140,8827 28077,8890 28001,8934 27925,8978 27838,9001 27751,9001 27663,9001 27576,8978 27500,8934 27424,8890 27361,8827 27317,8751 27273,8675 27250,8588 27250,8501 27250,8413 27273,8326 27317,8250 27361,8174 27424,8111 27500,8067 27576,8023 27663,8000 27751,8000 27838,8000 27925,8023 28001,8067 28077,8111 28140,8174 28184,8250 28228,8326 28251,8413 28251,8501 L 28251,8501 Z"/>
        <path fill="none" stroke="rgb(52,101,164)" d="M 28251,8501 C 28251,8588 28228,8675 28184,8751 28140,8827 28077,8890 28001,8934 27925,8978 27838,9001 27751,9001 27663,9001 27576,8978 27500,8934 27424,8890 27361,8827 27317,8751 27273,8675 27250,8588 27250,8501 27250,8413 27273,8326 27317,8250 27361,8174 27424,8111 27500,8067 27576,8023 27663,8000 27751,8000 27838,8000 27925,8023 28001,8067 28077,8111 28140,8174 28184,8250 28228,8326 28251,8413 28251,8501 Z"/>
       </g>
      </g>
      <g class="com.sun.star.drawing.CustomShape">
       <g id="id49">
        <rect class="BoundingBox" stroke="none" fill="none" x="25973" y="2973" width="5055" height="10055"/>
        <path fill="none" stroke="rgb(0,0,0)" stroke-width="53" stroke-linejoin="round" d="M 28500,13000 L 26000,13000 26000,3000 31000,3000 31000,13000 28500,13000 Z"/>
       </g>
      </g>
      <g class="com.sun.star.drawing.CustomShape">
       <g id="id50">
        <rect class="BoundingBox" stroke="none" fill="none" x="26999" y="3999" width="1004" height="1004"/>
        <path fill="rgb(255,0,0)" stroke="none" d="M 28001,4501 C 28001,4588 27978,4675 27934,4751 27890,4827 27827,4890 27751,4934 27675,4978 27588,5001 27501,5001 27413,5001 27326,4978 27250,4934 27174,4890 27111,4827 27067,4751 27023,4675 27000,4588 27000,4501 27000,4413 27023,4326 27067,4250 27111,4174 27174,4111 27250,4067 27326,4023 27413,4000 27501,4000 27588,4000 27675,4023 27751,4067 27827,4111 27890,4174 27934,4250 27978,4326 28001,4413 28001,4500 L 28001,4501 Z"/>
        <path fill="none" stroke="rgb(52,101,164)" d="M 28001,4501 C 28001,4588 27978,4675 27934,4751 27890,4827 27827,4890 27751,4934 27675,4978 27588,5001 27501,5001 27413,5001 27326,4978 27250,4934 27174,4890 27111,4827 27067,4751 27023,4675 27000,4588 27000,4501 27000,4413 27023,4326 27067,4250 27111,4174 27174,4111 27250,4067 27326,4023 27413,4000 27501,4000 27588,4000 27675,4023 27751,4067 27827,4111 27890,4174 27934,4250 27978,4326 28001,4413 28001,4500 L 28001,4501 Z"/>
       </g>
      </g>
      <g class="com.sun.star.drawing.CustomShape">
       <g id="id51">
        <rect class="BoundingBox" stroke="none" fill="none" x="28999" y="4999" width="1004" height="1004"/>
        <path fill="rgb(128,0,128)" stroke="none" d="M 30001,5501 C 30001,5588 29978,5675 29934,5751 29890,5827 29827,5890 29751,5934 29675,5978 29588,6001 29501,6001 29413,6001 29326,5978 29250,5934 29174,5890 29111,5827 29067,5751 29023,5675 29000,5588 29000,5501 29000,5413 29023,5326 29067,5250 29111,5174 29174,5111 29250,5067 29326,5023 29413,5000 29501,5000 29588,5000 29675,5023 29751,5067 29827,5111 29890,5174 29934,5250 29978,5326 30001,5413 30001,5500 L 30001,5501 Z"/>
        <path fill="none" stroke="rgb(52,101,164)" d="M 30001,5501 C 30001,5588 29978,5675 29934,5751 29890,5827 29827,5890 29751,5934 29675,5978 29588,6001 29501,6001 29413,6001 29326,5978 29250,5934 29174,5890 29111,5827 29067,5751 29023,5675 29000,5588 29000,5501 29000,5413 29023,5326 29067,5250 29111,5174 29174,5111 29250,5067 29326,5023 29413,5000 29501,5000 29588,5000 29675,5023 29751,5067 29827,5111 29890,5174 29934,5250 29978,5326 30001,5413 30001,5500 L 30001,5501 Z"/>
       </g>
      </g>
      <g class="com.sun.star.drawing.CustomShape">
       <g id="id52">
        <rect class="BoundingBox" stroke="none" fill="none" x="28749" y="9499" width="1004" height="1004"/>
        <path fill="rgb(255,128,0)" stroke="none" d="M 29751,10001 C 29751,10088 29728,10175 29684,10251 29640,10327 29577,10390 29501,10434 29425,10478 29338,10501 29251,10501 29163,10501 29076,10478 29000,10434 28924,10390 28861,10327 28817,10251 28773,10175 28750,10088 28750,10001 28750,9913 28773,9826 28817,9750 28861,9674 28924,9611 29000,9567 29076,9523 29163,9500 29251,9500 29338,9500 29425,9523 29501,9567 29577,9611 29640,9674 29684,9750 29728,9826 29751,9913 29751,10001 L 29751,10001 Z"/>
        <path fill="none" stroke="rgb(52,101,164)" d="M 29751,10001 C 29751,10088 29728,10175 29684,10251 29640,10327 29577,10390 29501,10434 29425,10478 29338,10501 29251,10501 29163,10501 29076,10478 29000,10434 28924,10390 28861,10327 28817,10251 28773,10175 28750,10088 28750,10001 28750,9913 28773,9826 28817,9750 28861,9674 28924,9611 29000,9567 29076,9523 29163,9500 29251,9500 29338,9500 29425,9523 29501,9567 29577,9611 29640,9674 29684,9750 29728,9826 29751,9913 29751,10001 Z"/>
       </g>
      </g>
      <g class="com.sun.star.drawing.CustomShape">
       <g id="id53">
        <rect class="BoundingBox" stroke="none" fill="none" x="27249" y="7999" width="1004" height="1004"/>
        <path fill="rgb(0,169,51)" stroke="none" d="M 28251,8501 C 28251,8588 28228,8675 28184,8751 28140,8827 28077,8890 28001,8934 27925,8978 27838,9001 27751,9001 27663,9001 27576,8978 27500,8934 27424,8890 27361,8827 27317,8751 27273,8675 27250,8588 27250,8501 27250,8413 27273,8326 27317,8250 27361,8174 27424,8111 27500,8067 27576,8023 27663,8000 27751,8000 27838,8000 27925,8023 28001,8067 28077,8111 28140,8174 28184,8250 28228,8326 28251,8413 28251,8501 L 28251,8501 Z"/>
        <path fill="none" stroke="rgb(52,101,164)" d="M 28251,8501 C 28251,8588 28228,8675 28184,8751 28140,8827 28077,8890 28001,8934 27925,8978 27838,9001 27751,9001 27663,9001 27576,8978 27500,8934 27424,8890 27361,8827 27317,8751 27273,8675 27250,8588 27250,8501 27250,8413 27273,8326 27317,8250 27361,8174 27424,8111 27500,8067 27576,8023 27663,8000 27751,8000 27838,8000 27925,8023 28001,8067 28077,8111 28140,8174 28184,8250 28228,8326 28251,8413 28251,8501 Z"/>
       </g>
      </g>
     </g>
    </g>
   </g>
  </g>
 </g>
</svg>