<?xml version="1.0" encoding="UTF-8"?>
<!DOCTYPE svg PUBLIC "-//W3C//DTD SVG 1.1//EN" "http://www.w3.org/Graphics/SVG/1.1/DTD/svg11.dtd">
<svg version="1.2" width="215.9mm" height="279.4mm" viewBox="0 0 21590 27940" preserveAspectRatio="xMidYMid" fill-rule="evenodd" stroke-width="28.222" stroke-linejoin="round" xmlns="http://www.w3.org/2000/svg" xmlns:ooo="http://xml.openoffice.org/svg/export" xmlns:xlink="http://www.w3.org/1999/xlink" xmlns:presentation="http://sun.com/xmlns/staroffice/presentation" xmlns:smil="http://www.w3.org/2001/SMIL20/" xmlns:anim="urn:oasis:names:tc:opendocument:xmlns:animation:1.0" xml:space="preserve">
 <defs class="ClipPathGroup">
  <clipPath id="presentation_clip_path" clipPathUnits="userSpaceOnUse">
   <rect x="0" y="0" width="21590" height="27940"/>
  </clipPath>
  <clipPath id="presentation_clip_path_shrink" clipPathUnits="userSpaceOnUse">
   <rect x="21" y="27" width="21547" height="27885"/>
  </clipPath>
 </defs>
 <defs class="TextShapeIndex">
  <g ooo:slide="id1" ooo:id-list="id3 id4 id5 id6 id7 id8 id9 id10 id11 id12 id13 id14 id15 id16 id17"/>
 </defs>
 <defs class="EmbeddedBulletChars">
  <g id="bullet-char-template-57356" transform="scale(0.00048828125,-0.00048828125)">
   <path d="M 580,1141 L 1163,571 580,0 -4,571 580,1141 Z"/>
  </g>
  <g id="bullet-char-template-57354" transform="scale(0.00048828125,-0.00048828125)">
   <path d="M 8,1128 L 1137,1128 1137,0 8,0 8,1128 Z"/>
  </g>
  <g id="bullet-char-template-10146" transform="scale(0.00048828125,-0.00048828125)">
   <path d="M 174,0 L 602,739 174,1481 1456,739 174,0 Z M 1358,739 L 309,1346 659,739 1358,739 Z"/>
  </g>
  <g id="bullet-char-template-10132" transform="scale(0.00048828125,-0.00048828125)">
   <path d="M 2015,739 L 1276,0 717,0 1260,543 174,543 174,936 1260,936 717,1481 1274,1481 2015,739 Z"/>
  </g>
  <g id="bullet-char-template-10007" transform="scale(0.00048828125,-0.00048828125)">
   <path d="M 0,-2 C -7,14 -16,27 -25,37 L 356,567 C 262,823 215,952 215,954 215,979 228,992 255,992 264,992 276,990 289,987 310,991 331,999 354,1012 L 381,999 492,748 772,1049 836,1024 860,1049 C 881,1039 901,1025 922,1006 886,937 835,863 770,784 769,783 710,716 594,584 L 774,223 C 774,196 753,168 711,139 L 727,119 C 717,90 699,76 672,76 641,76 570,178 457,381 L 164,-76 C 142,-110 111,-127 72,-127 30,-127 9,-110 8,-76 1,-67 -2,-52 -2,-32 -2,-23 -1,-13 0,-2 Z"/>
  </g>
  <g id="bullet-char-template-10004" transform="scale(0.00048828125,-0.00048828125)">
   <path d="M 285,-33 C 182,-33 111,30 74,156 52,228 41,333 41,471 41,549 55,616 82,672 116,743 169,778 240,778 293,778 328,747 346,684 L 369,508 C 377,444 397,411 428,410 L 1163,1116 C 1174,1127 1196,1133 1229,1133 1271,1133 1292,1118 1292,1087 L 1292,965 C 1292,929 1282,901 1262,881 L 442,47 C 390,-6 338,-33 285,-33 Z"/>
  </g>
  <g id="bullet-char-template-9679" transform="scale(0.00048828125,-0.00048828125)">
   <path d="M 813,0 C 632,0 489,54 383,161 276,268 223,411 223,592 223,773 276,916 383,1023 489,1130 632,1184 813,1184 992,1184 1136,1130 1245,1023 1353,916 1407,772 1407,592 1407,412 1353,268 1245,161 1136,54 992,0 813,0 Z"/>
  </g>
  <g id="bullet-char-template-8226" transform="scale(0.00048828125,-0.00048828125)">
   <path d="M 346,457 C 273,457 209,483 155,535 101,586 74,649 74,723 74,796 101,859 155,911 209,963 273,989 346,989 419,989 480,963 531,910 582,859 608,796 608,723 608,648 583,586 532,535 482,483 420,457 346,457 Z"/>
  </g>
  <g id="bullet-char-template-8211" transform="scale(0.00048828125,-0.00048828125)">
   <path d="M -4,459 L 1135,459 1135,606 -4,606 -4,459 Z"/>
  </g>
  <g id="bullet-char-template-61548" transform="scale(0.00048828125,-0.00048828125)">
   <path d="M 173,740 C 173,903 231,1043 346,1159 462,1274 601,1332 765,1332 928,1332 1067,1274 1183,1159 1299,1043 1357,903 1357,740 1357,577 1299,437 1183,322 1067,206 928,148 765,148 601,148 462,206 346,322 231,437 173,577 173,740 Z"/>
  </g>
 </defs>
 <g>
  <g id="id2" class="Master_Slide">
   <g id="bg-id2" class="Background"/>
   <g id="bo-id2" class="BackgroundObjects"/>
  </g>
 </g>
 <g class="SlideGroup">
  <g>
   <g id="container-id1">
    <g id="id1" class="Slide" clip-path="url(#presentation_clip_path)">
     <g class="Page">
      <g class="com.sun.star.drawing.CustomShape">
       <g id="id3">
        <rect class="BoundingBox" stroke="none" fill="none" x="11994" y="17498" width="2004" height="2004"/>
        <path fill="rgb(0,0,0)" stroke="none" d="M 12995,17499 C 13171,17499 13344,17545 13496,17633 13648,17721 13774,17847 13862,17999 13950,18151 13996,18324 13996,18500 13996,18675 13950,18848 13862,19000 13774,19152 13648,19278 13496,19366 13344,19454 13171,19500 12995,19500 12820,19500 12647,19454 12495,19366 12343,19278 12217,19152 12129,19000 12041,18848 11995,18675 11995,18500 11995,18324 12041,18151 12129,17999 12217,17847 12343,17721 12495,17633 12647,17545 12820,17499 12995,17499 L 12995,17499 Z"/>
        <path fill="none" stroke="rgb(0,0,0)" d="M 12995,17499 C 13171,17499 13344,17545 13496,17633 13648,17721 13774,17847 13862,17999 13950,18151 13996,18324 13996,18500 13996,18675 13950,18848 13862,19000 13774,19152 13648,19278 13496,19366 13344,19454 13171,19500 12995,19500 12820,19500 12647,19454 12495,19366 12343,19278 12217,19152 12129,19000 12041,18848 11995,18675 11995,18500 11995,18324 12041,18151 12129,17999 12217,17847 12343,17721 12495,17633 12647,17545 12820,17499 12995,17499 Z"/>
       </g>
      </g>
      <g class="com.sun.star.drawing.CustomShape">
       <g id="id4">
        <rect class="BoundingBox" stroke="none" fill="none" x="6999" y="17497" width="2004" height="2004"/>
        <path fill="rgb(0,0,0)" stroke="none" d="M 8000,17498 C 8176,17498 8349,17544 8501,17632 8653,17720 8779,17846 8867,17998 8955,18150 9001,18323 9001,18499 9001,18674 8955,18847 8867,18999 8779,19151 8653,19277 8501,19365 8349,19453 8176,19499 8000,19499 7825,19499 7652,19453 7500,19365 7348,19277 7222,19151 7134,18999 7046,18847 7000,18674 7000,18499 7000,18323 7046,18150 7134,17998 7222,17846 7348,17720 7500,17632 7652,17544 7825,17498 8000,17498 L 8000,17498 Z"/>
        <path fill="none" stroke="rgb(0,0,0)" d="M 8000,17498 C 8176,17498 8349,17544 8501,17632 8653,17720 8779,17846 8867,17998 8955,18150 9001,18323 9001,18499 9001,18674 8955,18847 8867,18999 8779,19151 8653,19277 8501,19365 8349,19453 8176,19499 8000,19499 7825,19499 7652,19453 7500,19365 7348,19277 7222,19151 7134,18999 7046,18847 7000,18674 7000,18499 7000,18323 7046,18150 7134,17998 7222,17846 7348,17720 7500,17632 7652,17544 7825,17498 8000,17498 Z"/>
       </g>
      </g>
      <g class="com.sun.star.drawing.CustomShape">
       <g id="id5">
        <rect class="BoundingBox" stroke="none" fill="none" x="12000" y="14504" width="2004" height="2004"/>
        <path fill="rgb(0,0,0)" stroke="none" d="M 13002,14505 C 13177,14505 13350,14551 13502,14639 13654,14727 13780,14853 13868,15005 13956,15157 14002,15330 14002,15505 14002,15681 13956,15854 13868,16006 13780,16158 13654,16284 13502,16372 13350,16460 13177,16506 13002,16506 12826,16506 12653,16460 12501,16372 12349,16284 12223,16158 12135,16006 12047,15854 12001,15681 12001,15505 12001,15330 12047,15157 12135,15005 12223,14853 12349,14727 12501,14639 12653,14551 12826,14505 13001,14505 L 13002,14505 Z"/>
        <path fill="none" stroke="rgb(0,0,0)" d="M 13002,14505 C 13177,14505 13350,14551 13502,14639 13654,14727 13780,14853 13868,15005 13956,15157 14002,15330 14002,15505 14002,15681 13956,15854 13868,16006 13780,16158 13654,16284 13502,16372 13350,16460 13177,16506 13002,16506 12826,16506 12653,16460 12501,16372 12349,16284 12223,16158 12135,16006 12047,15854 12001,15681 12001,15505 12001,15330 12047,15157 12135,15005 12223,14853 12349,14727 12501,14639 12653,14551 12826,14505 13001,14505 L 13002,14505 Z"/>
       </g>
      </g>
      <g class="com.sun.star.drawing.CustomShape">
       <g id="id6">
        <rect class="BoundingBox" stroke="none" fill="none" x="6999" y="14498" width="2004" height="2004"/>
        <path fill="rgb(0,0,0)" stroke="none" d="M 8000,14499 C 8176,14499 8349,14545 8501,14633 8653,14721 8779,14847 8867,14999 8955,15151 9001,15324 9001,15499 9001,15675 8955,15848 8867,16000 8779,16152 8653,16278 8501,16366 8349,16454 8176,16500 8000,16500 7825,16500 7652,16454 7500,16366 7348,16278 7222,16152 7134,16000 7046,15848 7000,15675 7000,15499 7000,15324 7046,15151 7134,14999 7222,14847 7348,14721 7500,14633 7652,14545 7825,14499 8000,14499 L 8000,14499 Z"/>
        <path fill="none" stroke="rgb(0,0,0)" d="M 8000,14499 C 8176,14499 8349,14545 8501,14633 8653,14721 8779,14847 8867,14999 8955,15151 9001,15324 9001,15499 9001,15675 8955,15848 8867,16000 8779,16152 8653,16278 8501,16366 8349,16454 8176,16500 8000,16500 7825,16500 7652,16454 7500,16366 7348,16278 7222,16152 7134,16000 7046,15848 7000,15675 7000,15499 7000,15324 7046,15151 7134,14999 7222,14847 7348,14721 7500,14633 7652,14545 7825,14499 8000,14499 L 8000,14499 Z"/>
       </g>
      </g>
      <g class="com.sun.star.drawing.CustomShape">
       <g id="id7">
        <rect class="BoundingBox" stroke="none" fill="none" x="12006" y="2498" width="2004" height="2004"/>
        <path fill="rgb(0,0,0)" stroke="none" d="M 13008,2499 C 13183,2499 13356,2545 13508,2633 13660,2721 13786,2847 13874,2999 13962,3151 14008,3324 14008,3500 14008,3675 13962,3848 13874,4000 13786,4152 13660,4278 13508,4366 13356,4454 13183,4500 13008,4500 12832,4500 12659,4454 12507,4366 12355,4278 12229,4152 12141,4000 12053,3848 12007,3675 12007,3500 12007,3324 12053,3151 12141,2999 12229,2847 12355,2721 12507,2633 12659,2545 12832,2499 13008,2499 L 13008,2499 Z"/>
        <path fill="none" stroke="rgb(0,0,0)" d="M 13008,2499 C 13183,2499 13356,2545 13508,2633 13660,2721 13786,2847 13874,2999 13962,3151 14008,3324 14008,3500 14008,3675 13962,3848 13874,4000 13786,4152 13660,4278 13508,4366 13356,4454 13183,4500 13008,4500 12832,4500 12659,4454 12507,4366 12355,4278 12229,4152 12141,4000 12053,3848 12007,3675 12007,3500 12007,3324 12053,3151 12141,2999 12229,2847 12355,2721 12507,2633 12659,2545 12832,2499 13008,2499 Z"/>
       </g>
      </g>
      <g class="com.sun.star.drawing.CustomShape">
       <g id="id8">
        <rect class="BoundingBox" stroke="none" fill="none" x="6999" y="11505" width="2004" height="2004"/>
        <path fill="rgb(0,0,0)" stroke="none" d="M 8000,11506 C 8176,11506 8349,11552 8501,11640 8653,11728 8779,11854 8867,12006 8955,12158 9001,12331 9001,12507 9001,12682 8955,12855 8867,13007 8779,13159 8653,13285 8501,13373 8349,13461 8176,13507 8000,13507 7825,13507 7652,13461 7500,13373 7348,13285 7222,13159 7134,13007 7046,12855 7000,12682 7000,12507 7000,12331 7046,12158 7134,12006 7222,11854 7348,11728 7500,11640 7652,11552 7825,11506 8000,11506 L 8000,11506 Z"/>
        <path fill="none" stroke="rgb(0,0,0)" d="M 8000,11506 C 8176,11506 8349,11552 8501,11640 8653,11728 8779,11854 8867,12006 8955,12158 9001,12331 9001,12507 9001,12682 8955,12855 8867,13007 8779,13159 8653,13285 8501,13373 8349,13461 8176,13507 8000,13507 7825,13507 7652,13461 7500,13373 7348,13285 7222,13159 7134,13007 7046,12855 7000,12682 7000,12507 7000,12331 7046,12158 7134,12006 7222,11854 7348,11728 7500,11640 7652,11552 7825,11506 8000,11506 L 8000,11506 Z"/>
       </g>
      </g>
      <g class="com.sun.star.drawing.CustomShape">
       <g id="id9">
        <rect class="BoundingBox" stroke="none" fill="none" x="11997" y="11498" width="2004" height="2004"/>
        <path fill="rgb(0,0,0)" stroke="none" d="M 12999,11499 C 13174,11499 13347,11545 13499,11633 13651,11721 13777,11847 13865,11999 13953,12151 13999,12324 13999,12499 13999,12675 13953,12848 13865,13000 13777,13152 13651,13278 13499,13366 13347,13454 13174,13500 12999,13500 12823,13500 12650,13454 12498,13366 12346,13278 12220,13152 12132,13000 12044,12848 11998,12675 11998,12499 11998,12324 12044,12151 12132,11999 12220,11847 12346,11721 12498,11633 12650,11545 12823,11499 12998,11499 L 12999,11499 Z"/>
        <path fill="none" stroke="rgb(0,0,0)" d="M 12999,11499 C 13174,11499 13347,11545 13499,11633 13651,11721 13777,11847 13865,11999 13953,12151 13999,12324 13999,12499 13999,12675 13953,12848 13865,13000 13777,13152 13651,13278 13499,13366 13347,13454 13174,13500 12999,13500 12823,13500 12650,13454 12498,13366 12346,13278 12220,13152 12132,13000 12044,12848 11998,12675 11998,12499 11998,12324 12044,12151 12132,11999 12220,11847 12346,11721 12498,11633 12650,11545 12823,11499 12998,11499 L 12999,11499 Z"/>
       </g>
      </g>
      <g class="com.sun.star.drawing.CustomShape">
       <g id="id10">
        <rect class="BoundingBox" stroke="none" fill="none" x="11996" y="5498" width="2004" height="2004"/>
        <path fill="rgb(0,0,0)" stroke="none" d="M 12998,5499 C 13173,5499 13346,5545 13498,5633 13650,5721 13776,5847 13864,5999 13952,6151 13998,6324 13998,6500 13998,6675 13952,6848 13864,7000 13776,7152 13650,7278 13498,7366 13346,7454 13173,7500 12998,7500 12822,7500 12649,7454 12497,7366 12345,7278 12219,7152 12131,7000 12043,6848 11997,6675 11997,6500 11997,6324 12043,6151 12131,5999 12219,5847 12345,5721 12497,5633 12649,5545 12822,5499 12998,5499 L 12998,5499 Z"/>
        <path fill="none" stroke="rgb(0,0,0)" d="M 12998,5499 C 13173,5499 13346,5545 13498,5633 13650,5721 13776,5847 13864,5999 13952,6151 13998,6324 13998,6500 13998,6675 13952,6848 13864,7000 13776,7152 13650,7278 13498,7366 13346,7454 13173,7500 12998,7500 12822,7500 12649,7454 12497,7366 12345,7278 12219,7152 12131,7000 12043,6848 11997,6675 11997,6500 11997,6324 12043,6151 12131,5999 12219,5847 12345,5721 12497,5633 12649,5545 12822,5499 12998,5499 Z"/>
       </g>
      </g>
      <g class="com.sun.star.drawing.CustomShape">
       <g id="id11">
        <rect class="BoundingBox" stroke="none" fill="none" x="6999" y="8498" width="2004" height="2004"/>
        <path fill="rgb(0,0,0)" stroke="none" d="M 8000,8499 C 8176,8499 8349,8545 8501,8633 8653,8721 8779,8847 8867,8999 8955,9151 9001,9324 9001,9500 9001,9675 8955,9848 8867,10000 8779,10152 8653,10278 8501,10366 8349,10454 8176,10500 8000,10500 7825,10500 7652,10454 7500,10366 7348,10278 7222,10152 7134,10000 7046,9848 7000,9675 7000,9500 7000,9324 7046,9151 7134,8999 7222,8847 7348,8721 7500,8633 7652,8545 7825,8499 8000,8499 L 8000,8499 Z"/>
        <path fill="none" stroke="rgb(0,0,0)" d="M 8000,8499 C 8176,8499 8349,8545 8501,8633 8653,8721 8779,8847 8867,8999 8955,9151 9001,9324 9001,9500 9001,9675 8955,9848 8867,10000 8779,10152 8653,10278 8501,10366 8349,10454 8176,10500 8000,10500 7825,10500 7652,10454 7500,10366 7348,10278 7222,10152 7134,10000 7046,9848 7000,9675 7000,9500 7000,9324 7046,9151 7134,8999 7222,8847 7348,8721 7500,8633 7652,8545 7825,8499 8000,8499 L 8000,8499 Z"/>
       </g>
      </g>
      <g class="com.sun.star.drawing.CustomShape">
       <g id="id12">
        <rect class="BoundingBox" stroke="none" fill="none" x="11999" y="8494" width="2004" height="2004"/>
        <path fill="rgb(0,0,0)" stroke="none" d="M 13001,8495 C 13176,8495 13349,8541 13501,8629 13653,8717 13779,8843 13867,8995 13955,9147 14001,9320 14001,9496 14001,9671 13955,9844 13867,9996 13779,10148 13653,10274 13501,10362 13349,10450 13176,10496 13001,10496 12825,10496 12652,10450 12500,10362 12348,10274 12222,10148 12134,9996 12046,9844 12000,9671 12000,9495 12000,9320 12046,9147 12134,8995 12222,8843 12348,8717 12500,8629 12652,8541 12825,8495 13000,8495 L 13001,8495 Z"/>
        <path fill="none" stroke="rgb(0,0,0)" d="M 13001,8495 C 13176,8495 13349,8541 13501,8629 13653,8717 13779,8843 13867,8995 13955,9147 14001,9320 14001,9496 14001,9671 13955,9844 13867,9996 13779,10148 13653,10274 13501,10362 13349,10450 13176,10496 13001,10496 12825,10496 12652,10450 12500,10362 12348,10274 12222,10148 12134,9996 12046,9844 12000,9671 12000,9495 12000,9320 12046,9147 12134,8995 12222,8843 12348,8717 12500,8629 12652,8541 12825,8495 13000,8495 L 13001,8495 Z"/>
       </g>
      </g>
      <g class="com.sun.star.drawing.CustomShape">
       <g id="id13">
        <rect class="BoundingBox" stroke="none" fill="none" x="6999" y="5502" width="2004" height="2004"/>
        <path fill="rgb(0,0,0)" stroke="none" d="M 8000,5503 C 8176,5503 8349,5549 8501,5637 8653,5725 8779,5851 8867,6003 8955,6155 9001,6328 9001,6504 9001,6679 8955,6852 8867,7004 8779,7156 8653,7282 8501,7370 8349,7458 8176,7504 8000,7504 7825,7504 7652,7458 7500,7370 7348,7282 7222,7156 7134,7004 7046,6852 7000,6679 7000,6504 7000,6328 7046,6155 7134,6003 7222,5851 7348,5725 7500,5637 7652,5549 7825,5503 8000,5503 L 8000,5503 Z"/>
        <path fill="none" stroke="rgb(0,0,0)" d="M 8000,5503 C 8176,5503 8349,5549 8501,5637 8653,5725 8779,5851 8867,6003 8955,6155 9001,6328 9001,6504 9001,6679 8955,6852 8867,7004 8779,7156 8653,7282 8501,7370 8349,7458 8176,7504 8000,7504 7825,7504 7652,7458 7500,7370 7348,7282 7222,7156 7134,7004 7046,6852 7000,6679 7000,6504 7000,6328 7046,6155 7134,6003 7222,5851 7348,5725 7500,5637 7652,5549 7825,5503 8000,5503 L 8000,5503 Z"/>
       </g>
      </g>
      <g class="com.sun.star.drawing.CustomShape">
       <g id="id14">
        <rect class="BoundingBox" stroke="none" fill="none" x="6999" y="2499" width="2004" height="2004"/>
        <path fill="rgb(0,0,0)" stroke="none" d="M 8001,2500 C 8176,2500 8349,2546 8501,2634 8653,2722 8779,2848 8867,3000 8955,3152 9001,3325 9001,3500 9001,3676 8955,3849 8867,4001 8779,4153 8653,4279 8501,4367 8349,4455 8176,4501 8001,4501 7825,4501 7652,4455 7500,4367 7348,4279 7222,4153 7134,4001 7046,3849 7000,3676 7000,3501 7000,3325 7046,3152 7134,3000 7222,2848 7348,2722 7500,2634 7652,2546 7825,2500 8000,2500 L 8001,2500 Z"/>
        <path fill="none" stroke="rgb(0,0,0)" d="M 8001,2500 C 8176,2500 8349,2546 8501,2634 8653,2722 8779,2848 8867,3000 8955,3152 9001,3325 9001,3500 9001,3676 8955,3849 8867,4001 8779,4153 8653,4279 8501,4367 8349,4455 8176,4501 8001,4501 7825,4501 7652,4455 7500,4367 7348,4279 7222,4153 7134,4001 7046,3849 7000,3676 7000,3501 7000,3325 7046,3152 7134,3000 7222,2848 7348,2722 7500,2634 7652,2546 7825,2500 8000,2500 L 8001,2500 Z"/>
       </g>
      </g>
      <g class="com.sun.star.drawing.CustomShape">
       <g id="id15">
        <rect class="BoundingBox" stroke="none" fill="none" x="11994" y="20499" width="2004" height="2004"/>
        <path fill="rgb(0,0,0)" stroke="none" d="M 12995,20500 C 13171,20500 13344,20546 13496,20634 13648,20722 13774,20848 13862,21000 13950,21152 13996,21325 13996,21501 13996,21676 13950,21849 13862,22001 13774,22153 13648,22279 13496,22367 13344,22455 13171,22501 12995,22501 12820,22501 12647,22455 12495,22367 12343,22279 12217,22153 12129,22001 12041,21849 11995,21676 11995,21501 11995,21325 12041,21152 12129,21000 12217,20848 12343,20722 12495,20634 12647,20546 12820,20500 12995,20500 L 12995,20500 Z"/>
        <path fill="none" stroke="rgb(0,0,0)" d="M 12995,20500 C 13171,20500 13344,20546 13496,20634 13648,20722 13774,20848 13862,21000 13950,21152 13996,21325 13996,21501 13996,21676 13950,21849 13862,22001 13774,22153 13648,22279 13496,22367 13344,22455 13171,22501 12995,22501 12820,22501 12647,22455 12495,22367 12343,22279 12217,22153 12129,22001 12041,21849 11995,21676 11995,21501 11995,21325 12041,21152 12129,21000 12217,20848 12343,20722 12495,20634 12647,20546 12820,20500 12995,20500 Z"/>
       </g>
      </g>
      <g class="com.sun.star.drawing.CustomShape">
       <g id="id16">
        <rect class="BoundingBox" stroke="none" fill="none" x="6999" y="20498" width="2004" height="2004"/>
        <path fill="rgb(0,0,0)" stroke="none" d="M 8000,20499 C 8176,20499 8349,20545 8501,20633 8653,20721 8779,20847 8867,20999 8955,21151 9001,21324 9001,21500 9001,21675 8955,21848 8867,22000 8779,22152 8653,22278 8501,22366 8349,22454 8176,22500 8000,22500 7825,22500 7652,22454 7500,22366 7348,22278 7222,22152 7134,22000 7046,21848 7000,21675 7000,21500 7000,21324 7046,21151 7134,20999 7222,20847 7348,20721 7500,20633 7652,20545 7825,20499 8000,20499 L 8000,20499 Z"/>
        <path fill="none" stroke="rgb(0,0,0)" d="M 8000,20499 C 8176,20499 8349,20545 8501,20633 8653,20721 8779,20847 8867,20999 8955,21151 9001,21324 9001,21500 9001,21675 8955,21848 8867,22000 8779,22152 8653,22278 8501,22366 8349,22454 8176,22500 8000,22500 7825,22500 7652,22454 7500,22366 7348,22278 7222,22152 7134,22000 7046,21848 7000,21675 7000,21500 7000,21324 7046,21151 7134,20999 7222,20847 7348,20721 7500,20633 7652,20545 7825,20499 8000,20499 Z"/>
       </g>
      </g>
      <g class="com.sun.star.drawing.CustomShape">
       <g id="id17">
        <rect class="BoundingBox" stroke="none" fill="none" x="6999" y="23498" width="2004" height="2004"/>
        <path fill="rgb(0,0,0)" stroke="none" d="M 8000,23499 C 8176,23499 8349,23545 8501,23633 8653,23721 8779,23847 8867,23999 8955,24151 9001,24324 9001,24499 9001,24675 8955,24848 8867,25000 8779,25152 8653,25278 8501,25366 8349,25454 8176,25500 8000,25500 7825,25500 7652,25454 7500,25366 7348,25278 7222,25152 7134,25000 7046,24848 7000,24675 7000,24499 7000,24324 7046,24151 7134,23999 7222,23847 7348,23721 7500,23633 7652,23545 7825,23499 8000,23499 L 8000,23499 Z"/>
        <path fill="none" stroke="rgb(0,0,0)" d="M 8000,23499 C 8176,23499 8349,23545 8501,23633 8653,23721 8779,23847 8867,23999 8955,24151 9001,24324 9001,24499 9001,24675 8955,24848 8867,25000 8779,25152 8653,25278 8501,25366 8349,25454 8176,25500 8000,25500 7825,25500 7652,25454 7500,25366 7348,25278 7222,25152 7134,25000 7046,24848 7000,24675 7000,24499 7000,24324 7046,24151 7134,23999 7222,23847 7348,23721 7500,23633 7652,23545 7825,23499 8000,23499 Z"/>
       </g>
      </g>
     </g>
    </g>
   </g>
  </g>
 </g>
</svg>