<?xml version="1.0" encoding="UTF-8"?>
<!DOCTYPE svg PUBLIC "-//W3C//DTD SVG 1.1//EN" "http://www.w3.org/Graphics/SVG/1.1/DTD/svg11.dtd">
<svg version="1.2" width="279.4mm" height="215.9mm" viewBox="0 0 27940 21590" preserveAspectRatio="xMidYMid" fill-rule="evenodd" stroke-width="28.222" stroke-linejoin="round" xmlns="http://www.w3.org/2000/svg" xmlns:ooo="http://xml.openoffice.org/svg/export" xmlns:xlink="http://www.w3.org/1999/xlink" xmlns:presentation="http://sun.com/xmlns/staroffice/presentation" xmlns:smil="http://www.w3.org/2001/SMIL20/" xmlns:anim="urn:oasis:names:tc:opendocument:xmlns:animation:1.0" xml:space="preserve">
 <defs class="ClipPathGroup">
  <clipPath id="presentation_clip_path" clipPathUnits="userSpaceOnUse">
   <rect x="0" y="0" width="27940" height="21590"/>
  </clipPath>
  <clipPath id="presentation_clip_path_shrink" clipPathUnits="userSpaceOnUse">
   <rect x="27" y="21" width="27885" height="21547"/>
  </clipPath>
 </defs>
 <defs class="TextShapeIndex">
  <g ooo:slide="id1" ooo:id-list="id3 id4 id5 id6 id7 id8 id9 id10 id11 id12 id13 id14"/>
 </defs>
 <defs class="EmbeddedBulletChars">
  <g id="bullet-char-template-57356" transform="scale(0.00048828125,-0.00048828125)">
   <path d="M 580,1141 L 1163,571 580,0 -4,571 580,1141 Z"/>
  </g>
  <g id="bullet-char-template-57354" transform="scale(0.00048828125,-0.00048828125)">
   <path d="M 8,1128 L 1137,1128 1137,0 8,0 8,1128 Z"/>
  </g>
  <g id="bullet-char-template-10146" transform="scale(0.00048828125,-0.00048828125)">
   <path d="M 174,0 L 602,739 174,1481 1456,739 174,0 Z M 1358,739 L 309,1346 659,739 1358,739 Z"/>
  </g>
  <g id="bullet-char-template-10132" transform="scale(0.00048828125,-0.00048828125)">
   <path d="M 2015,739 L 1276,0 717,0 1260,543 174,543 174,936 1260,936 717,1481 1274,1481 2015,739 Z"/>
  </g>
  <g id="bullet-char-template-10007" transform="scale(0.00048828125,-0.00048828125)">
   <path d="M 0,-2 C -7,14 -16,27 -25,37 L 356,567 C 262,823 215,952 215,954 215,979 228,992 255,992 264,992 276,990 289,987 310,991 331,999 354,1012 L 381,999 492,748 772,1049 836,1024 860,1049 C 881,1039 901,1025 922,1006 886,937 835,863 770,784 769,783 710,716 594,584 L 774,223 C 774,196 753,168 711,139 L 727,119 C 717,90 699,76 672,76 641,76 570,178 457,381 L 164,-76 C 142,-110 111,-127 72,-127 30,-127 9,-110 8,-76 1,-67 -2,-52 -2,-32 -2,-23 -1,-13 0,-2 Z"/>
  </g>
  <g id="bullet-char-template-10004" transform="scale(0.00048828125,-0.00048828125)">
   <path d="M 285,-33 C 182,-33 111,30 74,156 52,228 41,333 41,471 41,549 55,616 82,672 116,743 169,778 240,778 293,778 328,747 346,684 L 369,508 C 377,444 397,411 428,410 L 1163,1116 C 1174,1127 1196,1133 1229,1133 1271,1133 1292,1118 1292,1087 L 1292,965 C 1292,929 1282,901 1262,881 L 442,47 C 390,-6 338,-33 285,-33 Z"/>
  </g>
  <g id="bullet-char-template-9679" transform="scale(0.00048828125,-0.00048828125)">
   <path d="M 813,0 C 632,0 489,54 383,161 276,268 223,411 223,592 223,773 276,916 383,1023 489,1130 632,1184 813,1184 992,1184 1136,1130 1245,1023 1353,916 1407,772 1407,592 1407,412 1353,268 1245,161 1136,54 992,0 813,0 Z"/>
  </g>
  <g id="bullet-char-template-8226" transform="scale(0.00048828125,-0.00048828125)">
   <path d="M 346,457 C 273,457 209,483 155,535 101,586 74,649 74,723 74,796 101,859 155,911 209,963 273,989 346,989 419,989 480,963 531,910 582,859 608,796 608,723 608,648 583,586 532,535 482,483 420,457 346,457 Z"/>
  </g>
  <g id="bullet-char-template-8211" transform="scale(0.00048828125,-0.00048828125)">
   <path d="M -4,459 L 1135,459 1135,606 -4,606 -4,459 Z"/>
  </g>
  <g id="bullet-char-template-61548" transform="scale(0.00048828125,-0.00048828125)">
   <path d="M 173,740 C 173,903 231,1043 346,1159 462,1274 601,1332 765,1332 928,1332 1067,1274 1183,1159 1299,1043 1357,903 1357,740 1357,577 1299,437 1183,322 1067,206 928,148 765,148 601,148 462,206 346,322 231,437 173,577 173,740 Z"/>
  </g>
 </defs>
 <g>
  <g id="id2" class="Master_Slide">
   <g id="bg-id2" class="Background"/>
   <g id="bo-id2" class="BackgroundObjects"/>
  </g>
 </g>
 <g class="SlideGroup">
  <g>
   <g id="container-id1">
    <g id="id1" class="Slide" clip-path="url(#presentation_clip_path)">
     <g class="Page">
      <g class="com.sun.star.drawing.CustomShape">
       <g id="id3">
        <rect class="BoundingBox" stroke="none" fill="none" x="11999" y="12998" width="2004" height="2004"/>
        <path fill="rgb(0,0,0)" stroke="none" d="M 13001,12999 C 13176,12999 13349,13045 13501,13133 13653,13221 13779,13347 13867,13499 13955,13651 14001,13824 14001,13999 14001,14175 13955,14348 13867,14500 13779,14652 13653,14778 13501,14866 13349,14954 13176,15000 13001,15000 12825,15000 12652,14954 12500,14866 12348,14778 12222,14652 12134,14500 12046,14348 12000,14175 12000,13999 12000,13824 12046,13651 12134,13499 12222,13347 12348,13221 12500,13133 12652,13045 12825,12999 13000,12999 L 13001,12999 Z"/>
        <path fill="none" stroke="rgb(0,0,0)" d="M 13001,12999 C 13176,12999 13349,13045 13501,13133 13653,13221 13779,13347 13867,13499 13955,13651 14001,13824 14001,13999 14001,14175 13955,14348 13867,14500 13779,14652 13653,14778 13501,14866 13349,14954 13176,15000 13001,15000 12825,15000 12652,14954 12500,14866 12348,14778 12222,14652 12134,14500 12046,14348 12000,14175 12000,13999 12000,13824 12046,13651 12134,13499 12222,13347 12348,13221 12500,13133 12652,13045 12825,12999 13000,12999 L 13001,12999 Z"/>
       </g>
      </g>
      <g class="com.sun.star.drawing.CustomShape">
       <g id="id4">
        <rect class="BoundingBox" stroke="none" fill="none" x="7999" y="12997" width="2004" height="2004"/>
        <path fill="rgb(0,0,0)" stroke="none" d="M 9001,12998 C 9176,12998 9349,13044 9501,13132 9653,13220 9779,13346 9867,13498 9955,13650 10001,13823 10001,13998 10001,14174 9955,14347 9867,14499 9779,14651 9653,14777 9501,14865 9349,14953 9176,14999 9000,14999 8825,14999 8652,14953 8500,14865 8348,14777 8222,14651 8134,14499 8046,14347 8000,14174 8000,13998 8000,13823 8046,13650 8134,13498 8222,13346 8348,13220 8500,13132 8652,13044 8825,12998 9000,12998 L 9001,12998 Z"/>
        <path fill="none" stroke="rgb(0,0,0)" d="M 9001,12998 C 9176,12998 9349,13044 9501,13132 9653,13220 9779,13346 9867,13498 9955,13650 10001,13823 10001,13998 10001,14174 9955,14347 9867,14499 9779,14651 9653,14777 9501,14865 9349,14953 9176,14999 9000,14999 8825,14999 8652,14953 8500,14865 8348,14777 8222,14651 8134,14499 8046,14347 8000,14174 8000,13998 8000,13823 8046,13650 8134,13498 8222,13346 8348,13220 8500,13132 8652,13044 8825,12998 9000,12998 L 9001,12998 Z"/>
       </g>
      </g>
      <g class="com.sun.star.drawing.CustomShape">
       <g id="id5">
        <rect class="BoundingBox" stroke="none" fill="none" x="11999" y="6998" width="2004" height="2004"/>
        <path fill="rgb(0,0,0)" stroke="none" d="M 13001,6999 C 13176,6999 13349,7045 13501,7133 13653,7221 13779,7347 13867,7499 13955,7651 14001,7824 14001,7999 14001,8175 13955,8348 13867,8500 13779,8652 13653,8778 13501,8866 13349,8954 13176,9000 13001,9000 12825,9000 12652,8954 12500,8866 12348,8778 12222,8652 12134,8500 12046,8348 12000,8175 12000,7999 12000,7824 12046,7651 12134,7499 12222,7347 12348,7221 12500,7133 12652,7045 12825,6999 13001,6999 L 13001,6999 Z"/>
        <path fill="none" stroke="rgb(0,0,0)" d="M 13001,6999 C 13176,6999 13349,7045 13501,7133 13653,7221 13779,7347 13867,7499 13955,7651 14001,7824 14001,7999 14001,8175 13955,8348 13867,8500 13779,8652 13653,8778 13501,8866 13349,8954 13176,9000 13001,9000 12825,9000 12652,8954 12500,8866 12348,8778 12222,8652 12134,8500 12046,8348 12000,8175 12000,7999 12000,7824 12046,7651 12134,7499 12222,7347 12348,7221 12500,7133 12652,7045 12825,6999 13001,6999 Z"/>
       </g>
      </g>
      <g class="com.sun.star.drawing.CustomShape">
       <g id="id6">
        <rect class="BoundingBox" stroke="none" fill="none" x="7999" y="6999" width="2004" height="2004"/>
        <path fill="rgb(0,0,0)" stroke="none" d="M 9001,7000 C 9176,7000 9349,7046 9501,7134 9653,7222 9779,7348 9867,7500 9955,7652 10001,7825 10001,8000 10001,8176 9955,8349 9867,8501 9779,8653 9653,8779 9501,8867 9349,8955 9176,9001 9001,9001 8825,9001 8652,8955 8500,8867 8348,8779 8222,8653 8134,8501 8046,8349 8000,8176 8000,8000 8000,7825 8046,7652 8134,7500 8222,7348 8348,7222 8500,7134 8652,7046 8825,7000 9000,7000 L 9001,7000 Z"/>
        <path fill="none" stroke="rgb(0,0,0)" d="M 9001,7000 C 9176,7000 9349,7046 9501,7134 9653,7222 9779,7348 9867,7500 9955,7652 10001,7825 10001,8000 10001,8176 9955,8349 9867,8501 9779,8653 9653,8779 9501,8867 9349,8955 9176,9001 9001,9001 8825,9001 8652,8955 8500,8867 8348,8779 8222,8653 8134,8501 8046,8349 8000,8176 8000,8000 8000,7825 8046,7652 8134,7500 8222,7348 8348,7222 8500,7134 8652,7046 8825,7000 9000,7000 L 9001,7000 Z"/>
       </g>
      </g>
      <g class="com.sun.star.drawing.CustomShape">
       <g id="id7">
        <rect class="BoundingBox" stroke="none" fill="none" x="10749" y="9749" width="504" height="504"/>
        <path fill="rgb(0,0,0)" stroke="none" d="M 11251,10001 C 11251,10044 11239,10088 11217,10126 11195,10164 11164,10195 11126,10217 11088,10239 11044,10251 11001,10251 10957,10251 10913,10239 10875,10217 10837,10195 10806,10164 10784,10126 10762,10088 10750,10044 10750,10001 10750,9957 10762,9913 10784,9875 10806,9837 10837,9806 10875,9784 10913,9762 10957,9750 11001,9750 11044,9750 11088,9762 11126,9784 11164,9806 11195,9837 11217,9875 11239,9913 11251,9957 11251,10001 L 11251,10001 Z"/>
        <path fill="none" stroke="rgb(0,0,0)" d="M 11251,10001 C 11251,10044 11239,10088 11217,10126 11195,10164 11164,10195 11126,10217 11088,10239 11044,10251 11001,10251 10957,10251 10913,10239 10875,10217 10837,10195 10806,10164 10784,10126 10762,10088 10750,10044 10750,10001 10750,9957 10762,9913 10784,9875 10806,9837 10837,9806 10875,9784 10913,9762 10957,9750 11001,9750 11044,9750 11088,9762 11126,9784 11164,9806 11195,9837 11217,9875 11239,9913 11251,9957 11251,10001 Z"/>
       </g>
      </g>
      <g class="com.sun.star.drawing.CustomShape">
       <g id="id8">
        <rect class="BoundingBox" stroke="none" fill="none" x="10749" y="11749" width="504" height="504"/>
        <path fill="rgb(0,0,0)" stroke="none" d="M 11251,12000 C 11251,12044 11239,12088 11217,12126 11195,12164 11164,12195 11126,12217 11088,12239 11044,12251 11001,12251 10957,12251 10913,12239 10875,12217 10837,12195 10806,12164 10784,12126 10762,12088 10750,12044 10750,12000 10750,11957 10762,11913 10784,11875 10806,11837 10837,11806 10875,11784 10913,11762 10957,11750 11001,11750 11044,11750 11088,11762 11126,11784 11164,11806 11195,11837 11217,11875 11239,11913 11251,11957 11251,12000 L 11251,12000 Z"/>
        <path fill="none" stroke="rgb(0,0,0)" d="M 11251,12000 C 11251,12044 11239,12088 11217,12126 11195,12164 11164,12195 11126,12217 11088,12239 11044,12251 11001,12251 10957,12251 10913,12239 10875,12217 10837,12195 10806,12164 10784,12126 10762,12088 10750,12044 10750,12000 10750,11957 10762,11913 10784,11875 10806,11837 10837,11806 10875,11784 10913,11762 10957,11750 11001,11750 11044,11750 11088,11762 11126,11784 11164,11806 11195,11837 11217,11875 11239,11913 11251,11957 11251,12000 Z"/>
       </g>
      </g>
      <g class="com.sun.star.drawing.CustomShape">
       <g id="id9">
        <rect class="BoundingBox" stroke="none" fill="none" x="10749" y="10749" width="504" height="504"/>
        <path fill="rgb(0,0,0)" stroke="none" d="M 11251,11001 C 11251,11044 11239,11088 11217,11126 11195,11164 11164,11195 11126,11217 11088,11239 11044,11251 11001,11251 10957,11251 10913,11239 10875,11217 10837,11195 10806,11164 10784,11126 10762,11088 10750,11044 10750,11001 10750,10957 10762,10913 10784,10875 10806,10837 10837,10806 10875,10784 10913,10762 10957,10750 11001,10750 11044,10750 11088,10762 11126,10784 11164,10806 11195,10837 11217,10875 11239,10913 11251,10957 11251,11001 L 11251,11001 Z"/>
        <path fill="none" stroke="rgb(0,0,0)" d="M 11251,11001 C 11251,11044 11239,11088 11217,11126 11195,11164 11164,11195 11126,11217 11088,11239 11044,11251 11001,11251 10957,11251 10913,11239 10875,11217 10837,11195 10806,11164 10784,11126 10762,11088 10750,11044 10750,11001 10750,10957 10762,10913 10784,10875 10806,10837 10837,10806 10875,10784 10913,10762 10957,10750 11001,10750 11044,10750 11088,10762 11126,10784 11164,10806 11195,10837 11217,10875 11239,10913 11251,10957 11251,11001 Z"/>
       </g>
      </g>
      <g class="com.sun.star.drawing.CustomShape">
       <g id="id10">
        <rect class="BoundingBox" stroke="none" fill="none" x="12000" y="3998" width="2004" height="2004"/>
        <path fill="rgb(0,0,0)" stroke="none" d="M 13002,3999 C 13177,3999 13350,4045 13502,4133 13654,4221 13780,4347 13868,4499 13956,4651 14002,4824 14002,5000 14002,5175 13956,5348 13868,5500 13780,5652 13654,5778 13502,5866 13350,5954 13177,6000 13002,6000 12826,6000 12653,5954 12501,5866 12349,5778 12223,5652 12135,5500 12047,5348 12001,5175 12001,5000 12001,4824 12047,4651 12135,4499 12223,4347 12349,4221 12501,4133 12653,4045 12826,3999 13002,3999 L 13002,3999 Z"/>
        <path fill="none" stroke="rgb(0,0,0)" d="M 13002,3999 C 13177,3999 13350,4045 13502,4133 13654,4221 13780,4347 13868,4499 13956,4651 14002,4824 14002,5000 14002,5175 13956,5348 13868,5500 13780,5652 13654,5778 13502,5866 13350,5954 13177,6000 13002,6000 12826,6000 12653,5954 12501,5866 12349,5778 12223,5652 12135,5500 12047,5348 12001,5175 12001,5000 12001,4824 12047,4651 12135,4499 12223,4347 12349,4221 12501,4133 12653,4045 12826,3999 13002,3999 Z"/>
       </g>
      </g>
      <g class="com.sun.star.drawing.CustomShape">
       <g id="id11">
        <rect class="BoundingBox" stroke="none" fill="none" x="8000" y="3999" width="2004" height="2004"/>
        <path fill="rgb(0,0,0)" stroke="none" d="M 9002,4000 C 9177,4000 9350,4046 9502,4134 9654,4222 9780,4348 9868,4500 9956,4652 10002,4825 10002,5001 10002,5176 9956,5349 9868,5501 9780,5653 9654,5779 9502,5867 9350,5955 9177,6001 9002,6001 8826,6001 8653,5955 8501,5867 8349,5779 8223,5653 8135,5501 8047,5349 8001,5176 8001,5001 8001,4825 8047,4652 8135,4500 8223,4348 8349,4222 8501,4134 8653,4046 8826,4000 9002,4000 L 9002,4000 Z"/>
        <path fill="none" stroke="rgb(0,0,0)" d="M 9002,4000 C 9177,4000 9350,4046 9502,4134 9654,4222 9780,4348 9868,4500 9956,4652 10002,4825 10002,5001 10002,5176 9956,5349 9868,5501 9780,5653 9654,5779 9502,5867 9350,5955 9177,6001 9002,6001 8826,6001 8653,5955 8501,5867 8349,5779 8223,5653 8135,5501 8047,5349 8001,5176 8001,5001 8001,4825 8047,4652 8135,4500 8223,4348 8349,4222 8501,4134 8653,4046 8826,4000 9002,4000 Z"/>
       </g>
      </g>
      <g class="com.sun.star.drawing.ClosedBezierShape">
       <g id="id12">
        <rect class="BoundingBox" stroke="none" fill="none" x="15000" y="3999" width="2003" height="11002"/>
        <path fill="rgb(0,0,0)" stroke="none" d="M 15001,4207 L 15001,4000 C 15400,4087 15725,4351 15974,4794 16224,5236 16349,5729 16349,6272 16349,6555 16322,6884 16267,7258 16212,7631 16184,7922 16184,8131 16184,8414 16256,8679 16401,8925 16546,9171 16746,9321 17002,9376 L 17002,9618 C 16746,9673 16546,9824 16401,10070 16256,10315 16184,10580 16184,10863 16184,11072 16212,11364 16267,11740 16322,12115 16349,12445 16349,12728 16349,13263 16224,13753 15974,14198 15725,14642 15400,14910 15001,15000 L 15001,14794 C 15281,14679 15486,14498 15616,14251 15746,14003 15811,13727 15811,13424 15811,13192 15784,12886 15729,12507 15674,12127 15646,11806 15646,11542 15646,11141 15735,10753 15913,10379 16091,10006 16356,9716 16708,9512 16363,9303 16100,9008 15919,8627 15737,8245 15646,7856 15646,7458 15646,7191 15674,6867 15729,6487 15784,6108 15811,5802 15811,5570 15811,5271 15746,4996 15616,4747 15486,4497 15281,4317 15001,4207 Z"/>
       </g>
      </g>
      <g class="com.sun.star.drawing.ClosedBezierShape">
       <g id="id13">
        <rect class="BoundingBox" stroke="none" fill="none" x="17774" y="8554" width="1350" height="1995"/>
        <path fill="rgb(0,0,0)" stroke="none" d="M 18554,8555 L 18163,9910 18320,9776 C 18491,9631 18603,9523 18655,9453 18671,9430 18679,9413 18679,9401 18679,9393 18677,9385 18671,9378 18666,9370 18655,9364 18639,9360 18623,9355 18594,9353 18554,9353 L 18506,9353 18521,9300 19123,9300 19109,9353 C 19040,9357 18981,9367 18931,9385 18881,9403 18832,9430 18785,9464 18693,9533 18632,9581 18602,9608 L 18484,9712 C 18504,9779 18529,9871 18558,9989 18608,10186 18641,10303 18659,10339 18676,10376 18694,10395 18712,10395 18728,10395 18746,10387 18767,10371 18815,10336 18866,10281 18920,10204 L 18969,10239 C 18869,10365 18792,10448 18739,10488 18685,10528 18637,10547 18592,10548 18554,10547 18524,10532 18503,10502 18466,10448 18405,10234 18320,9861 L 18131,10025 17989,10514 17774,10514 18231,8942 18270,8809 C 18275,8786 18277,8765 18277,8748 18277,8726 18268,8707 18251,8693 18234,8678 18210,8671 18178,8671 18157,8671 18123,8675 18077,8685 L 18077,8636 18554,8555 Z"/>
       </g>
      </g>
      <g class="com.sun.star.drawing.CustomShape">
       <g id="id14">
        <rect class="BoundingBox" stroke="none" fill="none" x="7999" y="15998" width="2004" height="2004"/>
        <path fill="rgb(0,0,0)" stroke="none" d="M 9001,15999 C 9176,15999 9349,16045 9501,16133 9653,16221 9779,16347 9867,16499 9955,16651 10001,16824 10001,17000 10001,17175 9955,17348 9867,17500 9779,17652 9653,17778 9501,17866 9349,17954 9176,18000 9001,18000 8825,18000 8652,17954 8500,17866 8348,17778 8222,17652 8134,17500 8046,17348 8000,17175 8000,16999 8000,16824 8046,16651 8134,16499 8222,16347 8348,16221 8500,16133 8652,16045 8825,15999 9001,15999 L 9001,15999 Z"/>
        <path fill="none" stroke="rgb(0,0,0)" d="M 9001,15999 C 9176,15999 9349,16045 9501,16133 9653,16221 9779,16347 9867,16499 9955,16651 10001,16824 10001,17000 10001,17175 9955,17348 9867,17500 9779,17652 9653,17778 9501,17866 9349,17954 9176,18000 9001,18000 8825,18000 8652,17954 8500,17866 8348,17778 8222,17652 8134,17500 8046,17348 8000,17175 8000,16999 8000,16824 8046,16651 8134,16499 8222,16347 8348,16221 8500,16133 8652,16045 8825,15999 9001,15999 Z"/>
       </g>
      </g>
     </g>
    </g>
   </g>
  </g>
 </g>
</svg>