<?xml version="1.0" encoding="utf-8" ?>
<svg baseProfile="full" height="800px" version="1.1" width="800px" xmlns="http://www.w3.org/2000/svg" xmlns:ev="http://www.w3.org/2001/xml-events" xmlns:xlink="http://www.w3.org/1999/xlink"><defs /><rect fill="white" height="50" stroke="black" width="50" x="0" y="0" /><text font-family="Arial" font-size="24" font-weight="bold" x="10" y="40">×</text><line stroke="black" stroke-width="3" x1="0" x2="50" y1="50" y2="50" /><line stroke="black" stroke-width="3" x1="50" x2="50" y1="0" y2="50" /><rect fill="white" height="50" stroke="black" width="50" x="50" y="0" /><text font-family="Arial" font-size="24" font-weight="bold" x="60" y="40">1</text><line stroke="black" stroke-width="3" x1="50" x2="100" y1="50" y2="50" /><rect fill="white" height="50" stroke="black" width="50" x="100" y="0" /><text font-family="Arial" font-size="24" font-weight="bold" x="110" y="40">2</text><line stroke="black" stroke-width="3" x1="100" x2="150" y1="50" y2="50" /><rect fill="white" height="50" stroke="black" width="50" x="150" y="0" /><text font-family="Arial" font-size="24" font-weight="bold" x="160" y="40">3</text><line stroke="black" stroke-width="3" x1="150" x2="200" y1="50" y2="50" /><rect fill="white" height="50" stroke="black" width="50" x="200" y="0" /><text font-family="Arial" font-size="24" font-weight="bold" x="210" y="40">4</text><line stroke="black" stroke-width="3" x1="200" x2="250" y1="50" y2="50" /><rect fill="white" height="50" stroke="black" width="50" x="250" y="0" /><text font-family="Arial" font-size="24" font-weight="bold" x="260" y="40">5</text><line stroke="black" stroke-width="3" x1="250" x2="300" y1="50" y2="50" /><rect fill="white" height="50" stroke="black" width="50" x="300" y="0" /><text font-family="Arial" font-size="24" font-weight="bold" x="310" y="40">6</text><line stroke="black" stroke-width="3" x1="300" x2="350" y1="50" y2="50" /><rect fill="white" height="50" stroke="black" width="50" x="350" y="0" /><text font-family="Arial" font-size="24" font-weight="bold" x="360" y="40">7</text><line stroke="black" stroke-width="3" x1="350" x2="400" y1="50" y2="50" /><rect fill="white" height="50" stroke="black" width="50" x="400" y="0" /><text font-family="Arial" font-size="24" font-weight="bold" x="410" y="40">8</text><line stroke="black" stroke-width="3" x1="400" x2="450" y1="50" y2="50" /><rect fill="white" height="50" stroke="black" width="50" x="450" y="0" /><text font-family="Arial" font-size="24" font-weight="bold" x="460" y="40">9</text><line stroke="black" stroke-width="3" x1="450" x2="500" y1="50" y2="50" /><rect fill="white" height="50" stroke="black" width="50" x="500" y="0" /><text font-family="Arial" font-size="24" font-weight="bold" x="510" y="40">A</text><line stroke="black" stroke-width="3" x1="500" x2="550" y1="50" y2="50" /><rect fill="white" height="50" stroke="black" width="50" x="550" y="0" /><text font-family="Arial" font-size="24" font-weight="bold" x="560" y="40">B</text><line stroke="black" stroke-width="3" x1="550" x2="600" y1="50" y2="50" /><rect fill="white" height="50" stroke="black" width="50" x="0" y="50" /><text font-family="Arial" font-size="24" font-weight="bold" x="10" y="90">1</text><line stroke="black" stroke-width="3" x1="50" x2="50" y1="50" y2="100" /><rect fill="white" height="50" stroke="black" width="50" x="50" y="50" /><text font-family="Arial" font-size="20" font-weight="normal" x="60" y="90">1</text><rect fill="white" height="50" stroke="black" width="50" x="100" y="50" /><text font-family="Arial" font-size="20" font-weight="normal" x="110" y="90">2</text><rect fill="white" height="50" stroke="black" width="50" x="150" y="50" /><text font-family="Arial" font-size="20" font-weight="normal" x="160" y="90">3</text><rect fill="white" height="50" stroke="black" width="50" x="200" y="50" /><text font-family="Arial" font-size="20" font-weight="normal" x="210" y="90">4</text><rect fill="white" height="50" stroke="black" width="50" x="250" y="50" /><text font-family="Arial" font-size="20" font-weight="normal" x="260" y="90">5</text><rect fill="white" height="50" stroke="black" width="50" x="300" y="50" /><text font-family="Arial" font-size="20" font-weight="normal" x="310" y="90">6</text><rect fill="white" height="50" stroke="black" width="50" x="350" y="50" /><text font-family="Arial" font-size="20" font-weight="normal" x="360" y="90">7</text><rect fill="white" height="50" stroke="black" width="50" x="400" y="50" /><text font-family="Arial" font-size="20" font-weight="normal" x="410" y="90">8</text><rect fill="white" height="50" stroke="black" width="50" x="450" y="50" /><text font-family="Arial" font-size="20" font-weight="normal" x="460" y="90">9</text><rect fill="white" height="50" stroke="black" width="50" x="500" y="50" /><text font-family="Arial" font-size="20" font-weight="normal" x="510" y="90">A</text><rect fill="white" height="50" stroke="black" width="50" x="550" y="50" /><text font-family="Arial" font-size="20" font-weight="normal" x="560" y="90">B</text><rect fill="white" height="50" stroke="black" width="50" x="0" y="100" /><text font-family="Arial" font-size="24" font-weight="bold" x="10" y="140">2</text><line stroke="black" stroke-width="3" x1="50" x2="50" y1="100" y2="150" /><rect fill="white" height="50" stroke="black" width="50" x="50" y="100" /><text font-family="Arial" font-size="20" font-weight="normal" x="60" y="140">2</text><rect fill="white" height="50" stroke="black" width="50" x="100" y="100" /><text font-family="Arial" font-size="20" font-weight="normal" x="110" y="140">4</text><rect fill="white" height="50" stroke="black" width="50" x="150" y="100" /><text font-family="Arial" font-size="20" font-weight="normal" x="160" y="140">6</text><rect fill="white" height="50" stroke="black" width="50" x="200" y="100" /><text font-family="Arial" font-size="20" font-weight="normal" x="210" y="140">8</text><rect fill="white" height="50" stroke="black" width="50" x="250" y="100" /><text font-family="Arial" font-size="20" font-weight="normal" x="260" y="140">A</text><rect fill="white" height="50" stroke="black" width="50" x="300" y="100" /><text font-family="Arial" font-size="20" font-weight="normal" x="310" y="140">10</text><rect fill="white" height="50" stroke="black" width="50" x="350" y="100" /><text font-family="Arial" font-size="20" font-weight="normal" x="360" y="140">12</text><rect fill="white" height="50" stroke="black" width="50" x="400" y="100" /><text font-family="Arial" font-size="20" font-weight="normal" x="410" y="140">14</text><rect fill="white" height="50" stroke="black" width="50" x="450" y="100" /><text font-family="Arial" font-size="20" font-weight="normal" x="460" y="140">16</text><rect fill="white" height="50" stroke="black" width="50" x="500" y="100" /><text font-family="Arial" font-size="20" font-weight="normal" x="510" y="140">18</text><rect fill="white" height="50" stroke="black" width="50" x="550" y="100" /><text font-family="Arial" font-size="20" font-weight="normal" x="560" y="140">1A</text><rect fill="white" height="50" stroke="black" width="50" x="0" y="150" /><text font-family="Arial" font-size="24" font-weight="bold" x="10" y="190">3</text><line stroke="black" stroke-width="3" x1="50" x2="50" y1="150" y2="200" /><rect fill="white" height="50" stroke="black" width="50" x="50" y="150" /><text font-family="Arial" font-size="20" font-weight="normal" x="60" y="190">3</text><rect fill="white" height="50" stroke="black" width="50" x="100" y="150" /><text font-family="Arial" font-size="20" font-weight="normal" x="110" y="190">6</text><rect fill="white" height="50" stroke="black" width="50" x="150" y="150" /><text font-family="Arial" font-size="20" font-weight="normal" x="160" y="190">9</text><rect fill="white" height="50" stroke="black" width="50" x="200" y="150" /><text font-family="Arial" font-size="20" font-weight="normal" x="210" y="190">10</text><rect fill="white" height="50" stroke="black" width="50" x="250" y="150" /><text font-family="Arial" font-size="20" font-weight="normal" x="260" y="190">13</text><rect fill="white" height="50" stroke="black" width="50" x="300" y="150" /><text font-family="Arial" font-size="20" font-weight="normal" x="310" y="190">16</text><rect fill="white" height="50" stroke="black" width="50" x="350" y="150" /><text font-family="Arial" font-size="20" font-weight="normal" x="360" y="190">19</text><rect fill="white" height="50" stroke="black" width="50" x="400" y="150" /><text font-family="Arial" font-size="20" font-weight="normal" x="410" y="190">20</text><rect fill="white" height="50" stroke="black" width="50" x="450" y="150" /><text font-family="Arial" font-size="20" font-weight="normal" x="460" y="190">23</text><rect fill="white" height="50" stroke="black" width="50" x="500" y="150" /><text font-family="Arial" font-size="20" font-weight="normal" x="510" y="190">26</text><rect fill="white" height="50" stroke="black" width="50" x="550" y="150" /><text font-family="Arial" font-size="20" font-weight="normal" x="560" y="190">29</text><rect fill="white" height="50" stroke="black" width="50" x="0" y="200" /><text font-family="Arial" font-size="24" font-weight="bold" x="10" y="240">4</text><line stroke="black" stroke-width="3" x1="50" x2="50" y1="200" y2="250" /><rect fill="white" height="50" stroke="black" width="50" x="50" y="200" /><text font-family="Arial" font-size="20" font-weight="normal" x="60" y="240">4</text><rect fill="white" height="50" stroke="black" width="50" x="100" y="200" /><text font-family="Arial" font-size="20" font-weight="normal" x="110" y="240">8</text><rect fill="white" height="50" stroke="black" width="50" x="150" y="200" /><text font-family="Arial" font-size="20" font-weight="normal" x="160" y="240">10</text><rect fill="white" height="50" stroke="black" width="50" x="200" y="200" /><text font-family="Arial" font-size="20" font-weight="normal" x="210" y="240">14</text><rect fill="white" height="50" stroke="black" width="50" x="250" y="200" /><text font-family="Arial" font-size="20" font-weight="normal" x="260" y="240">18</text><rect fill="white" height="50" stroke="black" width="50" x="300" y="200" /><text font-family="Arial" font-size="20" font-weight="normal" x="310" y="240">20</text><rect fill="white" height="50" stroke="black" width="50" x="350" y="200" /><text font-family="Arial" font-size="20" font-weight="normal" x="360" y="240">24</text><rect fill="white" height="50" stroke="black" width="50" x="400" y="200" /><text font-family="Arial" font-size="20" font-weight="normal" x="410" y="240">28</text><rect fill="white" height="50" stroke="black" width="50" x="450" y="200" /><text font-family="Arial" font-size="20" font-weight="normal" x="460" y="240">30</text><rect fill="white" height="50" stroke="black" width="50" x="500" y="200" /><text font-family="Arial" font-size="20" font-weight="normal" x="510" y="240">34</text><rect fill="white" height="50" stroke="black" width="50" x="550" y="200" /><text font-family="Arial" font-size="20" font-weight="normal" x="560" y="240">38</text><rect fill="white" height="50" stroke="black" width="50" x="0" y="250" /><text font-family="Arial" font-size="24" font-weight="bold" x="10" y="290">5</text><line stroke="black" stroke-width="3" x1="50" x2="50" y1="250" y2="300" /><rect fill="white" height="50" stroke="black" width="50" x="50" y="250" /><text font-family="Arial" font-size="20" font-weight="normal" x="60" y="290">5</text><rect fill="white" height="50" stroke="black" width="50" x="100" y="250" /><text font-family="Arial" font-size="20" font-weight="normal" x="110" y="290">A</text><rect fill="white" height="50" stroke="black" width="50" x="150" y="250" /><text font-family="Arial" font-size="20" font-weight="normal" x="160" y="290">13</text><rect fill="white" height="50" stroke="black" width="50" x="200" y="250" /><text font-family="Arial" font-size="20" font-weight="normal" x="210" y="290">18</text><rect fill="white" height="50" stroke="black" width="50" x="250" y="250" /><text font-family="Arial" font-size="20" font-weight="normal" x="260" y="290">21</text><rect fill="white" height="50" stroke="black" width="50" x="300" y="250" /><text font-family="Arial" font-size="20" font-weight="normal" x="310" y="290">26</text><rect fill="white" height="50" stroke="black" width="50" x="350" y="250" /><text font-family="Arial" font-size="20" font-weight="normal" x="360" y="290">2B</text><rect fill="white" height="50" stroke="black" width="50" x="400" y="250" /><text font-family="Arial" font-size="20" font-weight="normal" x="410" y="290">34</text><rect fill="white" height="50" stroke="black" width="50" x="450" y="250" /><text font-family="Arial" font-size="20" font-weight="normal" x="460" y="290">39</text><rect fill="white" height="50" stroke="black" width="50" x="500" y="250" /><text font-family="Arial" font-size="20" font-weight="normal" x="510" y="290">42</text><rect fill="white" height="50" stroke="black" width="50" x="550" y="250" /><text font-family="Arial" font-size="20" font-weight="normal" x="560" y="290">47</text><rect fill="white" height="50" stroke="black" width="50" x="0" y="300" /><text font-family="Arial" font-size="24" font-weight="bold" x="10" y="340">6</text><line stroke="black" stroke-width="3" x1="50" x2="50" y1="300" y2="350" /><rect fill="white" height="50" stroke="black" width="50" x="50" y="300" /><text font-family="Arial" font-size="20" font-weight="normal" x="60" y="340">6</text><rect fill="white" height="50" stroke="black" width="50" x="100" y="300" /><text font-family="Arial" font-size="20" font-weight="normal" x="110" y="340">10</text><rect fill="white" height="50" stroke="black" width="50" x="150" y="300" /><text font-family="Arial" font-size="20" font-weight="normal" x="160" y="340">16</text><rect fill="white" height="50" stroke="black" width="50" x="200" y="300" /><text font-family="Arial" font-size="20" font-weight="normal" x="210" y="340">20</text><rect fill="white" height="50" stroke="black" width="50" x="250" y="300" /><text font-family="Arial" font-size="20" font-weight="normal" x="260" y="340">26</text><rect fill="white" height="50" stroke="black" width="50" x="300" y="300" /><text font-family="Arial" font-size="20" font-weight="normal" x="310" y="340">30</text><rect fill="white" height="50" stroke="black" width="50" x="350" y="300" /><text font-family="Arial" font-size="20" font-weight="normal" x="360" y="340">36</text><rect fill="white" height="50" stroke="black" width="50" x="400" y="300" /><text font-family="Arial" font-size="20" font-weight="normal" x="410" y="340">40</text><rect fill="white" height="50" stroke="black" width="50" x="450" y="300" /><text font-family="Arial" font-size="20" font-weight="normal" x="460" y="340">46</text><rect fill="white" height="50" stroke="black" width="50" x="500" y="300" /><text font-family="Arial" font-size="20" font-weight="normal" x="510" y="340">50</text><rect fill="white" height="50" stroke="black" width="50" x="550" y="300" /><text font-family="Arial" font-size="20" font-weight="normal" x="560" y="340">56</text><rect fill="white" height="50" stroke="black" width="50" x="0" y="350" /><text font-family="Arial" font-size="24" font-weight="bold" x="10" y="390">7</text><line stroke="black" stroke-width="3" x1="50" x2="50" y1="350" y2="400" /><rect fill="white" height="50" stroke="black" width="50" x="50" y="350" /><text font-family="Arial" font-size="20" font-weight="normal" x="60" y="390">7</text><rect fill="white" height="50" stroke="black" width="50" x="100" y="350" /><text font-family="Arial" font-size="20" font-weight="normal" x="110" y="390">12</text><rect fill="white" height="50" stroke="black" width="50" x="150" y="350" /><text font-family="Arial" font-size="20" font-weight="normal" x="160" y="390">19</text><rect fill="white" height="50" stroke="black" width="50" x="200" y="350" /><text font-family="Arial" font-size="20" font-weight="normal" x="210" y="390">24</text><rect fill="white" height="50" stroke="black" width="50" x="250" y="350" /><text font-family="Arial" font-size="20" font-weight="normal" x="260" y="390">2B</text><rect fill="white" height="50" stroke="black" width="50" x="300" y="350" /><text font-family="Arial" font-size="20" font-weight="normal" x="310" y="390">36</text><rect fill="white" height="50" stroke="black" width="50" x="350" y="350" /><text font-family="Arial" font-size="20" font-weight="normal" x="360" y="390">41</text><rect fill="white" height="50" stroke="black" width="50" x="400" y="350" /><text font-family="Arial" font-size="20" font-weight="normal" x="410" y="390">48</text><rect fill="white" height="50" stroke="black" width="50" x="450" y="350" /><text font-family="Arial" font-size="20" font-weight="normal" x="460" y="390">53</text><rect fill="white" height="50" stroke="black" width="50" x="500" y="350" /><text font-family="Arial" font-size="20" font-weight="normal" x="510" y="390">5A</text><rect fill="white" height="50" stroke="black" width="50" x="550" y="350" /><text font-family="Arial" font-size="20" font-weight="normal" x="560" y="390">65</text><rect fill="white" height="50" stroke="black" width="50" x="0" y="400" /><text font-family="Arial" font-size="24" font-weight="bold" x="10" y="440">8</text><line stroke="black" stroke-width="3" x1="50" x2="50" y1="400" y2="450" /><rect fill="white" height="50" stroke="black" width="50" x="50" y="400" /><text font-family="Arial" font-size="20" font-weight="normal" x="60" y="440">8</text><rect fill="white" height="50" stroke="black" width="50" x="100" y="400" /><text font-family="Arial" font-size="20" font-weight="normal" x="110" y="440">14</text><rect fill="white" height="50" stroke="black" width="50" x="150" y="400" /><text font-family="Arial" font-size="20" font-weight="normal" x="160" y="440">20</text><rect fill="white" height="50" stroke="black" width="50" x="200" y="400" /><text font-family="Arial" font-size="20" font-weight="normal" x="210" y="440">28</text><rect fill="white" height="50" stroke="black" width="50" x="250" y="400" /><text font-family="Arial" font-size="20" font-weight="normal" x="260" y="440">34</text><rect fill="white" height="50" stroke="black" width="50" x="300" y="400" /><text font-family="Arial" font-size="20" font-weight="normal" x="310" y="440">40</text><rect fill="white" height="50" stroke="black" width="50" x="350" y="400" /><text font-family="Arial" font-size="20" font-weight="normal" x="360" y="440">48</text><rect fill="white" height="50" stroke="black" width="50" x="400" y="400" /><text font-family="Arial" font-size="20" font-weight="normal" x="410" y="440">54</text><rect fill="white" height="50" stroke="black" width="50" x="450" y="400" /><text font-family="Arial" font-size="20" font-weight="normal" x="460" y="440">60</text><rect fill="white" height="50" stroke="black" width="50" x="500" y="400" /><text font-family="Arial" font-size="20" font-weight="normal" x="510" y="440">68</text><rect fill="white" height="50" stroke="black" width="50" x="550" y="400" /><text font-family="Arial" font-size="20" font-weight="normal" x="560" y="440">74</text><rect fill="white" height="50" stroke="black" width="50" x="0" y="450" /><text font-family="Arial" font-size="24" font-weight="bold" x="10" y="490">9</text><line stroke="black" stroke-width="3" x1="50" x2="50" y1="450" y2="500" /><rect fill="white" height="50" stroke="black" width="50" x="50" y="450" /><text font-family="Arial" font-size="20" font-weight="normal" x="60" y="490">9</text><rect fill="white" height="50" stroke="black" width="50" x="100" y="450" /><text font-family="Arial" font-size="20" font-weight="normal" x="110" y="490">16</text><rect fill="white" height="50" stroke="black" width="50" x="150" y="450" /><text font-family="Arial" font-size="20" font-weight="normal" x="160" y="490">23</text><rect fill="white" height="50" stroke="black" width="50" x="200" y="450" /><text font-family="Arial" font-size="20" font-weight="normal" x="210" y="490">30</text><rect fill="white" height="50" stroke="black" width="50" x="250" y="450" /><text font-family="Arial" font-size="20" font-weight="normal" x="260" y="490">39</text><rect fill="white" height="50" stroke="black" width="50" x="300" y="450" /><text font-family="Arial" font-size="20" font-weight="normal" x="310" y="490">46</text><rect fill="white" height="50" stroke="black" width="50" x="350" y="450" /><text font-family="Arial" font-size="20" font-weight="normal" x="360" y="490">53</text><rect fill="white" height="50" stroke="black" width="50" x="400" y="450" /><text font-family="Arial" font-size="20" font-weight="normal" x="410" y="490">60</text><rect fill="white" height="50" stroke="black" width="50" x="450" y="450" /><text font-family="Arial" font-size="20" font-weight="normal" x="460" y="490">69</text><rect fill="white" height="50" stroke="black" width="50" x="500" y="450" /><text font-family="Arial" font-size="20" font-weight="normal" x="510" y="490">76</text><rect fill="white" height="50" stroke="black" width="50" x="550" y="450" /><text font-family="Arial" font-size="20" font-weight="normal" x="560" y="490">83</text><rect fill="white" height="50" stroke="black" width="50" x="0" y="500" /><text font-family="Arial" font-size="24" font-weight="bold" x="10" y="540">A</text><line stroke="black" stroke-width="3" x1="50" x2="50" y1="500" y2="550" /><rect fill="white" height="50" stroke="black" width="50" x="50" y="500" /><text font-family="Arial" font-size="20" font-weight="normal" x="60" y="540">A</text><rect fill="white" height="50" stroke="black" width="50" x="100" y="500" /><text font-family="Arial" font-size="20" font-weight="normal" x="110" y="540">18</text><rect fill="white" height="50" stroke="black" width="50" x="150" y="500" /><text font-family="Arial" font-size="20" font-weight="normal" x="160" y="540">26</text><rect fill="white" height="50" stroke="black" width="50" x="200" y="500" /><text font-family="Arial" font-size="20" font-weight="normal" x="210" y="540">34</text><rect fill="white" height="50" stroke="black" width="50" x="250" y="500" /><text font-family="Arial" font-size="20" font-weight="normal" x="260" y="540">42</text><rect fill="white" height="50" stroke="black" width="50" x="300" y="500" /><text font-family="Arial" font-size="20" font-weight="normal" x="310" y="540">50</text><rect fill="white" height="50" stroke="black" width="50" x="350" y="500" /><text font-family="Arial" font-size="20" font-weight="normal" x="360" y="540">5A</text><rect fill="white" height="50" stroke="black" width="50" x="400" y="500" /><text font-family="Arial" font-size="20" font-weight="normal" x="410" y="540">68</text><rect fill="white" height="50" stroke="black" width="50" x="450" y="500" /><text font-family="Arial" font-size="20" font-weight="normal" x="460" y="540">76</text><rect fill="white" height="50" stroke="black" width="50" x="500" y="500" /><text font-family="Arial" font-size="20" font-weight="normal" x="510" y="540">84</text><rect fill="white" height="50" stroke="black" width="50" x="550" y="500" /><text font-family="Arial" font-size="20" font-weight="normal" x="560" y="540">92</text><rect fill="white" height="50" stroke="black" width="50" x="0" y="550" /><text font-family="Arial" font-size="24" font-weight="bold" x="10" y="590">B</text><line stroke="black" stroke-width="3" x1="50" x2="50" y1="550" y2="600" /><rect fill="white" height="50" stroke="black" width="50" x="50" y="550" /><text font-family="Arial" font-size="20" font-weight="normal" x="60" y="590">B</text><rect fill="white" height="50" stroke="black" width="50" x="100" y="550" /><text font-family="Arial" font-size="20" font-weight="normal" x="110" y="590">1A</text><rect fill="white" height="50" stroke="black" width="50" x="150" y="550" /><text font-family="Arial" font-size="20" font-weight="normal" x="160" y="590">29</text><rect fill="white" height="50" stroke="black" width="50" x="200" y="550" /><text font-family="Arial" font-size="20" font-weight="normal" x="210" y="590">38</text><rect fill="white" height="50" stroke="black" width="50" x="250" y="550" /><text font-family="Arial" font-size="20" font-weight="normal" x="260" y="590">47</text><rect fill="white" height="50" stroke="black" width="50" x="300" y="550" /><text font-family="Arial" font-size="20" font-weight="normal" x="310" y="590">56</text><rect fill="white" height="50" stroke="black" width="50" x="350" y="550" /><text font-family="Arial" font-size="20" font-weight="normal" x="360" y="590">65</text><rect fill="white" height="50" stroke="black" width="50" x="400" y="550" /><text font-family="Arial" font-size="20" font-weight="normal" x="410" y="590">74</text><rect fill="white" height="50" stroke="black" width="50" x="450" y="550" /><text font-family="Arial" font-size="20" font-weight="normal" x="460" y="590">83</text><rect fill="white" height="50" stroke="black" width="50" x="500" y="550" /><text font-family="Arial" font-size="20" font-weight="normal" x="510" y="590">92</text><rect fill="white" height="50" stroke="black" width="50" x="550" y="550" /><text font-family="Arial" font-size="20" font-weight="normal" x="560" y="590">A1</text></svg>